<svg width="61" height="67" viewBox="0 0 61 67" fill="none" xmlns="http://www.w3.org/2000/svg">
<path d="M26.4998 37.58C27.3771 37.58 28.1091 37.2733 28.6958 36.66C29.2824 36.0467 29.5758 35.3267 29.5758 34.5C29.5758 33.6227 29.2824 32.8907 28.6958 32.304C28.1091 31.7173 27.3771 31.424 26.4998 31.424C25.6731 31.424 24.9531 31.7173 24.3398 32.304C23.7264 32.8907 23.4198 33.6227 23.4198 34.5C23.4198 35.3267 23.7264 36.0467 24.3398 36.66C24.9531 37.2733 25.6731 37.58 26.4998 37.58ZM10.4998 66.5V62.5L38.4998 59.732V12.308C38.4998 10.796 38.0064 9.48533 37.0198 8.376C36.0384 7.26933 34.8251 6.64933 33.3798 6.516L12.9598 4.5V0.5L33.8798 2.564C36.3518 2.83867 38.4051 3.89733 40.0398 5.74C41.6798 7.58 42.4998 9.736 42.4998 12.208V63.256L10.4998 66.5ZM0.34375 66.5V62.5H6.49975V6.964C6.49975 5.10533 7.12909 3.564 8.38775 2.34C9.64642 1.11333 11.1718 0.5 12.9638 0.5H48.0398C49.8958 0.5 51.4371 1.11333 52.6638 2.34C53.8904 3.56667 54.5024 5.108 54.4998 6.964V62.5H60.6558V66.5H0.34375ZM10.4998 62.5H50.4998V6.964C50.4998 6.244 50.2691 5.65333 49.8078 5.192C49.3464 4.73067 48.7571 4.5 48.0398 4.5H12.9598C12.2424 4.5 11.6531 4.73067 11.1918 5.192C10.7304 5.65333 10.4998 6.244 10.4998 6.964V62.5Z" fill="#1B3A57"/>
</svg>
