<svg width="51" height="49" viewBox="0 0 51 49" fill="none" xmlns="http://www.w3.org/2000/svg">
<path d="M48.9531 0.989383V16.847C48.9531 25.2705 48.9531 33.6871 48.9531 42.1106V47.8958C48.9531 49.2149 51.0003 49.2149 51.0003 47.8958V32.0381C51.0003 23.6146 51.0003 15.198 51.0003 6.77452V0.989383C51.0003 -0.329794 48.9531 -0.329794 48.9531 0.989383Z" fill="#2E7D32"/>
<path d="M41.9609 0.989383V27.6065C41.9609 28.9257 44.0081 28.9257 44.0081 27.6065V0.989383C44.0081 -0.329794 41.9609 -0.329794 41.9609 0.989383Z" fill="#2E7D32"/>
<path d="M34.9668 0.989383V41.5884C34.9668 42.9076 37.014 42.9076 37.014 41.5884V0.989383C37.014 -0.329794 34.9668 -0.329794 34.9668 0.989383Z" fill="#2E7D32"/>
<path d="M27.9727 0.989383V21.3404C27.9727 22.6596 30.0198 22.6596 30.0198 21.3404V0.989383C30.0198 -0.329794 27.9727 -0.329794 27.9727 0.989383Z" fill="#2E7D32"/>
<path d="M20.9805 0.989383V35.446C20.9805 36.7652 23.0276 36.7652 23.0276 35.446V0.989383C23.0276 -0.329794 20.9805 -0.329794 20.9805 0.989383Z" fill="#2E7D32"/>
<path d="M13.9863 0.989261V32.8213C13.9863 34.1405 16.0335 34.1405 16.0335 32.8213V0.989261C16.0335 -0.329916 13.9863 -0.329916 13.9863 0.989261Z" fill="#2E7D32"/>
<path d="M6.99414 0.989261V20.1448C6.99414 21.464 9.04128 21.464 9.04128 20.1448V0.989261C9.04128 -0.329916 6.99414 -0.329916 6.99414 0.989261Z" fill="#2E7D32"/>
<path d="M0 0.989383V29.3929C0 30.7121 2.04714 30.7121 2.04714 29.3929V0.989383C2.04714 -0.329794 0 -0.329794 0 0.989383Z" fill="#2E7D32"/>
</svg>
