<svg width="23" height="22" viewBox="0 0 23 22" fill="none" xmlns="http://www.w3.org/2000/svg">
<path d="M18.4677 3H4.22766C3.99427 3 3.77043 3.09271 3.6054 3.25775C3.44037 3.42278 3.34766 3.64661 3.34766 3.88V18.12C3.34766 18.3534 3.44037 18.5772 3.6054 18.7423C3.77043 18.9073 3.99427 19 4.22766 19H11.8917V12.8H9.81166V10.4H11.8917V8.6C11.8486 8.17741 11.8985 7.7505 12.0378 7.34923C12.1772 6.94796 12.4027 6.58204 12.6984 6.27713C12.9942 5.97222 13.3531 5.73571 13.7499 5.58419C14.1468 5.43267 14.5719 5.3698 14.9957 5.4C15.6183 5.3957 16.2407 5.42776 16.8597 5.496V7.656H15.5877C14.5797 7.656 14.3877 8.136 14.3877 8.832V10.376H16.7877L16.4757 12.776H14.3877V19H18.4677C18.5832 19 18.6977 18.9772 18.8044 18.933C18.9112 18.8888 19.0082 18.824 19.0899 18.7423C19.1716 18.6605 19.2364 18.5635 19.2807 18.4568C19.3249 18.35 19.3477 18.2356 19.3477 18.12V3.88C19.3477 3.76444 19.3249 3.65001 19.2807 3.54324C19.2364 3.43647 19.1716 3.33946 19.0899 3.25775C19.0082 3.17603 18.9112 3.11121 18.8044 3.06699C18.6977 3.02276 18.5832 3 18.4677 3Z" fill="white"/>
</svg>
