<svg width="42" height="42" viewBox="0 0 42 42" fill="none" xmlns="http://www.w3.org/2000/svg">
<path d="M21 7.25C22.036 7.25 23.0578 7.33621 24.0645 7.50879C25.0681 7.68088 26.043 7.95342 26.9893 8.32617L26.9932 8.32812C27.4198 8.48813 27.8887 8.79495 28.3994 9.26367C28.644 9.48821 28.7791 9.68769 28.834 9.86035C28.8858 10.0235 28.8717 10.1776 28.7861 10.3379C28.6074 10.6721 28.178 10.9425 27.3867 11.085C26.5906 11.2282 25.9835 11.2072 25.5459 11.0518H25.5449C24.8034 10.7849 24.0538 10.5843 23.2969 10.4512C22.5396 10.3181 21.7736 10.2512 21 10.25C17.0549 10.25 13.6879 11.6402 10.9131 14.415C8.13832 17.1899 6.74883 20.5561 6.75 24.5C6.75 25.7482 6.92158 26.9817 7.26367 28.1992C7.60525 29.4148 8.08685 30.5574 8.70898 31.626L8.78125 31.75H33.2158L33.2891 31.6299C33.9719 30.5017 34.47 29.3262 34.7832 28.1055C35.0954 26.8887 35.2512 25.6285 35.25 24.3252L35.2373 23.748C35.2121 23.1737 35.1488 22.607 35.0479 22.0488C34.9133 21.3051 34.7127 20.576 34.4463 19.8623C34.2875 19.4099 34.2639 18.9797 34.3672 18.5664C34.4693 18.1581 34.6991 17.8109 35.0674 17.5215L35.0664 17.5205C35.3855 17.2759 35.7225 17.208 36.0977 17.3047C36.432 17.3909 36.6639 17.5643 36.8115 17.8291L36.8701 17.9482C37.3015 18.9548 37.6324 19.9828 37.8623 21.0322C38.0635 21.9506 38.1872 22.8853 38.2344 23.8359L38.25 24.2441C38.2786 25.8838 38.0912 27.4493 37.6895 28.9414C37.2873 30.4349 36.699 31.8566 35.9238 33.207C35.627 33.6926 35.2237 34.0698 34.709 34.3408C34.1899 34.614 33.6461 34.75 33.0752 34.75H8.9248C8.35388 34.75 7.81006 34.614 7.29102 34.3408C6.84054 34.1036 6.4755 33.7851 6.19238 33.3838L6.07617 33.207C5.33003 31.9146 4.75569 30.5438 4.35352 29.0938C3.95162 27.6446 3.75 26.1135 3.75 24.5C3.75 22.1118 4.20351 19.8787 5.1084 17.7979C6.01555 15.7119 7.2521 13.8858 8.81836 12.3184C10.3842 10.7513 12.2164 9.51443 14.3174 8.6084C16.2833 7.76062 18.3636 7.30988 20.5596 7.25586L21 7.25ZM30.1807 14.7344C30.2948 14.7455 30.4209 14.8033 30.5586 14.9414C30.6962 15.0796 30.7535 15.2059 30.7646 15.3203C30.7757 15.4348 30.7437 15.5729 30.6357 15.7422L23.2422 26.8115C22.7712 27.519 22.0389 27.8911 20.9971 27.9043C19.9473 27.9176 19.1103 27.5947 18.4639 26.9482H18.4648C17.8201 26.3024 17.513 25.4825 17.5537 24.4658C17.5943 23.4539 17.9778 22.7316 18.6885 22.2578L29.7568 14.8633C29.9271 14.7544 30.0663 14.7233 30.1807 14.7344Z" fill="#C4C4C4" stroke="white" stroke-width="0.5"/>
</svg>
