<svg width="42" height="42" viewBox="0 0 42 42" fill="none" xmlns="http://www.w3.org/2000/svg">
    <path d="M20.125 5.25C24.5342 5.25 28.7629 7.00156 31.8806 10.1193C34.9984 13.2371 36.75 17.4658 36.75 21.875C36.75 26.2842 34.9984 30.5129 31.8806 33.6306C28.7629 36.7484 24.5342 38.5 20.125 38.5C15.7158 38.5 11.4871 36.7484 8.36935 33.6306C5.25156 30.5129 3.5 26.2842 3.5 21.875C3.5 17.4658 5.25156 13.2371 8.36935 10.1193C11.4871 7.00156 15.7158 5.25 20.125 5.25ZM20.125 7C16.1799 7 12.3964 8.56718 9.60679 11.3568C6.81718 14.1464 5.25 17.9299 5.25 21.875C5.25 25.8201 6.81718 29.6036 9.60679 32.3932C12.3964 35.1828 16.1799 36.75 20.125 36.75C22.0784 36.75 24.0127 36.3652 25.8174 35.6177C27.6221 34.8702 29.2619 33.7745 30.6432 32.3932C32.0245 31.0119 33.1202 29.3721 33.8677 27.5674C34.6152 25.7627 35 23.8284 35 21.875C35 17.9299 33.4328 14.1464 30.6432 11.3568C27.8536 8.56718 24.0701 7 20.125 7ZM19.25 12.25H21V21.735L29.225 26.4775L28.35 28L19.25 22.75V12.25Z" fill="#C4C4C4"/>
</svg>
