<svg width="42" height="42" viewBox="0 0 42 42" fill="none" xmlns="http://www.w3.org/2000/svg">
<path d="M13.7511 21.4324C13.7511 21.1152 14.0082 20.858 14.3255 20.858H18.122C18.139 20.8565 18.1563 20.8558 18.1738 20.8558C18.491 20.8558 18.7482 21.1105 18.7482 21.4278C18.7482 21.7451 18.491 22.0069 18.1738 22.0069H14.3255C14.0082 22.0069 13.7511 21.7497 13.7511 21.4325V21.4324ZM10.5518 11.5721C10.6582 11.7564 10.8511 11.8593 11.0496 11.8593C11.1471 11.8593 11.2459 11.8344 11.3363 11.7822C11.611 11.6235 11.7051 11.2723 11.5464 10.9976L9.27923 7.07253C9.12058 6.79789 8.7694 6.70355 8.49468 6.86245C8.21996 7.0211 8.12595 7.37236 8.2846 7.647L10.5518 11.5721ZM7.73761 15.3831C7.89626 15.1084 7.80209 14.7571 7.52737 14.5987L3.59996 12.3315C3.32515 12.1728 2.97406 12.267 2.81549 12.5417C2.65684 12.8164 2.75102 13.1677 3.02574 13.3262L6.95315 15.5934C7.04363 15.6456 7.14231 15.6704 7.23968 15.6704C7.4382 15.6704 7.63122 15.5674 7.73761 15.383V15.3831ZM18.7482 23.6949C18.7482 23.3777 18.491 23.1228 18.1738 23.1228C18.1563 23.1228 18.139 23.1237 18.122 23.1251H14.3255C14.0082 23.1251 13.7511 23.3823 13.7511 23.6995C13.7511 24.0167 14.0082 24.2739 14.3255 24.2739H18.1738C18.491 24.2739 18.7482 24.0121 18.7482 23.6949V23.6949ZM5.84507 19.7256H1.31071C0.993496 19.7256 0.736328 19.9828 0.736328 20.3C0.736328 20.6172 0.993496 20.8744 1.31071 20.8744H5.84499C6.1622 20.8744 6.41937 20.6172 6.41937 20.3C6.41937 19.9828 6.16229 19.7256 5.84507 19.7256ZM36.6413 25.1529H26.6774C26.3602 25.1529 26.103 25.41 26.103 25.7273C26.103 26.0445 26.3602 26.3016 26.6774 26.3016H36.6413C36.9585 26.3016 37.2157 26.0445 37.2157 25.7273C37.2157 25.41 36.9585 25.1529 36.6413 25.1529ZM37.2157 14.3891V18.0887C37.2157 18.4059 36.9585 18.6631 36.6413 18.6631H26.6774C26.3602 18.6631 26.103 18.4059 26.103 18.0887V14.3891C26.103 14.0718 26.3602 13.8147 26.6774 13.8147H36.6413C36.9585 13.8147 37.2157 14.0718 37.2157 14.3891ZM36.0669 14.9634H27.2518V17.5143H36.0669V14.9634ZM41.2617 11.529V34.9749C41.2617 36.1148 40.3343 37.0421 39.1945 37.0421H14.6207C13.9386 37.0421 13.3837 36.4871 13.3837 35.805V34.2171C12.8787 33.9257 12.5373 33.3808 12.5373 32.7566V31.3916H12.5094C12.3494 31.3916 12.1967 31.3249 12.088 31.2075C11.9794 31.0902 11.9245 30.9329 11.9366 30.7734C12.011 29.8015 11.4667 29.0653 10.7134 28.0461C10.3109 27.5015 9.85459 26.8843 9.44477 26.1455C7.97116 23.4912 7.32869 21.0566 7.535 18.9094C7.71842 17.0004 8.58721 15.3512 10.0473 14.1399C11.366 13.0457 13.156 12.3421 15.081 12.137V7.02471C15.081 5.8848 16.0085 4.95752 17.1483 4.95752H34.6903C34.6964 4.95752 34.7023 4.95826 34.7083 4.95842C34.7156 4.95867 34.7228 4.959 34.73 4.95949C34.753 4.96113 34.7759 4.96367 34.7983 4.96802C34.8001 4.96835 34.8019 4.96851 34.8036 4.96884C34.8273 4.9736 34.8504 4.98041 34.8733 4.98803C34.8796 4.99017 34.8859 4.99246 34.8922 4.99484C34.9137 5.00296 34.935 5.01207 34.9555 5.02273C34.9571 5.02355 34.9587 5.02413 34.9603 5.02495C34.9821 5.0366 35.0029 5.05013 35.0232 5.06457C35.0283 5.06826 35.0334 5.07203 35.0385 5.07589C35.0587 5.09131 35.0783 5.10755 35.0965 5.12577L41.0935 11.1227C41.1116 11.1408 41.1279 11.1603 41.1432 11.1805C41.1471 11.1856 41.1509 11.1907 41.1546 11.1959C41.169 11.2162 41.1826 11.237 41.1942 11.2589C41.1949 11.2601 41.1953 11.2615 41.1959 11.2626C41.2069 11.2835 41.2162 11.3053 41.2245 11.3274C41.2267 11.3332 41.2288 11.3391 41.2308 11.345C41.2466 11.3917 41.2564 11.4405 41.2598 11.4904C41.2602 11.4966 41.2605 11.5026 41.2607 11.5088C41.2609 11.5154 41.2617 11.5221 41.2617 11.5287L41.2617 11.529ZM35.2663 6.92028L35.2711 10.9588L39.3018 10.9556L35.2664 6.92028H35.2663ZM15.6787 30.2428V26.0208C15.6772 26.0037 15.6764 25.9865 15.6764 25.969C15.6764 25.6518 15.9312 25.3946 16.2485 25.3946C16.5658 25.3946 16.8276 25.6518 16.8276 25.969V30.2428H19.4304C19.5473 29.1477 20.1923 28.2759 20.869 27.3612C21.2694 26.82 21.6834 26.2604 22.0573 25.5876C24.5784 21.0452 24.4601 17.2935 21.7239 15.0237C20.1534 13.7212 17.945 13.1216 15.786 13.2226C15.744 13.2323 15.7005 13.238 15.6556 13.238C15.6328 13.238 15.6105 13.2363 15.5884 13.2337C13.8088 13.3524 12.0773 13.9483 10.7809 15.0238C8.04515 17.2935 7.92743 21.0452 10.4492 25.5878C10.4492 25.5878 10.4492 25.588 10.4493 25.588C10.8229 26.2614 11.2369 26.8216 11.6372 27.3632C12.3129 28.2774 12.9569 29.1485 13.0736 30.2428H15.6787ZM17.9715 34.4423H14.5324V35.805C14.5324 35.8529 14.5728 35.8932 14.6207 35.8932H17.8855C17.9313 35.8932 17.9715 35.852 17.9715 35.805V34.4423ZM18.8202 31.3916H13.686V32.7566C13.686 33.0527 13.926 33.2937 14.2209 33.2937H18.2831C18.5793 33.2937 18.8202 33.0527 18.8202 32.7566V31.3916ZM40.113 34.9749V12.1038L34.6978 12.108H34.6973C34.3805 12.108 34.1234 11.8513 34.123 11.5343L34.1166 6.10645H17.1483C16.6418 6.10645 16.2298 6.51841 16.2298 7.02487V12.0735C16.2372 12.0735 16.2446 12.0731 16.252 12.0731C18.6121 12.0731 20.8738 12.8263 22.4571 14.1397C23.9175 15.351 24.7865 17.0002 24.9703 18.9091C25.177 21.0564 24.5347 23.491 23.0615 26.1455C22.6511 26.8837 22.195 27.5004 21.7924 28.0445C21.0379 29.0643 20.4927 29.801 20.5671 30.7735C20.5793 30.933 20.5244 31.0903 20.4157 31.2077C20.3071 31.325 20.1544 31.3917 19.9944 31.3917H19.9688V32.7567C19.9688 33.3813 19.6263 33.9267 19.1201 34.2178V35.8051C19.1201 35.8349 19.1177 35.8641 19.1157 35.8934H39.1943C39.7008 35.8934 40.1128 35.4814 40.1128 34.975L40.113 34.9749ZM36.6413 29.0942H22.7407C22.4235 29.0942 22.1663 29.3514 22.1663 29.6686C22.1663 29.9858 22.4235 30.243 22.7407 30.243H36.6413C36.9585 30.243 37.2157 29.9858 37.2157 29.6686C37.2157 29.3514 36.9585 29.0942 36.6413 29.0942ZM36.6413 21.2138H26.6774C26.3602 21.2138 26.103 21.471 26.103 21.7882C26.103 22.1054 26.3602 22.3626 26.6774 22.3626H36.6413C36.9585 22.3626 37.2157 22.1054 37.2157 21.7882C37.2157 21.471 36.9585 21.2138 36.6413 21.2138ZM36.6413 33.0357H22.7407C22.4235 33.0357 22.1663 33.2928 22.1663 33.6101C22.1663 33.9273 22.4235 34.1844 22.7407 34.1844H36.6413C36.9585 34.1844 37.2157 33.9273 37.2157 33.6101C37.2157 33.2928 36.9585 33.0357 36.6413 33.0357Z" fill="#C4C4C4"/>
</svg>
