<svg width="42" height="42" viewBox="0 0 42 42" fill="none" xmlns="http://www.w3.org/2000/svg">
<path d="M13.3575 15.3586H28.6426C29.1173 15.3586 29.5036 14.9722 29.5036 14.4975V3.73145C29.5036 3.25662 29.1174 2.87028 28.6426 2.87028H24.6326V1.49389C24.6326 0.670215 23.9625 0 23.1387 0H18.8613C18.0376 0 17.3674 0.670215 17.3674 1.49389V2.87028H13.3574C12.8827 2.87028 12.4964 3.25662 12.4964 3.73145V14.4976C12.4965 14.9723 12.8827 15.3586 13.3575 15.3586ZM13.6867 14.1683V6.67264L19.4006 9.02124V9.70268C19.4006 10.5847 20.1181 11.3022 21 11.3022C21.882 11.3022 22.5995 10.5847 22.5995 9.70268V9.02124L28.3134 6.67264V14.1684H13.6867V14.1683ZM20.5907 9.70268V7.6383H21.4092V9.70268C21.4092 9.92832 21.2256 10.1119 20.9999 10.1119C20.7743 10.1119 20.5907 9.92832 20.5907 9.70268ZM18.5577 1.49389C18.5577 1.32929 18.6967 1.19028 18.8613 1.19028H23.1387C23.3033 1.19028 23.4423 1.32938 23.4423 1.49389V2.87028H18.5577V1.49389ZM28.3133 4.06057V5.38569L22.5995 7.73429V7.04316C22.5995 6.71447 22.3331 6.44802 22.0044 6.44802H19.9957C19.667 6.44802 19.4006 6.71447 19.4006 7.04316V7.73429L13.6867 5.38569V4.06057H28.3133ZM41.9444 30.6929L38.8808 17.3165C38.7507 16.7484 38.4058 16.264 37.9096 15.9528C37.4133 15.6415 36.827 15.5416 36.2589 15.6718L33.7969 16.2357C33.2288 16.3658 32.7444 16.7107 32.4331 17.2071C32.1218 17.7033 32.022 18.2895 32.1521 18.8576L32.257 19.3158L31.1274 19.8073C30.2985 20.1679 29.431 20.1186 28.6186 19.6649C27.8711 19.2472 27.2083 18.8584 26.6235 18.5154C23.9568 16.9508 22.4877 16.0891 20.3159 16.901C19.6871 17.1361 19.055 17.6106 18.3996 18.2387H9.89924C9.87756 17.877 9.7655 17.5237 9.5669 17.2071C9.25556 16.7107 8.7713 16.3658 8.20312 16.2357L5.74107 15.6718C5.17298 15.5415 4.5867 15.6414 4.09044 15.9528C3.59419 16.264 3.24919 16.7483 3.11911 17.3165L0.0556414 30.6929C-0.0744367 31.261 0.0252899 31.8472 0.336627 32.3435C0.647964 32.8397 1.13223 33.1848 1.70032 33.3148L4.16245 33.8788C4.3262 33.9163 4.48986 33.9342 4.65122 33.9342C5.64857 33.9342 6.5524 33.2465 6.78433 32.234L6.79207 32.2002L15.9122 41.2186C16.4161 41.7226 17.0881 42 17.8048 42H17.8053C18.5219 41.9999 19.194 41.7222 19.698 41.2184C20.0772 40.8392 20.3282 40.3647 20.4293 39.8476L21.6204 41.0388C22.1242 41.5428 22.7963 41.8204 23.513 41.8203H23.5134C24.2301 41.8202 24.9023 41.5425 25.4062 41.0387C25.7853 40.6596 26.0362 40.1851 26.1373 39.6682L26.2227 39.7536C26.7265 40.2576 27.3986 40.5351 28.1153 40.5351H28.1156C28.8322 40.5349 29.5045 40.2573 30.0084 39.7534C30.5122 39.2496 30.7897 38.5774 30.7898 37.8607C30.7898 37.6857 30.7733 37.5133 30.7409 37.3454C30.7653 37.3461 30.7896 37.3464 30.8141 37.3464H30.8144C31.5311 37.3462 32.2033 37.0687 32.7072 36.5648C33.2111 36.0609 33.4886 35.3887 33.4886 34.6721C33.4886 34.381 33.4421 34.0975 33.354 33.8295L35.4834 32.8896C35.6575 33.173 35.8959 33.4153 36.1868 33.5979C36.5411 33.82 36.941 33.9345 37.3477 33.9345C37.5107 33.9345 37.6748 33.9161 37.8374 33.8789L40.2994 33.3149C40.8675 33.1848 41.3518 32.8398 41.6632 32.3436C41.9747 31.8472 42.0744 31.2609 41.9444 30.6929ZM4.42822 32.7185L1.96609 32.1546C1.70789 32.0955 1.48735 31.9379 1.34494 31.7109C1.20262 31.4839 1.1568 31.2168 1.21589 30.9585L4.27935 17.5822C4.33853 17.3241 4.49607 17.1034 4.72298 16.961C4.88528 16.8593 5.06807 16.8069 5.25349 16.8069C5.32738 16.8069 5.40177 16.8152 5.47531 16.8321L7.93735 17.396C8.19556 17.4551 8.41618 17.6127 8.5585 17.8396C8.70082 18.0665 8.74664 18.3338 8.68756 18.592L5.62409 31.9683C5.50124 32.5048 4.96443 32.8413 4.42822 32.7185ZM31.8657 35.723C31.5865 36.0022 31.2132 36.1561 30.8144 36.1561C30.4157 36.1561 30.0424 36.0024 29.7633 35.7233L23.8722 29.8317C23.6398 29.5994 23.2629 29.5994 23.0306 29.8316C22.7982 30.064 22.7981 30.4409 23.0306 30.6733L28.9216 36.5648C28.978 36.6212 29.0364 36.6748 29.0969 36.7254C29.1172 36.755 29.1406 36.7832 29.1669 36.8094C29.446 37.0885 29.5997 37.4618 29.5996 37.8605C29.5995 38.2593 29.4458 38.6326 29.1668 38.9116C28.8876 39.1908 28.5143 39.3446 28.1154 39.3447C27.7167 39.3447 27.3434 39.191 27.0644 38.9119L25.437 37.2844C25.4267 37.2738 25.4165 37.2633 25.4061 37.2529C25.4012 37.248 25.3963 37.2433 25.3913 37.2386L20.7271 32.5741C20.4948 32.3418 20.1179 32.3418 19.8855 32.5741C19.6531 32.8065 19.6531 33.1833 19.8855 33.4157L24.5874 38.118C24.852 38.3943 24.9974 38.758 24.9973 39.1458C24.9973 39.5445 24.8435 39.9178 24.5645 40.1969C24.2854 40.476 23.912 40.6299 23.5132 40.6299C23.5131 40.6299 23.5131 40.6299 23.513 40.6299C23.1143 40.6299 22.7411 40.4762 22.4621 40.1971L19.721 37.4558C19.7134 37.4481 19.7058 37.4403 19.698 37.4327C19.6945 37.4291 19.6909 37.4256 19.6872 37.4222L17.3161 35.0509C17.0837 34.8185 16.7068 34.8185 16.4745 35.0508C16.242 35.2832 16.242 35.66 16.4745 35.8924L18.8734 38.2916C19.1419 38.5687 19.2894 38.9349 19.2893 39.3255C19.2893 39.7243 19.1355 40.0975 18.8565 40.3765C18.5773 40.6557 18.204 40.8095 17.8052 40.8096C17.8051 40.8096 17.805 40.8096 17.8049 40.8096C17.4064 40.8096 17.0331 40.6559 16.7517 40.3745L7.1046 30.8353L9.71696 19.4289H17.2688C16.8524 19.8981 16.4233 20.406 15.9773 20.9343C14.7713 22.3625 13.5243 23.8393 12.1674 24.9771C11.9162 25.1878 11.8826 25.562 12.0925 25.8139C13.3291 27.2996 14.7827 27.9185 16.4128 27.6535C17.8366 27.4222 19.2446 26.5511 20.5542 25.6443C21.7145 24.8409 23.2218 24.9767 24.2198 25.9748L31.8657 33.6208C32.1448 33.8999 32.2985 34.2733 32.2985 34.672C32.2985 35.0707 32.1448 35.444 31.8657 35.723ZM32.7073 32.779L25.0614 25.133C23.6722 23.7438 21.4916 23.5473 19.8766 24.6657C17.117 26.5766 15.2165 27.2866 13.3988 25.4819C14.6581 24.3416 15.8348 22.9479 16.8866 21.7023C18.3135 20.0126 19.6612 18.4166 20.7328 18.0159C22.3741 17.4022 23.4417 18.0285 26.0214 19.542C26.6112 19.8879 27.2797 20.2802 28.0382 20.704C29.1709 21.3367 30.4366 21.4059 31.6024 20.8988L32.5276 20.4963L35.106 31.7551L32.7306 32.8036C32.7228 32.7955 32.7153 32.787 32.7073 32.779ZM40.6551 31.7109C40.5127 31.9379 40.2921 32.0954 40.0339 32.1546L37.5719 32.7185C37.3136 32.7776 37.0465 32.7317 36.8195 32.5894C36.5926 32.447 36.4351 32.2264 36.3759 31.9682L33.3124 18.5919C33.2533 18.3337 33.299 18.0665 33.4414 17.8395C33.5838 17.6126 33.8044 17.4551 34.0626 17.3959L36.5247 16.832C36.5983 16.8151 36.6725 16.8068 36.7465 16.8068C36.9319 16.8068 37.1148 16.8592 37.277 16.9609C37.5039 17.1034 37.6615 17.324 37.7206 17.5821L40.7842 30.9585C40.8433 31.2168 40.7975 31.484 40.6551 31.7109Z" fill="#C4C4C4"/>
</svg>
