<svg width="42" height="42" viewBox="0 0 42 42" fill="none" xmlns="http://www.w3.org/2000/svg">
    <path d="M21 34.8251C23.8292 33.9501 26.1917 32.2223 28.0875 29.6416C29.9833 27.0609 31.0917 24.1804 31.4125 21.0001H21V7.2521L11.207 10.8869C10.9818 10.9767 10.808 11.1114 10.6855 11.2911C10.5618 11.4708 10.5 11.6726 10.5 11.8966V20.1794C10.5 20.4057 10.5292 20.6793 10.5875 21.0001H21V34.8251ZM21 36.4736C20.8413 36.4736 20.6739 36.459 20.4978 36.4299C20.3216 36.4007 20.1582 36.3569 20.0077 36.2986C16.5626 34.9861 13.825 32.7601 11.795 29.6206C9.765 26.4811 8.75 23.0826 8.75 19.4251V11.9299C8.75 11.3349 8.92208 10.7964 9.26625 10.3146C9.61042 9.83277 10.0508 9.48277 10.5875 9.2646L20.0113 5.7646C20.3519 5.64093 20.6815 5.5791 21 5.5791C21.3185 5.5791 21.6487 5.64093 21.9905 5.7646L31.4125 9.2646C31.9492 9.48277 32.3896 9.83277 32.7337 10.3146C33.0779 10.7964 33.25 11.3349 33.25 11.9299V19.4251C33.25 23.0826 32.235 26.4811 30.205 29.6206C28.175 32.7601 25.4374 34.9861 21.9923 36.2986C21.8406 36.3569 21.6772 36.4007 21.5022 36.4299C21.3272 36.459 21.1598 36.4736 21 36.4736Z" fill="#C4C4C4"/>
</svg>
