<svg width="42" height="42" viewBox="0 0 42 42" fill="none" xmlns="http://www.w3.org/2000/svg">
<g clip-path="url(#clip0_2027_1843)">
<path d="M30.1875 0.25C33.4382 0.25 36.355 0.90018 38.4502 1.86719C39.4983 2.35091 40.3306 2.9097 40.8975 3.49609C41.4651 4.08332 41.75 4.68058 41.75 5.25V30.1875C41.75 32.028 40.5197 33.6003 38.4268 34.7256C36.3993 35.8156 33.6008 36.4582 30.4795 36.4961L30.4844 36.4658H30.1924C29.4338 36.4658 28.697 36.4286 27.9814 36.3594C28.2421 35.6824 28.4594 34.9899 28.6318 34.2852C29.1385 34.3234 29.6597 34.3437 30.1953 34.3438C33.191 34.3438 35.7231 33.7393 37.4277 32.8223C39.1588 31.8893 39.6356 30.9014 39.6357 30.1562V26.0615L39.2451 26.3271C38.9774 26.5092 38.7007 26.678 38.417 26.834C36.4152 27.9245 33.5981 28.6035 30.1904 28.6035C29.8021 28.6035 29.4225 28.5923 29.0518 28.5752C28.9863 27.8497 28.8767 27.1377 28.7217 26.4385C29.1923 26.4695 29.682 26.4873 30.1904 26.4873C33.1475 26.4873 35.4795 25.9306 37.0859 25.1377L37.3975 24.9756C39.0491 24.0732 39.6326 23.0481 39.6328 22.2998V18.2041L39.2422 18.4697C39.1083 18.5608 38.972 18.6488 38.834 18.7334L38.415 18.9775C36.4131 20.0682 33.5956 20.7471 30.1875 20.7471C28.6926 20.7471 27.3237 20.6158 26.0801 20.3789C25.3074 19.2617 24.4082 18.2422 23.4043 17.3379C25.0062 18.1006 27.2963 18.6328 30.1826 18.6328C33.2619 18.6328 35.6515 18.0275 37.2705 17.1826L37.2803 17.1875L37.3945 17.124C39.0463 16.2216 39.6298 15.1966 39.6299 14.4482V10.3516L39.2393 10.6191C38.9749 10.7999 38.699 10.9689 38.4121 11.126C36.4156 12.2165 33.5929 12.8965 30.1846 12.8965C26.7764 12.8964 23.9589 12.2167 21.957 11.126H21.958C21.6743 10.97 21.3976 10.8012 21.1299 10.6191L20.7393 10.3535V14.4482C20.7393 14.7945 20.8661 15.199 21.1641 15.624C20.3602 15.1069 19.5111 14.6556 18.625 14.2744V5.25C18.625 4.68058 18.9099 4.08332 19.4775 3.49609C20.0444 2.9097 20.8767 2.35091 21.9248 1.86719C24.02 0.90018 26.9368 0.25 30.1875 0.25ZM30.1924 2.37207C28.6833 2.37211 27.0246 2.64365 25.6582 2.9541C24.2973 3.26332 23.2007 3.61721 22.8174 3.79395C22.5846 3.90071 22.3129 4.07069 22.0508 4.25098L21.793 4.43359C21.1089 4.92981 20.75 5.7364 20.75 6.5625C20.75 7.3081 21.3332 8.33632 22.9854 9.23633L22.9863 9.2373C24.6059 10.1118 27.0377 10.747 30.1924 10.7471C33.1492 10.7471 35.4814 10.1912 37.0879 9.39844L37.4004 9.23633C39.0522 8.33382 39.6357 7.30787 39.6357 6.55957V6.54395C39.6357 5.72915 39.2946 4.92629 38.6133 4.43359H38.6143C38.2915 4.19889 37.9159 3.95371 37.5684 3.79395H37.5674C35.7969 2.97347 33.1879 2.37207 30.1924 2.37207Z" fill="#C4C4C4" stroke="white" stroke-width="0.5"/>
<path d="M11.8125 18.625C18.2107 18.625 23.375 23.7893 23.375 30.1875C23.375 36.5857 18.2107 41.75 11.8125 41.75C5.41432 41.75 0.25 36.5857 0.25 30.1875C0.25 23.7893 5.41432 18.625 11.8125 18.625ZM11.8125 20.75C6.60818 20.75 2.375 24.9832 2.375 30.1875C2.375 35.3918 6.60818 39.625 11.8125 39.625C17.0168 39.625 21.25 35.3918 21.25 30.1875C21.25 24.9832 17.0168 20.75 11.8125 20.75Z" fill="#C4C4C4" stroke="white" stroke-width="0.5"/>
</g>
<defs>
<clipPath id="clip0_2027_1843">
<rect width="42" height="42" fill="white"/>
</clipPath>
</defs>
</svg>
