<svg width="42" height="42" viewBox="0 0 42 42" fill="none" xmlns="http://www.w3.org/2000/svg">
<path d="M36.4549 23.3323V31.6358C36.4549 33.4589 34.9717 34.9421 33.1486 34.9421H19.8851V39.0775C19.8851 39.3393 19.7291 39.576 19.4885 39.679C19.4054 39.7145 19.3179 39.7318 19.231 39.7318C19.066 39.7318 18.9035 39.6695 18.7794 39.5512L13.9429 34.942H3.3883C1.56524 34.9421 0.0820312 33.4589 0.0820312 31.6358V17.1877C0.0820312 15.3645 1.56524 13.8813 3.3883 13.8813H29.7161C30.0774 13.8813 30.3703 14.1742 30.3703 14.5356C30.3703 14.8969 30.0774 15.1899 29.7161 15.1899H3.3883C2.28679 15.1899 1.39068 16.0861 1.39068 17.1876V31.6357C1.39068 32.7372 2.28687 33.6334 3.3883 33.6334H14.2048C14.3729 33.6334 14.5345 33.6981 14.6562 33.814L18.5766 37.55V34.2877C18.5766 33.9263 18.8695 33.6334 19.2308 33.6334H33.1487C34.2502 33.6334 35.1464 32.7372 35.1464 31.6357V23.3323C35.1464 22.971 35.4393 22.678 35.8007 22.678C36.162 22.678 36.4549 22.971 36.4549 23.3323ZM41.5806 10.8448L31.2578 28.7249C31.1892 28.8436 31.0852 28.9377 30.9604 28.9941L26.4833 31.0161C26.3974 31.0549 26.3056 31.0741 26.214 31.0741C26.1007 31.0741 25.9877 31.0446 25.8868 30.9864C25.7042 30.881 25.5838 30.6942 25.5629 30.4846L25.0765 25.5952C25.0629 25.459 25.0925 25.3218 25.161 25.2033L35.4841 7.3248C35.8268 6.72917 36.4121 6.29408 37.1316 6.10073C38.0493 5.85406 39.0958 6.01287 40.0027 6.53632C40.9093 7.05869 41.5706 7.88507 41.8164 8.80309C42.0094 9.52348 41.9256 10.2486 41.5806 10.8448ZM26.775 29.4485L29.2598 28.3263L26.505 26.7355L26.775 29.4485ZM38.9812 12.7298L35.1516 10.5175L26.6212 25.2915L30.4519 27.5035L38.9812 12.7298ZM40.5523 9.14171C40.398 8.56544 39.9482 8.01526 39.3489 7.66999C38.7491 7.32373 38.0472 7.20963 37.4713 7.3645C37.2013 7.43702 36.8342 7.60248 36.6178 7.97826L35.806 9.3842L39.6354 11.5965L40.4476 10.1898C40.6654 9.81346 40.6247 9.41209 40.5523 9.14171ZM2.68488 5.83552C2.76765 5.58057 2.99759 5.40191 3.26517 5.38468L5.9809 5.20979L6.98389 2.68118C7.08274 2.43188 7.32367 2.26815 7.59183 2.26807H7.59207C7.86015 2.26807 8.10108 2.43155 8.20009 2.68068L9.2053 5.20971L11.9214 5.38468C12.189 5.40191 12.419 5.58057 12.5017 5.83552C12.5846 6.09056 12.5034 6.3702 12.2971 6.54132L10.2025 8.27809L10.8759 10.9133C10.9422 11.173 10.8434 11.447 10.6265 11.6046C10.5121 11.6877 10.3771 11.7296 10.2418 11.7296C10.1205 11.7296 9.99903 11.6959 9.89198 11.6282L7.59224 10.1728L5.29487 11.628C5.06814 11.7717 4.77701 11.7622 4.5602 11.6047C4.34323 11.4471 4.24438 11.1731 4.31074 10.9133L4.98414 8.27809L2.88955 6.54132C2.68324 6.3702 2.60211 6.09056 2.68488 5.83552ZM4.99218 6.5848L6.13832 7.53513C6.33298 7.69657 6.4173 7.9557 6.35463 8.20073L5.98664 9.64079L7.24196 8.84566C7.34885 8.7779 7.4705 8.74411 7.59207 8.74411C7.71356 8.74411 7.83513 8.7779 7.94194 8.8455L9.20021 9.64177L8.83198 8.20081C8.7693 7.95578 8.85363 7.69657 9.04829 7.53521L10.1944 6.58488L8.70811 6.48915C8.45578 6.47291 8.23553 6.31278 8.14209 6.07793L7.59273 4.69545L7.04452 6.07735C6.95125 6.31253 6.73083 6.47282 6.47842 6.48907L4.99218 6.5848ZM13.3601 5.83552C13.4429 5.58057 13.6728 5.40191 13.9404 5.38468L16.6564 5.20971L17.6616 2.68068C17.7606 2.43155 18.0016 2.26807 18.2696 2.26807H18.2698C18.538 2.26815 18.7789 2.43188 18.8778 2.68118L19.8808 5.20979L22.5966 5.38468C22.8642 5.40191 23.0941 5.58057 23.1769 5.83552C23.2597 6.09056 23.1785 6.3702 22.9722 6.54132L20.8776 8.27809L21.551 10.9133C21.6174 11.1731 21.5185 11.4471 21.3015 11.6047C21.1872 11.6878 21.0522 11.7296 20.9169 11.7296C20.7956 11.7296 20.674 11.6959 20.5669 11.628L18.2694 10.1728L15.9698 11.6282C15.7432 11.7716 15.4521 11.7621 15.2353 11.6046C15.0184 11.447 14.9196 11.1731 14.986 10.9133L15.6594 8.27809L13.5648 6.54132C13.3585 6.3702 13.2773 6.09056 13.3601 5.83552ZM15.6674 6.5848L16.8135 7.53513C17.0082 7.69657 17.0925 7.9557 17.0299 8.20073L16.6616 9.64161L17.9197 8.84541C18.1335 8.71023 18.406 8.71006 18.6198 8.84558L19.8752 9.64071L19.5072 8.20065C19.4445 7.95562 19.5289 7.6964 19.7235 7.53505L20.8696 6.58471L19.3833 6.48898C19.1308 6.47274 18.9105 6.31237 18.8172 6.07727L18.269 4.69537L17.7196 6.07768C17.6262 6.31262 17.4059 6.47266 17.1536 6.4889L15.6674 6.5848ZM24.0352 5.83552C24.118 5.58057 24.3479 5.40191 24.6155 5.38468L27.3316 5.20971L28.3367 2.68068C28.4357 2.43155 28.6767 2.26807 28.9447 2.26807H28.945C29.2131 2.26815 29.4541 2.43188 29.5529 2.68109L30.556 5.20979L33.2717 5.38468C33.5393 5.40191 33.7692 5.58057 33.852 5.83552C33.9349 6.09056 33.8536 6.3702 33.6473 6.54132L31.5527 8.27809L32.2261 10.9133C32.2925 11.1731 32.1937 11.4471 31.9767 11.6047C31.8623 11.6878 31.7273 11.7296 31.592 11.7296C31.4707 11.7296 31.3491 11.6959 31.242 11.628L28.9446 10.1728L26.645 11.6282C26.4183 11.7716 26.1272 11.7621 25.9105 11.6046C25.6936 11.447 25.5947 11.1731 25.6611 10.9133L26.3345 8.27809L24.2399 6.54132C24.0336 6.3702 23.9525 6.09056 24.0352 5.83552ZM26.3425 6.5848L27.4887 7.53513C27.6833 7.69657 27.7677 7.9557 27.705 8.20073L27.3367 9.64161L28.5949 8.84541C28.8086 8.71023 29.0811 8.71006 29.2949 8.84558L30.5503 9.64071L30.1823 8.20065C30.1197 7.95562 30.204 7.6964 30.3986 7.53505L31.5448 6.58471L30.0585 6.48898C29.8061 6.47274 29.5857 6.31237 29.4924 6.07735L28.9442 4.69537L28.3948 6.07768C28.3014 6.31262 28.0811 6.47266 27.8288 6.4889L26.3425 6.5848ZM26.4584 18.7741C26.4584 18.4128 26.1654 18.1199 25.8041 18.1199H4.67611C4.31476 18.1199 4.02183 18.4128 4.02183 18.7741C4.02183 19.1355 4.31476 19.4284 4.67611 19.4284H25.8041C26.1654 19.4285 26.4584 19.1356 26.4584 18.7741ZM23.0664 21.8789H4.67611C4.31476 21.8789 4.02183 22.1719 4.02183 22.5332C4.02183 22.8946 4.31476 23.1875 4.67611 23.1875H23.0664C23.4277 23.1875 23.7206 22.8946 23.7206 22.5332C23.7206 22.1719 23.4277 21.8789 23.0664 21.8789ZM23.0664 25.6358H4.67611C4.31476 25.6358 4.02183 25.9288 4.02183 26.2901C4.02183 26.6514 4.31476 26.9444 4.67611 26.9444H23.0664C23.4277 26.9444 23.7206 26.6514 23.7206 26.2901C23.7206 25.9288 23.4277 25.6358 23.0664 25.6358ZM23.0664 29.3949H4.67611C4.31476 29.3949 4.02183 29.6878 4.02183 30.0492C4.02183 30.4105 4.31476 30.7035 4.67611 30.7035H23.0664C23.4277 30.7035 23.7206 30.4105 23.7206 30.0492C23.7206 29.6878 23.4277 29.3949 23.0664 29.3949Z" fill="#C4C4C4"/>
</svg>
