<svg width="42" height="42" viewBox="0 0 42 42" fill="none" xmlns="http://www.w3.org/2000/svg">
    <path d="M19.0657 16.613C19.0112 16.4481 19.0242 16.2682 19.102 16.1129C19.1798 15.9576 19.316 15.8395 19.4808 15.7845L21.4495 15.1282C21.5481 15.0955 21.653 15.0866 21.7556 15.1024C21.8582 15.1181 21.9557 15.1579 22.0399 15.2186C22.1241 15.2793 22.1928 15.3591 22.2401 15.4515C22.2875 15.5439 22.3123 15.6462 22.3125 15.75V22.3125C22.3125 22.4865 22.2434 22.6535 22.1203 22.7765C21.9972 22.8996 21.8303 22.9688 21.6562 22.9688C21.4822 22.9688 21.3153 22.8996 21.1922 22.7765C21.0691 22.6535 21 22.4865 21 22.3125V16.6605L19.8942 17.028C19.7293 17.0826 19.5495 17.0695 19.3942 16.9917C19.2389 16.9139 19.1208 16.7777 19.0657 16.613ZM40.0312 34.125C40.0312 34.299 39.9621 34.466 39.839 34.589C39.716 34.7121 39.549 34.7812 39.375 34.7812H2.625C2.45095 34.7812 2.28403 34.7121 2.16096 34.589C2.03789 34.466 1.96875 34.299 1.96875 34.125C1.96875 33.951 2.03789 33.784 2.16096 33.661C2.28403 33.5379 2.45095 33.4688 2.625 33.4688H4.59375V17.0625C4.59375 16.5404 4.80117 16.0396 5.17038 15.6704C5.5396 15.3012 6.04036 15.0938 6.5625 15.0938H13.7812V9.1875C13.7812 8.66536 13.9887 8.1646 14.3579 7.79538C14.7271 7.42617 15.2279 7.21875 15.75 7.21875H26.25C26.7721 7.21875 27.2729 7.42617 27.6421 7.79538C28.0113 8.1646 28.2188 8.66536 28.2188 9.1875V21.6562H35.4375C35.9596 21.6562 36.4604 21.8637 36.8296 22.2329C37.1988 22.6021 37.4062 23.1029 37.4062 23.625V33.4688H39.375C39.549 33.4688 39.716 33.5379 39.839 33.661C39.9621 33.784 40.0312 33.951 40.0312 34.125ZM28.2188 22.9688V33.4688H36.0938V23.625C36.0938 23.451 36.0246 23.284 35.9015 23.161C35.7785 23.0379 35.6115 22.9688 35.4375 22.9688H28.2188ZM15.0938 33.4688H26.9062V9.1875C26.9062 9.01345 26.8371 8.84653 26.714 8.72346C26.591 8.60039 26.424 8.53125 26.25 8.53125H15.75C15.576 8.53125 15.409 8.60039 15.286 8.72346C15.1629 8.84653 15.0938 9.01345 15.0938 9.1875V33.4688ZM5.90625 33.4688H13.7812V16.4062H6.5625C6.38845 16.4062 6.22153 16.4754 6.09846 16.5985C5.97539 16.7215 5.90625 16.8885 5.90625 17.0625V33.4688Z" fill="#C4C4C4"/>
</svg>
