<svg width="42" height="42" viewBox="0 0 42 42" fill="none" xmlns="http://www.w3.org/2000/svg">
<path d="M22.4904 40.3822H24.2801C25.0354 40.3822 25.6753 39.9012 25.9235 39.2314H32.1634C33.7713 39.2314 35.079 37.9267 35.079 36.324V34.3341C37.224 33.5536 38.7629 31.5001 38.7629 29.0887C38.7629 27.3158 37.93 25.7365 36.638 24.7124V17.2462C36.638 8.62898 29.6236 1.61768 21.0012 1.61768C12.3788 1.61768 5.36399 8.62898 5.36399 17.2462V24.7118C4.07141 25.7358 3.23828 27.3154 3.23828 29.0887C3.23828 32.1688 5.74418 34.6747 8.82429 34.6747H9.52826C9.93842 35.1745 10.553 35.5005 11.2486 35.5005C12.481 35.5005 13.4835 34.498 13.4835 33.2652V24.9122C13.4835 23.6793 12.481 22.6768 11.2486 22.6768C10.553 22.6768 9.93842 23.0028 9.52826 23.5027H8.88582V17.2462C8.88582 10.5654 14.3208 5.13082 21.0012 5.13082C27.686 5.13082 33.1245 10.5654 33.1245 17.2462V23.5027H32.473C32.0628 23.0028 31.4483 22.6768 30.7527 22.6768C29.5202 22.6768 28.5177 23.6793 28.5177 24.9122V33.2652C28.5177 34.498 29.5202 35.5005 30.7527 35.5005C31.4483 35.5005 32.0628 35.1745 32.473 34.6747H33.1769C33.4112 34.6747 33.6407 34.6556 33.8675 34.6274V36.324C33.8675 37.2595 33.1032 38.0198 32.1634 38.0198H25.924C25.6762 37.3489 25.036 36.8666 24.2801 36.8666H22.4904C21.521 36.8666 20.7326 37.6554 20.7326 38.6248C20.7326 39.5942 21.521 40.3822 22.4904 40.3822ZM11.2486 23.8884C11.8129 23.8884 12.272 24.3474 12.272 24.9122V33.2652C12.272 33.8299 11.8129 34.289 11.2486 34.289C10.6842 34.289 10.2251 33.8299 10.2251 33.2652V24.9122C10.2251 24.3474 10.6842 23.8884 11.2486 23.8884ZM9.0136 24.9122V33.2652V33.4631H8.82429C6.41226 33.4631 4.44982 31.5007 4.44982 29.0887C4.44982 26.6766 6.41226 24.7142 8.82429 24.7142H9.0136V24.9122ZM21.0012 3.91928C13.6527 3.91928 7.67428 9.8981 7.67428 17.2462V23.6229C7.29193 23.7033 6.92495 23.8248 6.57553 23.9793V17.2462C6.57553 9.29627 13.0469 2.82921 21.0012 2.82921C28.9555 2.82921 35.4265 9.29627 35.4265 17.2462V23.9796C35.0796 23.8263 34.7154 23.7057 34.336 23.6253V17.2462C34.336 9.8981 28.354 3.91928 21.0012 3.91928ZM30.7527 34.289C30.1883 34.289 29.7292 33.8299 29.7292 33.2652V24.9122C29.7292 24.3474 30.1883 23.8884 30.7527 23.8884C31.317 23.8884 31.7761 24.3474 31.7761 24.9122V33.2652C31.7761 33.8299 31.317 34.289 30.7527 34.289ZM32.9876 33.4631V33.2652V24.9122V24.7142H33.1769C35.589 24.7142 37.5514 26.6766 37.5514 29.0887C37.5514 31.5007 35.589 33.4631 33.1769 33.4631H32.9876ZM22.4904 38.0782H24.2801C24.5814 38.0782 24.8263 38.3235 24.8263 38.6248C24.8263 38.9261 24.5814 39.1706 24.2801 39.1706H22.4904C22.1891 39.1706 21.9442 38.9261 21.9442 38.6248C21.9442 38.3235 22.1891 38.0782 22.4904 38.0782Z" fill="#C4C4C4"/>
<path d="M13.3228 19.3223L14.4034 21.198C14.653 21.6302 15.1752 21.8258 15.6476 21.6625L16.7791 21.2721C17.3517 21.7406 17.9871 22.1058 18.669 22.3598L18.8957 23.5398C18.9904 24.0296 19.4215 24.3853 19.9203 24.3853H22.0863C22.5852 24.3853 23.0162 24.0296 23.1109 23.539L23.3377 22.3598C24.0192 22.1058 24.6533 21.7414 25.2275 21.2721L26.3586 21.6625C26.8295 21.8242 27.3536 21.6302 27.6037 21.1972L28.6839 19.3223C28.9331 18.8893 28.8397 18.3387 28.4619 18.0122L27.5536 17.2273C27.6131 16.8684 27.6435 16.504 27.6435 16.142C27.6435 15.7792 27.6131 15.414 27.5532 15.0551L28.4654 14.264C28.8405 13.9366 28.9323 13.3869 28.6843 12.9562L27.6041 11.0813C27.3556 10.6483 26.8323 10.4511 26.3574 10.6159L25.222 11.0103C24.6537 10.541 24.0207 10.1734 23.3381 9.91788L23.1109 8.7371C23.0162 8.24728 22.5852 7.89233 22.0863 7.89233H19.9203C19.4215 7.89233 18.9904 8.24728 18.8957 8.73789L18.6686 9.91788C17.9863 10.1734 17.3533 10.5402 16.7846 11.0103L15.6484 10.6151C15.1759 10.4534 14.6514 10.6475 14.403 11.0805L13.3224 12.9562C13.0739 13.3876 13.1662 13.9374 13.5424 14.264L14.4471 15.0488C14.3872 15.41 14.3568 15.7768 14.3568 16.142C14.3568 16.5064 14.3872 16.8732 14.4471 17.2329L13.5444 18.0122C13.1674 18.3387 13.0743 18.8893 13.3228 19.3223ZM15.3148 18.0847C15.594 17.8426 15.7214 17.4782 15.6551 17.109C15.5975 16.7904 15.5684 16.4654 15.5684 16.142C15.5684 15.8186 15.5975 15.4928 15.6551 15.1734C15.7214 14.8058 15.5948 14.4414 15.3163 14.1993L14.4416 13.4405L15.3834 11.8054L16.4845 12.1887C16.8288 12.307 17.2165 12.2337 17.4969 11.9939C17.9962 11.5695 18.5574 11.2438 19.1655 11.0261C19.5173 10.8999 19.7693 10.6088 19.8387 10.2476L20.0588 9.10387H21.9479L22.1679 10.2476C22.2373 10.6088 22.4893 10.8999 22.8411 11.0261C23.4493 11.2438 24.0105 11.5695 24.5094 11.9931C24.7898 12.2329 25.179 12.3078 25.5229 12.1879L26.6232 11.8054L27.5654 13.4405L26.684 14.2056C26.4056 14.4477 26.279 14.8121 26.3456 15.1813C26.4028 15.4976 26.432 15.821 26.432 16.142C26.432 16.4622 26.4028 16.7856 26.3452 17.1027C26.2797 17.4655 26.4103 17.8394 26.6856 18.0784L27.5646 18.838L26.6232 20.4723L25.5253 20.0929C25.1778 19.977 24.8012 20.0472 24.5196 20.2854C24.0152 20.7097 23.4512 21.0339 22.8427 21.2508C22.4905 21.377 22.2381 21.6673 22.1675 22.0301L21.9475 23.1738H20.0592L19.8391 22.0285C19.7685 21.6673 19.5161 21.377 19.1631 21.25C18.5554 21.0339 17.9914 20.7097 17.4894 20.2869C17.2062 20.0472 16.8304 19.9754 16.4802 20.0937L15.3834 20.4723L14.442 18.838L15.3148 18.0847Z" fill="#C4C4C4"/>
<path d="M21.0035 19.4564C22.833 19.4564 24.3214 17.968 24.3214 16.1389C24.3214 14.309 22.833 12.8206 21.0035 12.8206C19.1739 12.8206 17.6855 14.309 17.6855 16.1389C17.6855 17.968 19.1739 19.4564 21.0035 19.4564ZM21.0035 14.0321C22.1649 14.0321 23.1099 14.977 23.1099 16.1389C23.1099 17.2999 22.1649 18.2449 21.0035 18.2449C19.842 18.2449 18.8971 17.2999 18.8971 16.1389C18.8971 14.977 19.842 14.0321 21.0035 14.0321Z" fill="#C4C4C4"/>
</svg>
