<svg width="185" height="71" viewBox="0 0 185 71" fill="none" xmlns="http://www.w3.org/2000/svg">
<g clip-path="url(#clip0_2028_2810)">
<path d="M160.452 70.4161C160.125 70.4161 159.808 70.4003 159.518 70.3633C158.625 70.2472 157.86 70.0043 157.237 69.6452C156.556 69.2545 156.281 68.7582 156.176 68.415C156.112 68.2143 156.096 68.0454 156.096 67.9292C156.001 67.85 155.885 67.7285 155.774 67.549C155.515 67.1372 155.42 66.6039 155.484 65.9755C155.558 65.2891 155.753 64.571 156.075 63.8371C156.344 63.1929 156.661 62.5857 156.989 62.0735C157.316 61.5508 157.58 61.1284 157.802 60.8433C158.018 60.5476 158.166 60.3786 158.166 60.3786L158.536 59.9615L158.652 60.5106C158.652 60.5106 158.779 61.1126 158.863 61.9046C158.942 62.6491 159.016 63.7157 158.879 64.5763C158.684 65.8383 158.208 66.6303 157.812 67.0897C157.976 67.0738 158.145 67.0685 158.309 67.0685C159.032 67.0685 159.771 67.2005 160.569 67.4645C161.26 67.6969 162.11 68.0612 163.103 68.5417C163.863 68.9113 164.428 69.2123 164.428 69.2123L164.983 69.5079L164.397 69.7244C164.397 69.7244 164.122 69.8248 163.663 69.9568L163.578 69.9779C163.14 70.094 162.538 70.2577 161.852 70.3422C161.318 70.4003 160.875 70.432 160.452 70.432V70.4161Z" fill="#E6AA25"/>
<path d="M165.944 65.796C165.279 65.796 164.672 65.7063 164.138 65.5267C163.394 65.2786 163.024 64.8509 162.85 64.5341C162.75 64.3546 162.702 64.1909 162.676 64.0694C162.57 64.0114 162.428 63.9163 162.28 63.7632C161.947 63.4094 161.741 62.9131 161.678 62.2795C161.609 61.5931 161.662 60.8486 161.826 60.0724C161.947 59.4282 162.132 58.7682 162.364 58.161C162.549 57.6277 162.744 57.1419 162.908 56.7934L163.436 55.7163L163.827 56.6614C163.922 56.899 164.043 57.2317 164.165 57.6119C164.35 58.1768 164.666 59.2751 164.724 60.2255C164.782 61.5086 164.476 62.3745 164.186 62.9025C164.624 62.7705 165.21 62.6544 165.965 62.6544C166.282 62.6544 166.62 62.6755 166.963 62.7177C167.861 62.818 168.933 63.0768 169.661 63.2616L170.686 63.5361L171.694 63.816L170.997 64.2595C170.87 64.3334 170.701 64.4232 170.496 64.5341C170.031 64.7717 169.466 65.041 168.806 65.2733C167.956 65.5479 167.211 65.7168 166.52 65.7802C166.319 65.796 166.129 65.8013 165.939 65.8013L165.944 65.796Z" fill="#E6AA25"/>
<path d="M170.664 60.1304C170.463 60.1304 170.263 60.1199 170.067 60.0935C169.439 60.0143 168.948 59.7766 168.61 59.3859C168.473 59.2275 168.393 59.0744 168.341 58.9635C168.224 58.9265 168.066 58.8632 167.897 58.747C167.617 58.5569 167.237 58.1662 167.005 57.4112C166.809 56.7828 166.714 56.0858 166.709 55.2252C166.693 54.5018 166.772 53.8207 166.852 53.2504C166.926 52.6274 167.036 52.1152 167.116 51.7931C167.195 51.4446 167.253 51.2281 167.253 51.2281L167.401 50.642L167.749 51.1331C167.749 51.1331 168.119 51.6453 168.51 52.3422C168.795 52.8491 169.317 53.8418 169.576 54.7869C169.74 55.3941 169.798 55.9908 169.756 56.6139C169.729 56.9359 169.676 57.2475 169.592 57.522C169.819 57.4006 170.099 57.2686 170.426 57.1524C170.923 56.9729 171.546 56.8515 172.269 56.7775C172.618 56.7459 173.024 56.7247 173.499 56.7247C174.054 56.7247 174.608 56.7459 175.031 56.767C175.875 56.8092 176.498 56.8515 176.498 56.8515L177.09 56.8937L176.678 57.3214C176.678 57.3214 176.467 57.5432 176.097 57.8388C175.759 58.1081 175.221 58.5094 174.587 58.9001C173.927 59.2909 173.172 59.6288 172.449 59.8558C171.836 60.0354 171.234 60.1304 170.653 60.1304H170.664Z" fill="#E6AA25"/>
<path d="M174.541 53.599C174.018 53.599 173.569 53.4618 173.21 53.1872C173.046 53.0605 172.936 52.9285 172.867 52.8282C172.745 52.8176 172.576 52.7859 172.386 52.7014C172.075 52.5694 171.626 52.2632 171.246 51.5715C170.512 50.1987 170.332 48.6041 170.259 47.5216C170.222 47.0728 170.227 46.6715 170.227 46.3495V46.059C170.227 45.6789 170.248 45.4518 170.248 45.4518L170.301 44.8763L170.718 45.2723C170.718 45.2723 171.172 45.7 171.705 46.3019C172.339 47.0147 172.899 47.812 173.236 48.4826C173.537 49.0687 173.717 49.6442 173.786 50.2409C173.823 50.5577 173.828 50.8692 173.801 51.1544C174.034 50.9537 174.282 50.7795 174.546 50.6263C175.026 50.3465 175.607 50.0983 176.267 49.8924C177.054 49.6495 178.063 49.4858 178.87 49.3538L178.976 49.338C179.805 49.206 180.433 49.1268 180.433 49.1268L181.041 49.0529L180.697 49.5598C180.697 49.5598 180.534 49.8026 180.243 50.1723C179.963 50.5366 179.509 51.0118 178.971 51.5134C178.184 52.2368 176.589 53.4618 174.778 53.5885C174.694 53.5938 174.615 53.599 174.535 53.599H174.541Z" fill="#E6AA25"/>
<path d="M177.35 46.3809C177.034 46.3809 176.738 46.3176 176.474 46.1856C176.289 46.0958 176.152 45.9849 176.067 45.9057C176.02 45.9057 175.967 45.9163 175.909 45.9163C175.798 45.9163 175.682 45.9057 175.571 45.8793C175.238 45.8107 174.737 45.6048 174.235 44.9976C173.807 44.4748 173.427 43.8412 173.1 43.102C172.968 42.801 172.852 42.4842 172.741 42.1305C172.635 41.84 172.54 41.5338 172.456 41.2223C172.334 40.7629 172.25 40.3563 172.181 40.0237L172.134 39.7914C172.06 39.4165 172.039 39.1947 172.039 39.1947L171.98 38.6297L172.466 38.9307C172.466 38.9307 172.989 39.2581 173.633 39.7438C174.42 40.3352 175.127 41.0005 175.571 41.576C176.194 42.3628 176.558 43.2023 176.653 44.0841C177.049 43.5878 177.709 42.9594 178.824 42.3522C179.584 41.9509 180.555 41.576 181.332 41.2751C182.15 40.9688 182.757 40.7682 182.757 40.7682L183.343 40.5728L183.1 41.1431C183.1 41.1431 182.984 41.4124 182.773 41.8348C182.636 42.1146 182.324 42.7007 181.796 43.4082C181.564 43.7198 181.326 44.0207 181.089 44.29C180.804 44.5963 180.508 44.8708 180.207 45.119C179.526 45.6892 178.818 46.08 178.105 46.2753C177.847 46.3493 177.593 46.3862 177.356 46.3862L177.35 46.3809Z" fill="#E6AA25"/>
<path d="M178.753 38.7407C178.595 38.7407 178.431 38.7196 178.283 38.6826C178.083 38.6298 177.93 38.5506 177.829 38.4872C177.713 38.5242 177.55 38.5612 177.344 38.5612C176.995 38.5612 176.462 38.4556 175.855 37.9645C174.682 37.0299 173.901 35.6941 173.352 34.6328L173.273 34.4585C173.056 33.9939 172.866 33.5926 172.745 33.2863C172.607 32.9431 172.539 32.7266 172.539 32.7266L172.375 32.1881L172.903 32.3834C172.903 32.3834 173.479 32.5999 174.202 32.9431C174.873 33.2652 175.818 33.7721 176.478 34.3476C176.974 34.7753 177.375 35.2452 177.676 35.7416C177.829 36.0161 177.951 36.296 178.041 36.5811C178.178 36.3171 178.342 36.0531 178.537 35.7997C178.87 35.335 179.308 34.8756 179.825 34.448C180.38 33.9991 181.14 33.4711 182.085 32.8745C182.798 32.4257 183.358 32.1036 183.358 32.1036L183.896 31.7921L183.77 32.3993C183.77 32.3993 183.711 32.6844 183.579 33.1438C183.458 33.5662 183.273 34.1998 182.941 34.8862C182.597 35.6571 181.605 37.5527 179.91 38.4344C179.519 38.6351 179.134 38.7354 178.769 38.7354L178.753 38.7407Z" fill="#E6AA25"/>
<path d="M177.215 31.0742C176.835 31.0742 176.429 30.9686 176.017 30.7521C175.399 30.4459 174.797 30.0076 174.221 29.4585C173.678 28.9305 173.218 28.4236 172.886 27.9906L172.648 27.6738C172.389 27.3359 172.168 27.0402 172.014 26.7973C171.814 26.4911 171.703 26.2957 171.703 26.2957L171.434 25.8046L171.988 25.8891C171.988 25.8891 172.595 25.9842 173.371 26.1742C174.111 26.359 175.146 26.6706 175.885 27.093C176.45 27.4045 176.935 27.7847 177.331 28.2176C177.569 28.4764 177.738 28.7351 177.86 28.9674C177.933 28.7087 178.039 28.4183 178.176 28.112C178.409 27.5893 178.741 27.0507 179.174 26.5175C179.813 25.736 180.637 24.9281 181.07 24.5163C181.682 23.9355 182.163 23.5078 182.163 23.5078L182.633 23.0959V23.719C182.633 23.719 182.633 24.0147 182.59 24.4846L182.575 24.6483C182.532 25.1077 182.48 25.6779 182.316 26.3168C182.147 26.9979 181.92 27.79 181.534 28.5186C181.117 29.3106 180.626 29.9442 180.072 30.4036C179.602 30.7838 179.116 30.9739 178.63 30.9739H178.535C178.329 30.958 178.166 30.9158 178.05 30.8735C177.944 30.9316 177.786 31.0003 177.58 31.0425C177.463 31.0689 177.337 31.0795 177.205 31.0795L177.215 31.0742Z" fill="#E6AA25"/>
<path d="M175.517 23.7714C175.269 23.7714 174.999 23.7344 174.719 23.6552C174.054 23.481 173.373 23.1694 172.697 22.7417C172.074 22.3457 171.52 21.9392 171.092 21.5643C170.928 21.4164 170.775 21.2844 170.627 21.1524C170.374 20.9307 170.152 20.7406 169.988 20.5716C169.724 20.3129 169.577 20.1439 169.577 20.1439L169.207 19.711L169.772 19.6793C169.772 19.6793 170.02 19.6687 170.406 19.6687C170.627 19.6687 170.897 19.6687 171.192 19.6846C172.328 19.7374 173.22 19.8694 173.848 20.0806C174.461 20.2759 175.015 20.5505 175.49 20.8937C175.77 21.0943 175.992 21.3161 176.161 21.522C176.182 21.258 176.23 20.9571 176.298 20.6191C176.42 20.0594 176.641 19.4681 176.958 18.8556C177.46 17.9104 178.083 16.9917 178.405 16.5218C178.885 15.8301 179.266 15.3179 179.266 15.3179L179.635 14.8216L179.762 15.4288C179.762 15.4288 179.82 15.7139 179.883 16.1838L179.91 16.4109C179.963 16.8491 180.026 17.3983 179.989 18.0319C179.957 18.7183 179.894 19.5367 179.662 20.3393C179.414 21.1999 179.054 21.918 178.606 22.483C178.104 23.0955 177.576 23.2909 177.222 23.3437C177.127 23.3595 177.043 23.3648 176.969 23.3648C176.874 23.3648 176.795 23.3595 176.731 23.349C176.641 23.4282 176.499 23.5285 176.304 23.613C176.066 23.7133 175.791 23.7661 175.501 23.7661L175.517 23.7714Z" fill="#E6AA25"/>
<path d="M172.241 16.9707C172.167 16.9707 172.093 16.9707 172.013 16.9655C171.327 16.9232 170.609 16.7543 169.87 16.4638C169.263 16.2526 168.645 15.9781 168.059 15.6454C167.8 15.5029 167.562 15.355 167.356 15.223L166.813 14.8957C166.49 14.6897 166.311 14.5577 166.311 14.5577L165.852 14.2092L166.411 14.0614C166.411 14.0614 167.013 13.903 167.81 13.7763C168.143 13.7235 168.639 13.6495 169.136 13.6179C169.326 13.6073 169.516 13.602 169.701 13.602C169.981 13.602 170.239 13.6126 170.472 13.639C171.512 13.7552 172.42 14.0878 173.043 14.5788C172.953 13.8555 172.948 12.9737 173.281 11.8173C173.386 11.4425 173.539 11.0095 173.74 10.492C173.909 10.0485 174.083 9.62082 174.247 9.23537C174.574 8.46447 174.844 7.88894 174.844 7.88894L175.102 7.33453L175.351 7.89422C175.351 7.89422 175.467 8.16351 175.63 8.60704L175.651 8.67568C175.725 8.8816 175.81 9.12449 175.884 9.39905C175.968 9.74754 176.037 10.0855 176.09 10.4128C176.232 11.2577 176.285 12.0391 176.248 12.7308C176.164 13.639 175.947 14.4204 175.615 15.0593C175.319 15.619 174.923 15.9939 174.437 16.1734C174.242 16.2474 174.073 16.2685 173.951 16.2738C173.877 16.3688 173.761 16.4955 173.587 16.6117C173.344 16.7807 172.916 16.9813 172.251 16.9813L172.241 16.9707Z" fill="#E6AA25"/>
<path d="M167.153 11.004C166.736 11.004 166.298 10.967 165.844 10.8878C165.263 10.7875 164.518 10.645 163.906 10.4496C163.563 10.3493 163.262 10.2331 162.998 10.1328C162.834 10.0694 162.681 10.0113 162.544 9.9691C162.179 9.83709 161.973 9.73677 161.973 9.73677L161.445 9.48861L161.963 9.22988C161.963 9.22988 162.522 8.95532 163.278 8.66491C164.138 8.3217 165.078 8.07882 165.849 7.99961C166.071 7.97849 166.292 7.96793 166.504 7.96793C166.916 7.96793 167.317 8.01017 167.692 8.09466C168.03 8.16858 168.315 8.28474 168.552 8.41146C168.473 8.1633 168.399 7.86761 168.331 7.5244C168.22 6.96471 168.188 6.33638 168.236 5.65524C168.283 4.94243 168.441 4.10289 168.584 3.35839L168.663 2.92542C168.827 2.10172 168.975 1.48395 168.975 1.48395L169.117 0.892577L169.476 1.38891C169.476 1.38891 169.645 1.62651 169.893 2.0278C170.126 2.38157 170.4 2.94654 170.707 3.7016C170.971 4.39857 171.235 5.13779 171.324 5.96149C171.43 6.85383 171.382 7.65641 171.182 8.35338C171.008 8.9606 170.696 9.4094 170.253 9.68397C170.073 9.79485 169.909 9.85293 169.793 9.88462C169.74 9.9955 169.651 10.1381 169.508 10.2912C169.276 10.5341 168.832 10.8509 168.045 10.9618C167.755 11.004 167.454 11.0251 167.143 11.0251L167.153 11.004Z" fill="#E6AA25"/>
<path d="M165.015 5.57613C164.35 5.57613 163.019 5.35437 161.589 3.88649C160.427 2.69319 159.244 0.602262 159.197 0.5125L158.906 0.000329018L159.487 0.100652C159.651 0.127052 163.489 0.829308 165.306 3.22648C166.224 4.44619 165.696 5.36493 165.675 5.40189L165.617 5.50221L165.506 5.52861C165.506 5.52861 165.311 5.57613 165.026 5.57613H165.015Z" fill="#E6AA25"/>
<path d="M23.9717 70.4161C24.2991 70.4161 24.6159 70.4003 24.9063 70.3633C25.7987 70.2472 26.5643 70.0043 27.1873 69.6452C27.8685 69.2545 28.143 68.7582 28.2486 68.415C28.312 68.2143 28.3278 68.0454 28.3278 67.9292C28.4229 67.85 28.539 67.7285 28.6499 67.549C28.9087 67.1372 29.0037 66.6039 28.9403 65.9755C28.8664 65.2891 28.671 64.571 28.349 63.8371C28.0797 63.1929 27.7629 62.5857 27.4355 62.0735C27.1081 61.5508 26.8441 61.1284 26.6224 60.8433C26.4059 60.5476 26.258 60.3786 26.258 60.3786L25.8884 59.9615L25.7723 60.5106C25.7723 60.5106 25.6455 61.1126 25.5611 61.9046C25.4819 62.6491 25.4079 63.7157 25.5452 64.5763C25.7406 65.8383 26.2158 66.6303 26.6118 67.0897C26.4481 67.0738 26.2792 67.0685 26.1155 67.0685C25.3921 67.0685 24.6529 67.2005 23.8556 67.4645C23.1639 67.6969 22.3138 68.0612 21.3211 68.5417C20.5608 68.9113 19.9958 69.2123 19.9958 69.2123L19.4414 69.5079L20.0275 69.7244C20.0275 69.7244 20.3021 69.8248 20.7614 69.9568L20.8459 69.9779C21.2842 70.094 21.8861 70.2577 22.5725 70.3422C23.1058 70.4003 23.5493 70.432 23.9717 70.432V70.4161Z" fill="#E6AA25"/>
<path d="M18.4805 65.796C19.1458 65.796 19.753 65.7063 20.2863 65.5267C21.0308 65.2786 21.4004 64.8509 21.5747 64.5341C21.675 64.3546 21.7225 64.1909 21.7489 64.0694C21.8545 64.0114 21.9971 63.9163 22.1449 63.7632C22.4776 63.4094 22.6835 62.9131 22.7468 62.2795C22.8155 61.5931 22.7627 60.8486 22.599 60.0724C22.4776 59.4282 22.2928 58.7682 22.0604 58.161C21.8756 57.6277 21.6803 57.1419 21.5166 56.7934L20.9886 55.7163L20.5978 56.6614C20.5028 56.899 20.3814 57.2317 20.2599 57.6119C20.0751 58.1768 19.7583 59.2751 19.7002 60.2255C19.6421 61.5086 19.9484 62.3745 20.2388 62.9025C19.8005 62.7705 19.2145 62.6544 18.4594 62.6544C18.1426 62.6544 17.8047 62.6755 17.4615 62.7177C16.5638 62.818 15.492 63.0768 14.7633 63.2616L13.739 63.5361L12.7305 63.816L13.4274 64.2595C13.5542 64.3334 13.7231 64.4232 13.9291 64.5341C14.3937 64.7717 14.9587 65.041 15.6187 65.2733C16.4688 65.5479 17.2133 65.7168 17.905 65.7802C18.1056 65.796 18.2957 65.8013 18.4858 65.8013L18.4805 65.796Z" fill="#E6AA25"/>
<path d="M13.7579 60.1304C13.9586 60.1304 14.1592 60.1199 14.3546 60.0935C14.9829 60.0143 15.474 59.7766 15.8119 59.3859C15.9492 59.2275 16.0284 59.0744 16.0812 58.9635C16.1973 58.9265 16.3558 58.8632 16.5247 58.747C16.8046 58.5569 17.1847 58.1662 17.4171 57.4112C17.6124 56.7828 17.7075 56.0858 17.7127 55.2252C17.7286 54.5018 17.6494 53.8207 17.5702 53.2504C17.4963 52.6274 17.3854 52.1152 17.3062 51.7931C17.227 51.4446 17.1689 51.2281 17.1689 51.2281L17.021 50.642L16.6726 51.1331C16.6726 51.1331 16.3029 51.6453 15.9122 52.3422C15.6271 52.8491 15.1044 53.8418 14.8456 54.7869C14.682 55.3941 14.6239 55.9908 14.6661 56.6139C14.6925 56.9359 14.7453 57.2475 14.8298 57.522C14.6028 57.4006 14.3229 57.2686 13.9955 57.1524C13.4992 56.9729 12.8762 56.8515 12.1528 56.7775C11.8043 56.7459 11.3977 56.7247 10.9225 56.7247C10.3681 56.7247 9.81369 56.7459 9.39128 56.767C8.54646 56.8092 7.9234 56.8515 7.9234 56.8515L7.33203 56.8937L7.74388 57.3214C7.74388 57.3214 7.95509 57.5432 8.32469 57.8388C8.66262 58.1081 9.20119 58.5094 9.83481 58.9001C10.4948 59.2909 11.2499 59.6288 11.9733 59.8558C12.5857 60.0354 13.1877 60.1304 13.7685 60.1304H13.7579Z" fill="#E6AA25"/>
<path d="M9.89045 53.599C10.4132 53.599 10.862 53.4618 11.221 53.1872C11.3847 53.0605 11.4956 52.9285 11.5642 52.8282C11.6857 52.8176 11.8547 52.7859 12.0447 52.7014C12.3563 52.5694 12.8051 52.2632 13.1852 51.5715C13.9192 50.1987 14.0987 48.6041 14.1726 47.5216C14.2096 47.0728 14.2043 46.6715 14.2043 46.3495V46.059C14.2043 45.6789 14.1832 45.4518 14.1832 45.4518L14.1304 44.8763L13.7133 45.2723C13.7133 45.2723 13.2592 45.7 12.7259 46.3019C12.0923 47.0147 11.5326 47.812 11.1946 48.4826C10.8937 49.0687 10.7141 49.6442 10.6455 50.2409C10.6085 50.5577 10.6033 50.8692 10.6297 51.1544C10.3973 50.9537 10.1492 50.7795 9.88517 50.6263C9.40468 50.3465 8.82387 50.0983 8.16385 49.8924C7.37711 49.6495 6.36861 49.4858 5.56075 49.3538L5.45515 49.338C4.62617 49.206 3.99784 49.1268 3.99784 49.1268L3.39062 49.0529L3.73383 49.5598C3.73383 49.5598 3.89752 49.8026 4.18792 50.1723C4.46777 50.5366 4.92186 51.0118 5.46043 51.5134C6.24717 52.2368 7.84176 53.4618 9.65284 53.5885C9.73732 53.5938 9.81653 53.599 9.89573 53.599H9.89045Z" fill="#E6AA25"/>
<path d="M7.07496 46.3809C7.39177 46.3809 7.68746 46.3176 7.95146 46.1856C8.13627 46.0958 8.27355 45.9849 8.35803 45.9057C8.40555 45.9057 8.45835 45.9163 8.51644 45.9163C8.62732 45.9163 8.74348 45.9057 8.85436 45.8793C9.18701 45.8107 9.68862 45.6048 10.1902 44.9976C10.6179 44.4748 10.9981 43.8412 11.3255 43.102C11.4575 42.801 11.5736 42.4842 11.6845 42.1305C11.7901 41.84 11.8851 41.5338 11.9696 41.2223C12.0911 40.7629 12.1756 40.3563 12.2442 40.0237L12.2917 39.7914C12.3656 39.4165 12.3868 39.1947 12.3868 39.1947L12.4448 38.6297L11.9591 38.9307C11.9591 38.9307 11.4363 39.2581 10.7922 39.7438C10.0054 40.3352 9.29789 41.0005 8.85436 41.576C8.23131 42.3628 7.86698 43.2023 7.77194 44.0841C7.37593 43.5878 6.71592 42.9594 5.60181 42.3522C4.84147 41.9509 3.86993 41.576 3.09376 41.2751C2.27534 40.9688 1.66812 40.7682 1.66812 40.7682L1.08203 40.5728L1.32492 41.1431C1.32492 41.1431 1.44108 41.4124 1.65228 41.8348C1.78957 42.1146 2.10109 42.7007 2.62911 43.4082C2.86143 43.7198 3.09904 44.0207 3.33664 44.29C3.62177 44.5963 3.91745 44.8708 4.21842 45.119C4.89956 45.6892 5.60709 46.08 6.31991 46.2753C6.57863 46.3493 6.83208 46.3862 7.06968 46.3862L7.07496 46.3809Z" fill="#E6AA25"/>
<path d="M5.67018 38.7407C5.82858 38.7407 5.99226 38.7196 6.14011 38.6826C6.34075 38.6298 6.49388 38.5506 6.5942 38.4872C6.71036 38.5242 6.87404 38.5612 7.07997 38.5612C7.42846 38.5612 7.96175 38.4556 8.56896 37.9645C9.74115 37.0299 10.5226 35.6941 11.0717 34.6328L11.1509 34.4585C11.3674 33.9939 11.5575 33.5926 11.679 33.2863C11.8162 32.9431 11.8849 32.7266 11.8849 32.7266L12.0486 32.1881L11.5205 32.3834C11.5205 32.3834 10.945 32.5999 10.2216 32.9431C9.55106 33.2652 8.60592 33.7721 7.94591 34.3476C7.44958 34.7753 7.04829 35.2452 6.74732 35.7416C6.5942 36.0161 6.47276 36.296 6.38299 36.5811C6.24571 36.3171 6.08203 36.0531 5.88666 35.7997C5.55401 35.335 5.11577 34.8756 4.59831 34.448C4.0439 33.9991 3.28356 33.4711 2.33842 32.8745C1.62561 32.4257 1.06592 32.1036 1.06592 32.1036L0.527344 31.7921L0.654067 32.3993C0.654067 32.3993 0.712148 32.6844 0.844151 33.1438C0.965593 33.5662 1.1504 34.1998 1.48304 34.8862C1.82625 35.6571 2.81891 37.5527 4.51383 38.4344C4.90456 38.6351 5.29001 38.7354 5.65434 38.7354L5.67018 38.7407Z" fill="#E6AA25"/>
<path d="M7.20646 31.0742C7.58663 31.0742 7.9932 30.9686 8.40505 30.7521C9.02282 30.4459 9.62476 30.0076 10.2003 29.4585C10.7441 28.9305 11.2035 28.4236 11.5362 27.9906L11.7738 27.6738C12.0325 27.3359 12.2543 27.0402 12.4074 26.7973C12.608 26.4911 12.7189 26.2957 12.7189 26.2957L12.9882 25.8046L12.4338 25.8891C12.4338 25.8891 11.8266 25.9842 11.0504 26.1742C10.3112 26.359 9.27627 26.6706 8.53705 27.093C7.97208 27.4045 7.48631 27.7847 7.0903 28.2176C6.85269 28.4764 6.68373 28.7351 6.56229 28.9674C6.48837 28.7087 6.38276 28.4183 6.24548 28.112C6.01316 27.5893 5.68051 27.0507 5.24754 26.5175C4.60864 25.736 3.78495 24.9281 3.35198 24.5163C2.73948 23.9355 2.25899 23.5078 2.25899 23.5078L1.78906 23.0959V23.719C1.78906 23.719 1.78906 24.0147 1.8313 24.4846L1.84714 24.6483C1.88938 25.1077 1.94219 25.6779 2.10587 26.3168C2.27483 26.9979 2.50188 27.79 2.88733 28.5186C3.30446 29.3106 3.79551 29.9442 4.34992 30.4036C4.81985 30.7838 5.30562 30.9739 5.79139 30.9739H5.88643C6.09236 30.958 6.25604 30.9158 6.3722 30.8735C6.47781 30.9316 6.63621 31.0003 6.84213 31.0425C6.9583 31.0689 7.08502 31.0795 7.21702 31.0795L7.20646 31.0742Z" fill="#E6AA25"/>
<path d="M8.90517 23.7714C9.15334 23.7714 9.42263 23.7344 9.70247 23.6552C10.3678 23.481 11.0489 23.1694 11.7248 22.7417C12.3478 22.3457 12.9022 21.9392 13.3299 21.5643C13.4936 21.4164 13.6467 21.2844 13.7946 21.1524C14.048 20.9307 14.2698 20.7406 14.4335 20.5716C14.6975 20.3129 14.8453 20.1439 14.8453 20.1439L15.2149 19.711L14.6499 19.6793C14.6499 19.6793 14.4018 19.6687 14.0163 19.6687C13.7946 19.6687 13.5253 19.6687 13.2296 19.6846C12.0944 19.7374 11.202 19.8694 10.5737 20.0806C9.9612 20.2759 9.40679 20.5505 8.93157 20.8937C8.65173 21.0943 8.42996 21.3161 8.261 21.522C8.23988 21.258 8.19236 20.9571 8.12372 20.6191C8.00227 20.0594 7.78051 19.4681 7.4637 18.8556C6.96209 17.9104 6.33904 16.9917 6.01695 16.5218C5.53646 15.8301 5.15629 15.3179 5.15629 15.3179L4.78668 14.8216L4.65996 15.4288C4.65996 15.4288 4.60188 15.7139 4.53852 16.1838L4.51212 16.4109C4.45932 16.8491 4.39595 17.3983 4.43292 18.0319C4.4646 18.7183 4.52796 19.5367 4.76028 20.3393C5.00845 21.1999 5.3675 21.918 5.81631 22.483C6.31792 23.0955 6.84593 23.2909 7.1997 23.3437C7.29474 23.3595 7.37922 23.3648 7.45314 23.3648C7.54818 23.3648 7.62739 23.3595 7.69075 23.349C7.78051 23.4282 7.92307 23.5285 8.11844 23.613C8.35604 23.7133 8.63061 23.7661 8.92101 23.7661L8.90517 23.7714Z" fill="#E6AA25"/>
<path d="M12.1792 16.9707C12.2531 16.9707 12.327 16.9707 12.4062 16.9655C13.0926 16.9232 13.8107 16.7543 14.55 16.4638C15.1572 16.2526 15.7749 15.9781 16.361 15.6454C16.6198 15.5029 16.8574 15.355 17.0633 15.223L17.6071 14.8957C17.9292 14.6897 18.1088 14.5577 18.1088 14.5577L18.5681 14.2092L18.0084 14.0614C18.0084 14.0614 17.4065 13.903 16.6092 13.7763C16.2765 13.7235 15.7802 13.6495 15.2839 13.6179C15.0938 13.6073 14.9037 13.602 14.7189 13.602C14.4391 13.602 14.1803 13.6126 13.948 13.639C12.9078 13.7552 11.9997 14.0878 11.3766 14.5788C11.4664 13.8555 11.4716 12.9737 11.139 11.8173C11.0334 11.4425 10.8803 11.0095 10.6796 10.492C10.5107 10.0485 10.3364 9.62082 10.1727 9.23537C9.84537 8.46447 9.57608 7.88894 9.57608 7.88894L9.31736 7.33453L9.06919 7.89422C9.06919 7.89422 8.95303 8.16351 8.78934 8.60704L8.76822 8.67568C8.6943 8.8816 8.60982 9.12449 8.5359 9.39905C8.45142 9.74754 8.38278 10.0855 8.32997 10.4128C8.18741 11.2577 8.13461 12.0391 8.17157 12.7308C8.25605 13.639 8.47254 14.4204 8.80518 15.0593C9.10087 15.619 9.49688 15.9939 9.98265 16.1734C10.178 16.2474 10.347 16.2685 10.4684 16.2738C10.5423 16.3688 10.6585 16.4955 10.8327 16.6117C11.0756 16.7807 11.5033 16.9813 12.1686 16.9813L12.1792 16.9707Z" fill="#E6AA25"/>
<path d="M17.2767 11.004C17.6938 11.004 18.1321 10.967 18.5862 10.8878C19.167 10.7875 19.9115 10.645 20.524 10.4496C20.8672 10.3493 21.1681 10.2331 21.4321 10.1328C21.5958 10.0694 21.749 10.0113 21.8862 9.9691C22.2506 9.83709 22.4565 9.73677 22.4565 9.73677L22.9845 9.48861L22.467 9.22988C22.467 9.22988 21.9074 8.95532 21.1523 8.66491C20.2916 8.3217 19.3518 8.07882 18.5809 7.99961C18.3591 7.97849 18.1374 7.96793 17.9261 7.96793C17.5143 7.96793 17.113 8.01017 16.7381 8.09466C16.4002 8.16858 16.1151 8.28474 15.8775 8.41146C15.9567 8.1633 16.0306 7.86761 16.0992 7.5244C16.2101 6.96471 16.2418 6.33638 16.1943 5.65524C16.1467 4.94243 15.9883 4.10289 15.8458 3.35839L15.7666 2.92542C15.6029 2.10172 15.4551 1.48395 15.4551 1.48395L15.3125 0.892577L14.9534 1.38891C14.9534 1.38891 14.7845 1.62651 14.5363 2.0278C14.304 2.38157 14.0294 2.94654 13.7232 3.7016C13.4592 4.39857 13.1952 5.13779 13.1054 5.96149C12.9998 6.85383 13.0473 7.65641 13.248 8.35338C13.4222 8.9606 13.7337 9.4094 14.1773 9.68397C14.3568 9.79485 14.5205 9.85293 14.6366 9.88462C14.6894 9.9955 14.7792 10.1381 14.9218 10.2912C15.1541 10.5341 15.5976 10.8509 16.3844 10.9618C16.6748 11.004 16.9757 11.0251 17.2873 11.0251L17.2767 11.004Z" fill="#E6AA25"/>
<path d="M19.4082 5.57613C20.0735 5.57613 21.404 5.35437 22.835 3.88649C23.9966 2.69319 25.1793 0.602262 25.2268 0.5125L25.5173 0.000329018L24.9364 0.100652C24.7728 0.127052 20.9341 0.829308 19.1178 3.22648C18.199 4.44619 18.727 5.36493 18.7481 5.40189L18.8062 5.50221L18.9171 5.52861C18.9171 5.52861 19.1125 5.57613 19.3976 5.57613H19.4082Z" fill="#E6AA25"/>
<path d="M134.334 7.71297L134.081 7.59469C134.334 6.95263 134.638 5.92195 134.892 4.97575L136.936 5.75299C136.852 5.95574 136.649 6.07402 136.294 6.05712C135.669 6.66539 134.943 7.32435 134.334 7.71297ZM129.113 5.11092L129.282 5.00955C132.898 5.98954 131.259 8.57468 129.941 7.42573C129.924 6.6147 129.502 5.6854 129.113 5.11092ZM128.539 12.4271L128.387 12.1905C129.654 11.2105 130.634 9.8588 131.242 8.4902H128.725L128.589 8.0171H131.935V4.58714L134.317 4.80679C134.284 5.02644 134.148 5.17851 133.743 5.24609V8.0171H135.145L136.007 6.85125C136.007 6.85125 136.97 7.66228 137.545 8.23675C137.511 8.40572 137.342 8.4902 137.105 8.4902H133.743V8.79433C138.018 9.35191 136.784 12.4102 135.128 11.3964C134.892 10.6698 134.3 9.82501 133.743 9.21674V11.4978C133.743 11.6498 132.949 11.9709 132.256 11.9709H131.935V10.2474C131.006 11.126 129.84 11.8526 128.539 12.4271ZM141.11 8.9295H139.352C139.116 9.47019 138.879 9.97708 138.609 10.4502C138.93 11.8695 139.403 13.1536 140.028 14.3026C140.687 12.6636 140.991 10.8726 141.11 8.9295ZM134.081 14.0998H132.577C132.29 14.725 131.935 15.4515 131.614 16.0936C132.273 16.0936 132.847 16.1443 133.337 16.2287C133.675 15.5698 133.929 14.8601 134.081 14.0998ZM144.134 8.9295H143.239C142.985 11.5991 142.394 13.9477 141.127 15.8908C142.056 17.0398 143.239 17.9691 144.675 18.6787L144.624 18.8477C143.695 19.0335 143.137 19.5573 142.884 20.4528C141.701 19.5911 140.789 18.4929 140.096 17.1918C138.829 18.5604 137.088 19.6418 134.689 20.4359L134.571 20.2501C136.869 18.9997 138.406 17.4453 139.403 15.6374C138.879 14.235 138.525 12.6805 138.288 10.974C137.849 11.6836 137.342 12.3257 136.784 12.8833L136.632 12.7819C137.004 13.086 137.528 13.4915 137.916 13.8295C137.866 14.0153 137.697 14.0998 137.46 14.0998H136.21C135.939 15.0967 135.534 15.9753 134.993 16.7356C137.071 17.7832 136.125 19.6756 134.723 19.1011C134.52 18.8308 134.182 18.476 133.743 18.0873C132.476 19.1687 130.786 19.9459 128.606 20.4697L128.505 20.267C130.38 19.4897 131.749 18.4929 132.678 17.2763C132.29 17.006 131.867 16.7356 131.394 16.4991C131.242 16.8201 131.073 17.1242 130.938 17.3608C130.499 17.5467 129.738 17.5129 129.046 17.1918C129.502 16.4653 130.093 15.2319 130.6 14.0998H128.64L128.505 13.6267H130.803C131.073 13.0015 131.293 12.4271 131.411 12.0384L133.844 12.4439C133.794 12.6805 133.591 12.8326 133.135 12.8495C133.05 13.0522 132.932 13.3226 132.797 13.6267H135.111L136.108 12.3933C136.108 12.3933 136.294 12.5284 136.565 12.7481C137.443 10.636 138.136 7.544 138.356 4.62093L141.076 5.24609C141.008 5.46575 140.806 5.61781 140.417 5.63471C140.18 6.6316 139.893 7.5609 139.538 8.43951H141.667L142.715 7.0709C142.715 7.0709 143.898 8.0171 144.59 8.65916C144.54 8.84502 144.371 8.9295 144.134 8.9295Z" fill="#1B3A57"/>
<path d="M118.535 7.78055V10.4164H118.704C119.718 9.55467 120.647 8.65916 121.475 7.78055H118.535ZM121.864 13.4239H116.575V15.7218H121.864V13.4239ZM116.575 18.6618H121.864V16.2118H116.575V18.6618ZM123.553 10.4164L124.618 9.04778C124.618 9.04778 125.817 9.97708 126.544 10.6191C126.493 10.805 126.324 10.8895 126.071 10.8895H120.563C119.583 11.5991 118.535 12.2919 117.403 12.9339H121.695L122.624 11.9371L124.55 13.3901C124.432 13.5253 124.212 13.6774 123.857 13.745V19.8615C123.841 19.9797 122.861 20.3683 122.185 20.3683H121.864V19.1518H116.575V19.8108C116.575 20.0135 115.747 20.4528 114.919 20.4528H114.615V14.3363C113.382 14.8939 112.081 15.3839 110.712 15.7725L110.594 15.536C111.979 14.9277 113.331 14.2012 114.615 13.407V12.1229L115.849 12.6129C116.643 12.0553 117.42 11.4809 118.146 10.8895H111.05L110.915 10.4164H116.558V7.78055H112.571L112.435 7.30745H116.558V4.57024L119.093 4.78989C119.059 5.00954 118.941 5.16161 118.535 5.2292V7.30745H119.414L120.444 5.97264C120.444 5.97264 121.289 6.6316 121.982 7.20607C122.641 6.46263 123.215 5.71919 123.688 5.00955L125.851 6.58091C125.716 6.73297 125.513 6.80056 125.108 6.68229C124.077 7.91572 122.759 9.19985 121.188 10.4164H123.553Z" fill="#1B3A57"/>
<path d="M99.3074 13.0691L100.321 12.106L102.095 13.576C101.96 13.7112 101.74 13.8126 101.369 13.8632C101.065 16.9215 100.439 19.1011 99.4425 19.8108C98.8512 20.2501 98.1415 20.4528 96.9926 20.4359C97.0095 19.9121 96.9081 19.439 96.5701 19.1687C96.1984 18.8477 95.3536 18.5604 94.475 18.4253L94.4919 18.1887C95.4719 18.2732 97.0601 18.3915 97.4994 18.3915C97.8205 18.3915 98.0063 18.3408 98.1753 18.2225C98.7329 17.817 99.1891 15.9584 99.4425 13.5422H95.776C95.7253 13.8801 95.6577 14.2012 95.6071 14.4715C95.1171 14.725 94.644 14.7925 93.6133 14.556C94.0188 12.6974 94.475 10.1122 94.644 8.65916L96.756 9.50398H99.2229V6.17539H93.8329L93.6809 5.6854H99.0539L99.9494 4.70541L101.876 6.1416C101.757 6.27677 101.504 6.42884 101.149 6.49643V10.4671C101.132 10.5853 100.169 10.9233 99.5439 10.9233H99.2229V9.97708H96.3505C96.2491 10.7881 96.0633 11.9877 95.8605 13.0691H99.3074ZM105.153 4.7392L107.806 5.00954C107.772 5.26299 107.637 5.46575 107.147 5.53333V19.7263C107.147 19.9459 106.302 20.419 105.525 20.419H105.153V4.7392Z" fill="#1B3A57"/>
<path d="M78.7279 13.0353V15.8401C79.4376 15.7218 80.2148 15.6036 80.992 15.4684V13.0353H78.7279ZM80.992 6.64849H78.7279V9.33502H80.992V6.64849ZM78.7279 9.82501V12.5622H80.992V9.82501H78.7279ZM82.8675 6.64849V19.6249C82.8675 19.8108 82.2931 20.4021 81.3131 20.4021H80.992V15.9753C79.9614 16.5667 78.5421 17.3101 76.6666 18.2225C76.5652 18.4422 76.3962 18.5942 76.1935 18.6449L75.1797 16.3808C75.5683 16.3301 76.1597 16.2456 76.8693 16.1443V6.64849H75.45L75.3149 6.1585H82.2424L83.2899 4.80679C83.2899 4.80679 84.4727 5.71919 85.1823 6.37815C85.1316 6.56401 84.9627 6.64849 84.7261 6.64849H82.8675ZM88.2406 8.23675H84.6079C84.9796 10.6529 85.6723 12.6298 86.6692 14.2519C87.4633 12.3257 87.9533 10.2643 88.2406 8.23675ZM89.1699 6.6316L91.0116 8.28744C90.8933 8.4564 90.7243 8.52399 90.3188 8.57468C89.8795 11.0416 89.1361 13.5253 87.7337 15.7049C88.7306 16.8708 89.9471 17.8001 91.3495 18.4929L91.3157 18.6956C90.4709 18.8984 89.8626 19.4897 89.6937 20.267C88.494 19.4222 87.514 18.3577 86.7368 17.0567C85.7399 18.2394 84.5065 19.287 82.952 20.1487L82.7662 19.9797C84.1179 18.7801 85.1823 17.3101 86.0103 15.6881C85.081 13.6605 84.5065 11.1936 84.2361 8.23675H83.2224L83.0703 7.74676H88.1054L89.1699 6.6316Z" fill="#1B3A57"/>
<path d="M63.6023 4.85748L66.3902 5.12782C66.3564 5.38127 66.2044 5.55023 65.7651 5.60092C66.1199 12.106 67.7081 16.0429 73.4867 18.1718L73.4529 18.3746C72.4391 18.5604 71.7971 19.2532 71.5774 20.3515C67.3195 18.0873 66.0523 14.1167 65.6299 8.72675C65.3257 13.0691 64.1092 17.3946 57.7562 20.4359L57.5703 20.1994C63.7544 15.6881 63.5854 10.2305 63.6023 4.85748Z" fill="#1B3A57"/>
<path d="M41.0809 5.00955L41.2161 4.89127C45.9302 5.09403 44.7305 8.60847 42.8719 7.59469C42.5678 6.66539 41.7568 5.63471 41.0809 5.00955ZM39.7461 8.77744L39.8813 8.64227C44.4433 8.84502 43.1423 12.2919 41.3681 11.2105C41.1485 10.315 40.4051 9.35191 39.7461 8.77744ZM45.2543 7.17228L45.5247 7.23987C44.7981 9.43639 43.4633 13.5084 43.2267 14.4715C43.0747 15.0629 42.9395 15.6881 42.9395 16.1274C42.9733 17.006 43.6661 17.5804 43.6154 19.0673C43.5985 19.8952 43.024 20.4697 42.1792 20.4697C41.7737 20.4697 41.385 20.2332 41.2499 19.5911C41.554 17.8508 41.4695 16.347 41.0809 16.0767C40.8613 15.9077 40.5571 15.8232 40.2023 15.8063V15.4853H40.9795C41.233 15.4853 41.3006 15.4684 41.4695 15.1305C41.875 14.4546 41.875 14.4546 45.2543 7.17228ZM55.3414 12.7481H50.7963C49.8332 14.4377 48.5153 16.3132 47.2819 17.6142C48.8194 17.5467 50.7118 17.4453 52.6887 17.327C52.1649 16.3301 51.5398 15.3501 50.9822 14.5222L51.1511 14.4208C57.4704 17.006 55.8821 21.5342 53.6856 19.8446C53.5335 19.2025 53.2632 18.5266 52.9422 17.8677C51.2525 18.4084 48.9715 19.0504 45.7781 19.8446C45.6598 20.0642 45.474 20.1994 45.2881 20.2332L44.2405 17.7156C44.7981 17.7156 45.6091 17.6818 46.5891 17.648C47.1636 16.2625 47.7719 14.2857 48.1098 12.7481H44.5447L44.4095 12.2919H48.6843V8.9295H45.2881L45.1529 8.43951H48.6843V4.7392L51.3539 4.95886C51.3201 5.19541 51.1849 5.36437 50.7287 5.44885V8.43951H52.4015L53.4659 7.05401C53.4659 7.05401 54.6318 8.0171 55.3414 8.65916C55.2908 8.84502 55.1049 8.9295 54.8683 8.9295H50.7287V12.2919H52.7901L53.8884 10.8219C53.8884 10.8219 55.088 11.8188 55.7976 12.4946C55.747 12.6636 55.578 12.7481 55.3414 12.7481Z" fill="#1B3A57"/>
<path d="M107.902 64.9418H83.168C83.6854 60.8022 84.7203 57.801 86.6349 54.8515C88.6012 51.8503 90.9815 49.4182 96.8804 44.5025C99.2607 42.5361 100.399 41.2425 101.175 39.7419C101.9 38.2413 102.262 36.6889 102.262 34.9813C102.262 30.4795 99.8299 27.5301 96.156 27.5301C93.724 27.5301 92.1199 28.7202 91.3437 30.997C90.9297 32.2906 90.878 32.8081 90.7745 35.7058C90.671 37.7238 89.7396 38.5518 87.4628 38.5518C84.979 38.5518 83.7889 37.6721 83.7889 35.8093C83.7889 33.015 85.3413 30.376 88.0838 28.5132C90.4123 26.9609 93.2065 26.1847 96.6735 26.1847C104.487 26.1847 109.144 29.7551 109.144 35.7575C109.144 38.3448 108.368 40.4663 106.815 42.2774C105.729 43.571 103.763 45.0199 101.124 46.5205C94.2932 50.3497 92.7408 51.3846 90.3605 53.5579C88.2907 55.4207 87.3593 56.7661 86.2727 59.4051H101.279C105.522 59.4051 107.022 58.0597 107.954 53.4026L109.713 53.7648L107.902 64.9418Z" fill="#1B3A57"/>
<path d="M73.0631 43.778C79.4795 46.624 82.1702 49.9357 82.1702 54.9032C82.1702 61.5266 76.7887 65.7697 68.3543 65.7697C60.3338 65.7697 55.418 62.1475 55.418 56.1969C55.418 53.1956 56.7633 50.5049 59.2471 48.5903C60.489 47.6072 61.6791 47.038 63.9042 46.1583C58.4709 43.3123 56.5046 40.8286 56.5046 36.5855C56.5046 30.2725 61.3687 26.1847 68.9752 26.1847C76.0125 26.1847 80.7213 29.8586 80.7213 35.2401C80.7213 39.3279 78.0823 42.2774 73.0631 43.778ZM71.5107 43.1053C72.9078 42.3292 73.477 41.9152 74.2015 40.932C75.2881 39.4314 75.8056 37.6721 75.8056 35.2918C75.8056 33.636 75.3398 31.8249 74.6154 30.583C73.4253 28.6684 71.3555 27.5818 68.7165 27.5818C64.6286 27.5818 62.0931 30.1173 62.0931 34.1017C62.0931 36.6889 63.2315 38.5518 65.8705 40.3111C66.6467 40.7768 67.6298 41.346 69.2339 42.0704C69.8031 42.3292 71.5107 43.1053 71.5107 43.1053ZM65.56 46.9862C64.0077 47.8141 63.2832 48.3833 62.5071 49.3148C61.2134 50.8154 60.489 53.0921 60.489 55.5759C60.489 60.9057 63.8007 64.4243 68.7165 64.4243C73.2183 64.4243 76.323 61.3714 76.323 56.973C76.323 54.3858 75.2364 52.523 72.6491 50.6601C71.6142 49.884 69.9584 49.0043 67.8885 48.0211C67.2159 47.7107 65.6118 46.9862 65.56 46.9862Z" fill="#1B3A57"/>
<path d="M118.612 52.3202L120.166 53.9929C120.014 54.145 119.811 54.1788 119.406 54.2295C118.967 55.125 118.341 56.0374 117.598 56.8822C121.248 57.7608 120.048 60.4474 118.578 59.4674C118.392 58.7915 117.936 58.0312 117.446 57.4229V65.1783C117.446 65.2966 116.804 65.7697 115.858 65.7697H115.486V58.8422C114.675 59.4674 113.796 60.008 112.867 60.4305L112.715 60.2784C114.844 58.5381 116.635 56.0205 117.395 53.8071H113.289L113.137 53.3509H115.503V50.0561L117.987 50.2588C117.953 50.4954 117.818 50.6644 117.361 50.7319V53.3509H117.53L118.612 52.3202ZM126.012 64.587L127.077 63.117C127.077 63.117 128.293 64.1308 129.003 64.8066C128.952 64.9925 128.766 65.077 128.53 65.077H118.443L118.308 64.587H122.582V56.4936H119.642L119.507 56.0205H122.582V50.073L125.252 50.3433C125.218 50.5968 125.083 50.7657 124.644 50.8164V56.0205H125.742L126.773 54.5843C126.773 54.5843 127.938 55.5643 128.631 56.2233C128.597 56.4091 128.412 56.4936 128.158 56.4936H124.644V64.587H126.012Z" fill="#1B3A57"/>
</g>
<defs>
<clipPath id="clip0_2028_2810">
<rect width="184.425" height="70.4316" fill="white"/>
</clipPath>
</defs>
</svg>
