<svg width="185" height="71" viewBox="0 0 185 71" fill="none" xmlns="http://www.w3.org/2000/svg">
<g clip-path="url(#clip0_2028_2746)">
<path d="M160.452 70.4162C160.125 70.4162 159.808 70.4003 159.518 70.3633C158.625 70.2472 157.86 70.0043 157.237 69.6452C156.556 69.2545 156.281 68.7582 156.176 68.415C156.112 68.2143 156.096 68.0454 156.096 67.9292C156.001 67.85 155.885 67.7286 155.774 67.549C155.515 67.1372 155.42 66.6039 155.484 65.9756C155.558 65.2892 155.753 64.5711 156.075 63.8371C156.344 63.1929 156.661 62.5857 156.989 62.0736C157.316 61.5508 157.58 61.1284 157.802 60.8433C158.018 60.5476 158.166 60.3786 158.166 60.3786L158.536 59.9615L158.652 60.5106C158.652 60.5106 158.779 61.1126 158.863 61.9046C158.942 62.6491 159.016 63.7157 158.879 64.5763C158.684 65.8383 158.208 66.6303 157.812 67.0897C157.976 67.0738 158.145 67.0686 158.309 67.0686C159.032 67.0686 159.771 67.2006 160.569 67.4646C161.26 67.6969 162.11 68.0612 163.103 68.5417C163.863 68.9113 164.428 69.2123 164.428 69.2123L164.983 69.508L164.397 69.7245C164.397 69.7245 164.122 69.8248 163.663 69.9568L163.578 69.9779C163.14 70.0941 162.538 70.2577 161.852 70.3422C161.318 70.4003 160.875 70.432 160.452 70.432V70.4162Z" fill="#E6AA25"/>
<path d="M165.944 65.796C165.279 65.796 164.672 65.7063 164.138 65.5268C163.394 65.2786 163.024 64.8509 162.85 64.5341C162.75 64.3546 162.702 64.1909 162.676 64.0694C162.57 64.0114 162.428 63.9163 162.28 63.7632C161.947 63.4094 161.741 62.9131 161.678 62.2795C161.609 61.5931 161.662 60.8486 161.826 60.0724C161.947 59.4282 162.132 58.7682 162.364 58.161C162.549 57.6277 162.744 57.1419 162.908 56.7934L163.436 55.7163L163.827 56.6614C163.922 56.8991 164.043 57.2317 164.165 57.6119C164.35 58.1768 164.666 59.2751 164.724 60.2255C164.782 61.5086 164.476 62.3745 164.186 62.9025C164.624 62.7705 165.21 62.6544 165.965 62.6544C166.282 62.6544 166.62 62.6755 166.963 62.7177C167.861 62.8181 168.933 63.0768 169.661 63.2616L170.686 63.5362L171.694 63.816L170.997 64.2595C170.87 64.3335 170.701 64.4232 170.496 64.5341C170.031 64.7717 169.466 65.041 168.806 65.2733C167.956 65.5479 167.211 65.7168 166.52 65.7802C166.319 65.7961 166.129 65.8013 165.939 65.8013L165.944 65.796Z" fill="#E6AA25"/>
<path d="M170.664 60.1304C170.463 60.1304 170.263 60.1199 170.067 60.0935C169.439 60.0143 168.948 59.7767 168.61 59.3859C168.473 59.2275 168.393 59.0744 168.341 58.9635C168.224 58.9266 168.066 58.8632 167.897 58.747C167.617 58.557 167.237 58.1662 167.005 57.4112C166.809 56.7828 166.714 56.0859 166.709 55.2252C166.693 54.5018 166.772 53.8207 166.852 53.2504C166.926 52.6274 167.036 52.1152 167.116 51.7931C167.195 51.4446 167.253 51.2282 167.253 51.2282L167.401 50.6421L167.749 51.1331C167.749 51.1331 168.119 51.6453 168.51 52.3423C168.795 52.8491 169.317 53.8418 169.576 54.7869C169.74 55.3942 169.798 55.9908 169.756 56.6139C169.729 56.936 169.676 57.2475 169.592 57.5221C169.819 57.4006 170.099 57.2686 170.426 57.1524C170.923 56.9729 171.546 56.8515 172.269 56.7776C172.618 56.7459 173.024 56.7248 173.499 56.7248C174.054 56.7248 174.608 56.7459 175.031 56.767C175.875 56.8092 176.498 56.8515 176.498 56.8515L177.09 56.8937L176.678 57.3214C176.678 57.3214 176.467 57.5432 176.097 57.8389C175.759 58.1081 175.221 58.5094 174.587 58.9002C173.927 59.2909 173.172 59.6288 172.449 59.8559C171.836 60.0354 171.234 60.1304 170.653 60.1304H170.664Z" fill="#E6AA25"/>
<path d="M174.541 53.5991C174.018 53.5991 173.569 53.4618 173.21 53.1872C173.046 53.0605 172.936 52.9285 172.867 52.8282C172.745 52.8176 172.576 52.7859 172.386 52.7014C172.075 52.5694 171.626 52.2632 171.246 51.5715C170.512 50.1987 170.332 48.6041 170.259 47.5217C170.222 47.0728 170.227 46.6716 170.227 46.3495V46.0591C170.227 45.6789 170.248 45.4518 170.248 45.4518L170.301 44.8763L170.718 45.2723C170.718 45.2723 171.172 45.7 171.705 46.3019C172.339 47.0148 172.899 47.8121 173.236 48.4826C173.537 49.0687 173.717 49.6443 173.786 50.2409C173.823 50.5577 173.828 50.8692 173.801 51.1544C174.034 50.9537 174.282 50.7795 174.546 50.6264C175.026 50.3465 175.607 50.0983 176.267 49.8924C177.054 49.6495 178.063 49.4859 178.87 49.3539L178.976 49.338C179.805 49.206 180.433 49.1268 180.433 49.1268L181.041 49.0529L180.697 49.5598C180.697 49.5598 180.534 49.8027 180.243 50.1723C179.963 50.5366 179.509 51.0118 178.971 51.5134C178.184 52.2368 176.589 53.4618 174.778 53.5885C174.694 53.5938 174.615 53.5991 174.535 53.5991H174.541Z" fill="#E6AA25"/>
<path d="M177.35 46.381C177.034 46.381 176.738 46.3176 176.474 46.1856C176.289 46.0958 176.152 45.985 176.067 45.9058C176.02 45.9058 175.967 45.9163 175.909 45.9163C175.798 45.9163 175.682 45.9058 175.571 45.8794C175.238 45.8107 174.737 45.6048 174.235 44.9976C173.807 44.4749 173.427 43.8412 173.1 43.102C172.968 42.8011 172.852 42.4842 172.741 42.1305C172.635 41.8401 172.54 41.5338 172.456 41.2223C172.334 40.7629 172.25 40.3564 172.181 40.0237L172.134 39.7914C172.06 39.4165 172.039 39.1947 172.039 39.1947L171.98 38.6298L172.466 38.9307C172.466 38.9307 172.989 39.2581 173.633 39.7439C174.42 40.3352 175.127 41.0005 175.571 41.5761C176.194 42.3628 176.558 43.2023 176.653 44.0841C177.049 43.5878 177.709 42.9595 178.824 42.3522C179.584 41.951 180.555 41.5761 181.332 41.2751C182.15 40.9689 182.757 40.7682 182.757 40.7682L183.343 40.5728L183.1 41.1431C183.1 41.1431 182.984 41.4124 182.773 41.8348C182.636 42.1146 182.324 42.7007 181.796 43.4083C181.564 43.7198 181.326 44.0208 181.089 44.29C180.804 44.5963 180.508 44.8709 180.207 45.119C179.526 45.6893 178.818 46.08 178.105 46.2754C177.847 46.3493 177.593 46.3863 177.356 46.3863L177.35 46.381Z" fill="#E6AA25"/>
<path d="M178.753 38.7407C178.595 38.7407 178.431 38.7196 178.283 38.6826C178.083 38.6298 177.93 38.5506 177.829 38.4873C177.713 38.5242 177.55 38.5612 177.344 38.5612C176.995 38.5612 176.462 38.4556 175.855 37.9645C174.682 37.03 173.901 35.6941 173.352 34.6328L173.273 34.4585C173.056 33.9939 172.866 33.5926 172.745 33.2864C172.607 32.9432 172.539 32.7267 172.539 32.7267L172.375 32.1881L172.903 32.3835C172.903 32.3835 173.479 32.5999 174.202 32.9431C174.873 33.2652 175.818 33.7721 176.478 34.3477C176.974 34.7753 177.375 35.2453 177.676 35.7416C177.829 36.0162 177.951 36.296 178.041 36.5811C178.178 36.3171 178.342 36.0531 178.537 35.7997C178.87 35.335 179.308 34.8757 179.825 34.448C180.38 33.9992 181.14 33.4712 182.085 32.8745C182.798 32.4257 183.358 32.1036 183.358 32.1036L183.896 31.7921L183.77 32.3993C183.77 32.3993 183.711 32.6844 183.579 33.1438C183.458 33.5662 183.273 34.1998 182.941 34.8862C182.597 35.6571 181.605 37.5527 179.91 38.4345C179.519 38.6351 179.134 38.7354 178.769 38.7354L178.753 38.7407Z" fill="#E6AA25"/>
<path d="M177.215 31.0742C176.835 31.0742 176.429 30.9686 176.017 30.7521C175.399 30.4459 174.797 30.0076 174.221 29.4585C173.678 28.9305 173.218 28.4236 172.886 27.9906L172.648 27.6738C172.389 27.3359 172.168 27.0402 172.014 26.7973C171.814 26.4911 171.703 26.2957 171.703 26.2957L171.434 25.8046L171.988 25.8891C171.988 25.8891 172.595 25.9842 173.371 26.1743C174.111 26.3591 175.146 26.6706 175.885 27.093C176.45 27.4045 176.935 27.7847 177.331 28.2177C177.569 28.4764 177.738 28.7351 177.86 28.9674C177.933 28.7087 178.039 28.4183 178.176 28.1121C178.409 27.5893 178.741 27.0508 179.174 26.5175C179.813 25.736 180.637 24.9281 181.07 24.5163C181.682 23.9355 182.163 23.5078 182.163 23.5078L182.633 23.0959V23.719C182.633 23.719 182.633 24.0147 182.59 24.4846L182.575 24.6483C182.532 25.1077 182.48 25.6779 182.316 26.3168C182.147 26.998 181.92 27.79 181.534 28.5186C181.117 29.3106 180.626 29.9443 180.072 30.4036C179.602 30.7838 179.116 30.9739 178.63 30.9739H178.535C178.329 30.958 178.166 30.9158 178.05 30.8736C177.944 30.9316 177.786 31.0003 177.58 31.0425C177.463 31.0689 177.337 31.0795 177.205 31.0795L177.215 31.0742Z" fill="#E6AA25"/>
<path d="M175.517 23.7714C175.269 23.7714 174.999 23.7344 174.719 23.6552C174.054 23.481 173.373 23.1695 172.697 22.7418C172.074 22.3458 171.52 21.9392 171.092 21.5643C170.928 21.4165 170.775 21.2845 170.627 21.1525C170.374 20.9307 170.152 20.7406 169.988 20.5716C169.724 20.3129 169.577 20.144 169.577 20.144L169.207 19.711L169.772 19.6793C169.772 19.6793 170.02 19.6687 170.406 19.6687C170.627 19.6687 170.897 19.6687 171.192 19.6846C172.328 19.7374 173.22 19.8694 173.848 20.0806C174.461 20.276 175.015 20.5505 175.49 20.8937C175.77 21.0944 175.992 21.3161 176.161 21.5221C176.182 21.2581 176.23 20.9571 176.298 20.6192C176.42 20.0595 176.641 19.4681 176.958 18.8556C177.46 17.9105 178.083 16.9917 178.405 16.5218C178.885 15.8301 179.266 15.3179 179.266 15.3179L179.635 14.8216L179.762 15.4288C179.762 15.4288 179.82 15.7139 179.883 16.1839L179.91 16.4109C179.963 16.8492 180.026 17.3983 179.989 18.0319C179.957 18.7183 179.894 19.5367 179.662 20.3393C179.414 21.2 179.054 21.9181 178.606 22.483C178.104 23.0955 177.576 23.2909 177.222 23.3437C177.127 23.3595 177.043 23.3648 176.969 23.3648C176.874 23.3648 176.795 23.3595 176.731 23.349C176.641 23.4282 176.499 23.5285 176.304 23.613C176.066 23.7133 175.791 23.7661 175.501 23.7661L175.517 23.7714Z" fill="#E6AA25"/>
<path d="M172.241 16.9708C172.167 16.9708 172.093 16.9708 172.013 16.9655C171.327 16.9233 170.609 16.7543 169.87 16.4639C169.263 16.2527 168.645 15.9781 168.059 15.6455C167.8 15.5029 167.562 15.3551 167.356 15.2231L166.813 14.8957C166.49 14.6898 166.311 14.5578 166.311 14.5578L165.852 14.2093L166.411 14.0614C166.411 14.0614 167.013 13.903 167.81 13.7763C168.143 13.7235 168.639 13.6496 169.136 13.6179C169.326 13.6073 169.516 13.6021 169.701 13.6021C169.981 13.6021 170.239 13.6126 170.472 13.639C171.512 13.7552 172.42 14.0878 173.043 14.5789C172.953 13.8555 172.948 12.9737 173.281 11.8174C173.386 11.4425 173.539 11.0095 173.74 10.4921C173.909 10.0485 174.083 9.62085 174.247 9.23541C174.574 8.46451 174.844 7.88898 174.844 7.88898L175.102 7.33456L175.351 7.89426C175.351 7.89426 175.467 8.16354 175.63 8.60707L175.651 8.67571C175.725 8.88164 175.81 9.12452 175.884 9.39909C175.968 9.74758 176.037 10.0855 176.09 10.4129C176.232 11.2577 176.285 12.0391 176.248 12.7308C176.164 13.639 175.947 14.4205 175.615 15.0594C175.319 15.6191 174.923 15.994 174.437 16.1735C174.242 16.2474 174.073 16.2685 173.951 16.2738C173.877 16.3688 173.761 16.4956 173.587 16.6117C173.344 16.7807 172.916 16.9813 172.251 16.9813L172.241 16.9708Z" fill="#E6AA25"/>
<path d="M167.153 11.004C166.736 11.004 166.298 10.9671 165.844 10.8879C165.263 10.7875 164.518 10.645 163.906 10.4496C163.563 10.3493 163.262 10.2331 162.998 10.1328C162.834 10.0695 162.681 10.0114 162.544 9.96913C162.179 9.83713 161.973 9.7368 161.973 9.7368L161.445 9.48864L161.963 9.22991C161.963 9.22991 162.522 8.95535 163.278 8.66494C164.138 8.32173 165.078 8.07885 165.849 7.99965C166.071 7.97852 166.292 7.96796 166.504 7.96796C166.916 7.96796 167.317 8.01021 167.692 8.09469C168.03 8.16861 168.315 8.28477 168.552 8.41149C168.473 8.16333 168.399 7.86764 168.331 7.52444C168.22 6.96474 168.188 6.33641 168.236 5.65527C168.283 4.94246 168.441 4.10292 168.584 3.35842L168.663 2.92545C168.827 2.10176 168.975 1.48398 168.975 1.48398L169.117 0.892609L169.476 1.38894C169.476 1.38894 169.645 1.62654 169.893 2.02783C170.126 2.3816 170.4 2.94657 170.707 3.70163C170.971 4.39861 171.235 5.13782 171.324 5.96152C171.43 6.85386 171.382 7.65644 171.182 8.35341C171.008 8.96063 170.696 9.40944 170.253 9.684C170.073 9.79488 169.909 9.85297 169.793 9.88465C169.74 9.99553 169.651 10.1381 169.508 10.2912C169.276 10.5341 168.832 10.8509 168.045 10.9618C167.755 11.004 167.454 11.0252 167.143 11.0252L167.153 11.004Z" fill="#E6AA25"/>
<path d="M165.015 5.57617C164.35 5.57617 163.019 5.3544 161.589 3.88653C160.427 2.69323 159.244 0.602299 159.197 0.512537L158.906 0.000366211L159.487 0.100689C159.651 0.127089 163.489 0.829345 165.306 3.22652C166.224 4.44622 165.696 5.36497 165.675 5.40193L165.617 5.50225L165.506 5.52865C165.506 5.52865 165.311 5.57617 165.026 5.57617H165.015Z" fill="#E6AA25"/>
<path d="M23.9717 70.4162C24.2991 70.4162 24.6159 70.4003 24.9063 70.3633C25.7987 70.2472 26.5643 70.0043 27.1873 69.6452C27.8685 69.2545 28.143 68.7582 28.2486 68.415C28.312 68.2143 28.3278 68.0454 28.3278 67.9292C28.4229 67.85 28.539 67.7286 28.6499 67.549C28.9087 67.1372 29.0037 66.6039 28.9403 65.9756C28.8664 65.2892 28.671 64.5711 28.349 63.8371C28.0797 63.1929 27.7629 62.5857 27.4355 62.0736C27.1081 61.5508 26.8441 61.1284 26.6224 60.8433C26.4059 60.5476 26.258 60.3786 26.258 60.3786L25.8884 59.9615L25.7723 60.5106C25.7723 60.5106 25.6455 61.1126 25.5611 61.9046C25.4819 62.6491 25.4079 63.7157 25.5452 64.5763C25.7406 65.8383 26.2158 66.6303 26.6118 67.0897C26.4481 67.0738 26.2792 67.0686 26.1155 67.0686C25.3921 67.0686 24.6529 67.2006 23.8556 67.4646C23.1639 67.6969 22.3138 68.0612 21.3211 68.5417C20.5608 68.9113 19.9958 69.2123 19.9958 69.2123L19.4414 69.508L20.0275 69.7245C20.0275 69.7245 20.3021 69.8248 20.7614 69.9568L20.8459 69.9779C21.2842 70.0941 21.8861 70.2577 22.5725 70.3422C23.1058 70.4003 23.5493 70.432 23.9717 70.432V70.4162Z" fill="#E6AA25"/>
<path d="M18.4805 65.796C19.1458 65.796 19.753 65.7063 20.2863 65.5268C21.0308 65.2786 21.4004 64.8509 21.5747 64.5341C21.675 64.3546 21.7225 64.1909 21.7489 64.0694C21.8545 64.0114 21.9971 63.9163 22.1449 63.7632C22.4776 63.4094 22.6835 62.9131 22.7468 62.2795C22.8155 61.5931 22.7627 60.8486 22.599 60.0724C22.4776 59.4282 22.2928 58.7682 22.0604 58.161C21.8756 57.6277 21.6803 57.1419 21.5166 56.7934L20.9886 55.7163L20.5978 56.6614C20.5028 56.8991 20.3814 57.2317 20.2599 57.6119C20.0751 58.1768 19.7583 59.2751 19.7002 60.2255C19.6421 61.5086 19.9484 62.3745 20.2388 62.9025C19.8005 62.7705 19.2145 62.6544 18.4594 62.6544C18.1426 62.6544 17.8047 62.6755 17.4615 62.7177C16.5638 62.8181 15.492 63.0768 14.7633 63.2616L13.739 63.5362L12.7305 63.816L13.4274 64.2595C13.5542 64.3335 13.7231 64.4232 13.9291 64.5341C14.3937 64.7717 14.9587 65.041 15.6187 65.2733C16.4688 65.5479 17.2133 65.7168 17.905 65.7802C18.1056 65.7961 18.2957 65.8013 18.4858 65.8013L18.4805 65.796Z" fill="#E6AA25"/>
<path d="M13.7579 60.1304C13.9586 60.1304 14.1592 60.1199 14.3546 60.0935C14.9829 60.0143 15.474 59.7767 15.8119 59.3859C15.9492 59.2275 16.0284 59.0744 16.0812 58.9635C16.1973 58.9266 16.3558 58.8632 16.5247 58.747C16.8046 58.557 17.1847 58.1662 17.4171 57.4112C17.6124 56.7828 17.7075 56.0859 17.7127 55.2252C17.7286 54.5018 17.6494 53.8207 17.5702 53.2504C17.4963 52.6274 17.3854 52.1152 17.3062 51.7931C17.227 51.4446 17.1689 51.2282 17.1689 51.2282L17.021 50.6421L16.6726 51.1331C16.6726 51.1331 16.3029 51.6453 15.9122 52.3423C15.6271 52.8491 15.1044 53.8418 14.8456 54.7869C14.682 55.3942 14.6239 55.9908 14.6661 56.6139C14.6925 56.936 14.7453 57.2475 14.8298 57.5221C14.6028 57.4006 14.3229 57.2686 13.9955 57.1524C13.4992 56.9729 12.8762 56.8515 12.1528 56.7776C11.8043 56.7459 11.3977 56.7248 10.9225 56.7248C10.3681 56.7248 9.81369 56.7459 9.39128 56.767C8.54646 56.8092 7.9234 56.8515 7.9234 56.8515L7.33203 56.8937L7.74388 57.3214C7.74388 57.3214 7.95509 57.5432 8.32469 57.8389C8.66262 58.1081 9.20119 58.5094 9.83481 58.9002C10.4948 59.2909 11.2499 59.6288 11.9733 59.8559C12.5857 60.0354 13.1877 60.1304 13.7685 60.1304H13.7579Z" fill="#E6AA25"/>
<path d="M9.89045 53.5991C10.4132 53.5991 10.862 53.4618 11.221 53.1872C11.3847 53.0605 11.4956 52.9285 11.5642 52.8282C11.6857 52.8176 11.8547 52.7859 12.0447 52.7014C12.3563 52.5694 12.8051 52.2632 13.1852 51.5715C13.9192 50.1987 14.0987 48.6041 14.1726 47.5217C14.2096 47.0728 14.2043 46.6716 14.2043 46.3495V46.0591C14.2043 45.6789 14.1832 45.4518 14.1832 45.4518L14.1304 44.8763L13.7133 45.2723C13.7133 45.2723 13.2592 45.7 12.7259 46.3019C12.0923 47.0148 11.5326 47.8121 11.1946 48.4826C10.8937 49.0687 10.7141 49.6443 10.6455 50.2409C10.6085 50.5577 10.6033 50.8692 10.6297 51.1544C10.3973 50.9537 10.1492 50.7795 9.88517 50.6264C9.40468 50.3465 8.82387 50.0983 8.16385 49.8924C7.37711 49.6495 6.36861 49.4859 5.56075 49.3539L5.45515 49.338C4.62617 49.206 3.99784 49.1268 3.99784 49.1268L3.39062 49.0529L3.73383 49.5598C3.73383 49.5598 3.89752 49.8027 4.18792 50.1723C4.46777 50.5366 4.92186 51.0118 5.46043 51.5134C6.24717 52.2368 7.84176 53.4618 9.65284 53.5885C9.73732 53.5938 9.81653 53.5991 9.89573 53.5991H9.89045Z" fill="#E6AA25"/>
<path d="M7.07496 46.381C7.39177 46.381 7.68746 46.3176 7.95146 46.1856C8.13627 46.0958 8.27355 45.985 8.35803 45.9058C8.40555 45.9058 8.45835 45.9163 8.51644 45.9163C8.62732 45.9163 8.74348 45.9058 8.85436 45.8794C9.18701 45.8107 9.68862 45.6048 10.1902 44.9976C10.6179 44.4749 10.9981 43.8412 11.3255 43.102C11.4575 42.8011 11.5736 42.4842 11.6845 42.1305C11.7901 41.8401 11.8851 41.5338 11.9696 41.2223C12.0911 40.7629 12.1756 40.3564 12.2442 40.0237L12.2917 39.7914C12.3656 39.4165 12.3868 39.1947 12.3868 39.1947L12.4448 38.6298L11.9591 38.9307C11.9591 38.9307 11.4363 39.2581 10.7922 39.7439C10.0054 40.3352 9.29789 41.0005 8.85436 41.5761C8.23131 42.3628 7.86698 43.2023 7.77194 44.0841C7.37593 43.5878 6.71592 42.9595 5.60181 42.3522C4.84147 41.951 3.86993 41.5761 3.09376 41.2751C2.27534 40.9689 1.66812 40.7682 1.66812 40.7682L1.08203 40.5728L1.32492 41.1431C1.32492 41.1431 1.44108 41.4124 1.65228 41.8348C1.78957 42.1146 2.10109 42.7007 2.62911 43.4083C2.86143 43.7198 3.09904 44.0208 3.33664 44.29C3.62177 44.5963 3.91745 44.8709 4.21842 45.119C4.89956 45.6893 5.60709 46.08 6.31991 46.2754C6.57863 46.3493 6.83208 46.3863 7.06968 46.3863L7.07496 46.381Z" fill="#E6AA25"/>
<path d="M5.67018 38.7407C5.82858 38.7407 5.99226 38.7196 6.14011 38.6826C6.34075 38.6298 6.49388 38.5506 6.5942 38.4873C6.71036 38.5242 6.87404 38.5612 7.07997 38.5612C7.42846 38.5612 7.96175 38.4556 8.56896 37.9645C9.74115 37.03 10.5226 35.6941 11.0717 34.6328L11.1509 34.4585C11.3674 33.9939 11.5575 33.5926 11.679 33.2864C11.8162 32.9432 11.8849 32.7267 11.8849 32.7267L12.0486 32.1881L11.5205 32.3835C11.5205 32.3835 10.945 32.5999 10.2216 32.9431C9.55106 33.2652 8.60592 33.7721 7.94591 34.3477C7.44958 34.7753 7.04829 35.2453 6.74732 35.7416C6.5942 36.0162 6.47276 36.296 6.38299 36.5811C6.24571 36.3171 6.08203 36.0531 5.88666 35.7997C5.55401 35.335 5.11577 34.8757 4.59831 34.448C4.0439 33.9992 3.28356 33.4712 2.33842 32.8745C1.62561 32.4257 1.06592 32.1036 1.06592 32.1036L0.527344 31.7921L0.654067 32.3993C0.654067 32.3993 0.712148 32.6844 0.844151 33.1438C0.965593 33.5662 1.1504 34.1998 1.48304 34.8862C1.82625 35.6571 2.81891 37.5527 4.51383 38.4345C4.90456 38.6351 5.29001 38.7354 5.65434 38.7354L5.67018 38.7407Z" fill="#E6AA25"/>
<path d="M7.20646 31.0742C7.58663 31.0742 7.9932 30.9686 8.40505 30.7521C9.02282 30.4459 9.62476 30.0076 10.2003 29.4585C10.7441 28.9305 11.2035 28.4236 11.5362 27.9906L11.7738 27.6738C12.0325 27.3359 12.2543 27.0402 12.4074 26.7973C12.608 26.4911 12.7189 26.2957 12.7189 26.2957L12.9882 25.8046L12.4338 25.8891C12.4338 25.8891 11.8266 25.9842 11.0504 26.1743C10.3112 26.3591 9.27627 26.6706 8.53705 27.093C7.97208 27.4045 7.48631 27.7847 7.0903 28.2177C6.85269 28.4764 6.68373 28.7351 6.56229 28.9674C6.48837 28.7087 6.38276 28.4183 6.24548 28.1121C6.01316 27.5893 5.68051 27.0508 5.24754 26.5175C4.60864 25.736 3.78495 24.9281 3.35198 24.5163C2.73948 23.9355 2.25899 23.5078 2.25899 23.5078L1.78906 23.0959V23.719C1.78906 23.719 1.78906 24.0147 1.8313 24.4846L1.84714 24.6483C1.88938 25.1077 1.94219 25.6779 2.10587 26.3168C2.27483 26.998 2.50188 27.79 2.88733 28.5186C3.30446 29.3106 3.79551 29.9443 4.34992 30.4036C4.81985 30.7838 5.30562 30.9739 5.79139 30.9739H5.88643C6.09236 30.958 6.25604 30.9158 6.3722 30.8736C6.47781 30.9316 6.63621 31.0003 6.84213 31.0425C6.9583 31.0689 7.08502 31.0795 7.21702 31.0795L7.20646 31.0742Z" fill="#E6AA25"/>
<path d="M8.90517 23.7714C9.15334 23.7714 9.42263 23.7344 9.70247 23.6552C10.3678 23.481 11.0489 23.1695 11.7248 22.7418C12.3478 22.3458 12.9022 21.9392 13.3299 21.5643C13.4936 21.4165 13.6467 21.2845 13.7946 21.1525C14.048 20.9307 14.2698 20.7406 14.4335 20.5716C14.6975 20.3129 14.8453 20.144 14.8453 20.144L15.2149 19.711L14.6499 19.6793C14.6499 19.6793 14.4018 19.6687 14.0163 19.6687C13.7946 19.6687 13.5253 19.6687 13.2296 19.6846C12.0944 19.7374 11.202 19.8694 10.5737 20.0806C9.9612 20.276 9.40679 20.5505 8.93157 20.8937C8.65173 21.0944 8.42996 21.3161 8.261 21.5221C8.23988 21.2581 8.19236 20.9571 8.12372 20.6192C8.00227 20.0595 7.78051 19.4681 7.4637 18.8556C6.96209 17.9105 6.33904 16.9917 6.01695 16.5218C5.53646 15.8301 5.15629 15.3179 5.15629 15.3179L4.78668 14.8216L4.65996 15.4288C4.65996 15.4288 4.60188 15.7139 4.53852 16.1839L4.51212 16.4109C4.45932 16.8492 4.39595 17.3983 4.43292 18.0319C4.4646 18.7183 4.52796 19.5367 4.76028 20.3393C5.00845 21.2 5.3675 21.9181 5.81631 22.483C6.31792 23.0955 6.84593 23.2909 7.1997 23.3437C7.29474 23.3595 7.37922 23.3648 7.45314 23.3648C7.54818 23.3648 7.62739 23.3595 7.69075 23.349C7.78051 23.4282 7.92307 23.5285 8.11844 23.613C8.35604 23.7133 8.63061 23.7661 8.92101 23.7661L8.90517 23.7714Z" fill="#E6AA25"/>
<path d="M12.1792 16.9708C12.2531 16.9708 12.327 16.9708 12.4062 16.9655C13.0926 16.9233 13.8107 16.7543 14.55 16.4639C15.1572 16.2527 15.7749 15.9781 16.361 15.6455C16.6198 15.5029 16.8574 15.3551 17.0633 15.2231L17.6071 14.8957C17.9292 14.6898 18.1088 14.5578 18.1088 14.5578L18.5681 14.2093L18.0084 14.0614C18.0084 14.0614 17.4065 13.903 16.6092 13.7763C16.2765 13.7235 15.7802 13.6496 15.2839 13.6179C15.0938 13.6073 14.9037 13.6021 14.7189 13.6021C14.4391 13.6021 14.1803 13.6126 13.948 13.639C12.9078 13.7552 11.9997 14.0878 11.3766 14.5789C11.4664 13.8555 11.4716 12.9737 11.139 11.8174C11.0334 11.4425 10.8803 11.0095 10.6796 10.4921C10.5107 10.0485 10.3364 9.62085 10.1727 9.23541C9.84537 8.46451 9.57608 7.88898 9.57608 7.88898L9.31736 7.33456L9.06919 7.89426C9.06919 7.89426 8.95303 8.16354 8.78934 8.60707L8.76822 8.67571C8.6943 8.88164 8.60982 9.12452 8.5359 9.39909C8.45142 9.74758 8.38278 10.0855 8.32997 10.4129C8.18741 11.2577 8.13461 12.0391 8.17157 12.7308C8.25605 13.639 8.47254 14.4205 8.80518 15.0594C9.10087 15.6191 9.49688 15.994 9.98265 16.1735C10.178 16.2474 10.347 16.2685 10.4684 16.2738C10.5423 16.3688 10.6585 16.4956 10.8327 16.6117C11.0756 16.7807 11.5033 16.9813 12.1686 16.9813L12.1792 16.9708Z" fill="#E6AA25"/>
<path d="M17.2767 11.004C17.6938 11.004 18.1321 10.9671 18.5862 10.8879C19.167 10.7875 19.9115 10.645 20.524 10.4496C20.8672 10.3493 21.1681 10.2331 21.4321 10.1328C21.5958 10.0695 21.749 10.0114 21.8862 9.96913C22.2506 9.83713 22.4565 9.7368 22.4565 9.7368L22.9845 9.48864L22.467 9.22991C22.467 9.22991 21.9074 8.95535 21.1523 8.66494C20.2916 8.32173 19.3518 8.07885 18.5809 7.99965C18.3591 7.97852 18.1374 7.96796 17.9261 7.96796C17.5143 7.96796 17.113 8.01021 16.7381 8.09469C16.4002 8.16861 16.1151 8.28477 15.8775 8.41149C15.9567 8.16333 16.0306 7.86764 16.0992 7.52444C16.2101 6.96474 16.2418 6.33641 16.1943 5.65527C16.1467 4.94246 15.9883 4.10292 15.8458 3.35842L15.7666 2.92545C15.6029 2.10176 15.4551 1.48398 15.4551 1.48398L15.3125 0.892609L14.9534 1.38894C14.9534 1.38894 14.7845 1.62654 14.5363 2.02783C14.304 2.3816 14.0294 2.94657 13.7232 3.70163C13.4592 4.39861 13.1952 5.13782 13.1054 5.96152C12.9998 6.85386 13.0473 7.65644 13.248 8.35341C13.4222 8.96063 13.7337 9.40944 14.1773 9.684C14.3568 9.79488 14.5205 9.85297 14.6366 9.88465C14.6894 9.99553 14.7792 10.1381 14.9218 10.2912C15.1541 10.5341 15.5976 10.8509 16.3844 10.9618C16.6748 11.004 16.9757 11.0252 17.2873 11.0252L17.2767 11.004Z" fill="#E6AA25"/>
<path d="M19.4082 5.57617C20.0735 5.57617 21.404 5.3544 22.835 3.88653C23.9966 2.69323 25.1793 0.602299 25.2268 0.512537L25.5173 0.000366211L24.9364 0.100689C24.7728 0.127089 20.9341 0.829345 19.1178 3.22652C18.199 4.44622 18.727 5.36497 18.7481 5.40193L18.8062 5.50225L18.9171 5.52865C18.9171 5.52865 19.1125 5.57617 19.3976 5.57617H19.4082Z" fill="#E6AA25"/>
<path d="M113.246 4.45828L115.713 5.2862C115.645 5.48896 115.408 5.62413 115.054 5.62413C114.395 6.50274 113.6 7.39825 112.874 8.05721C114.361 9.13858 113.263 10.7268 112.114 9.88202C111.978 9.0372 111.387 8.05721 110.863 7.44894L111.015 7.34756C111.59 7.44894 112.046 7.60101 112.401 7.78687C112.671 6.84067 113.009 5.57344 113.246 4.45828ZM115.848 12.2813L115.273 12.4672V19.8509C115.273 19.9523 114.699 20.3578 113.786 20.3578H113.465V15.0861C113.398 15.103 113.313 15.1199 113.212 15.1199C112.739 16.7082 112.046 18.1274 111.1 19.0567L110.863 18.9216C111.303 17.6712 111.607 15.9309 111.691 14.2751L113.465 14.6468V12.991C113.009 13.1261 112.519 13.2613 111.978 13.4134C111.877 13.633 111.691 13.7513 111.505 13.7682L110.88 11.9096C111.319 11.9096 111.978 11.9096 112.789 11.8927C113.634 10.2199 114.58 8.091 115.172 6.55343L117.537 7.38135C117.453 7.56721 117.233 7.70239 116.861 7.66859C116.05 8.83444 114.699 10.5072 113.398 11.8927C114.107 11.8758 114.885 11.842 115.696 11.8251C115.544 11.3689 115.358 10.9296 115.172 10.5748L115.358 10.4903C119.159 11.9772 117.402 14.782 116.034 13.4472C116.017 13.0754 115.949 12.6699 115.848 12.2813ZM115.392 14.3596L115.594 14.292C119.092 16.1168 117.368 18.8033 116.084 17.4685C116.101 16.4547 115.746 15.2382 115.392 14.3596ZM116.439 20.3578L116.355 20.1381C117.875 19.4285 119.514 18.1443 120.291 17.1981L122.387 18.4992C122.268 18.685 121.964 18.7526 121.457 18.6512C120.308 19.3609 118.348 20.0367 116.439 20.3578ZM120.055 16.3026H123.873V14.9847H120.055V16.3026ZM123.873 11.4703H120.055V12.7206H123.873V11.4703ZM123.873 14.4947V13.2106H120.055V14.4947H123.873ZM124.211 17.4347H123.873V16.7757H120.055V17.0968C120.055 17.2657 119.244 17.6881 118.467 17.6881H118.179V10.203L120.139 10.9972H123.738L124.6 10.0848L126.34 11.4027C126.239 11.521 126.053 11.6392 125.8 11.6899V16.9447C125.783 17.0799 124.837 17.4347 124.211 17.4347ZM122.353 17.7219L122.437 17.5023C129.348 17.9923 126.171 21.4391 124.82 19.8678C124.448 19.175 123.705 18.3302 122.353 17.7219ZM124.279 9.39202L125.225 8.22617C125.225 8.22617 126.307 9.0203 126.966 9.59478C126.915 9.78064 126.746 9.86512 126.509 9.86512H117.132L116.997 9.39202H120.815V8.14169H117.977L117.841 7.6517H120.815V6.51964H117.504L117.368 6.02964H120.815V4.57656L123.4 4.77931C123.367 5.01586 123.248 5.18483 122.792 5.25241V6.02964H124.026L124.972 4.8469C124.972 4.8469 126.036 5.65792 126.712 6.2493C126.661 6.43516 126.492 6.51964 126.256 6.51964H122.792V7.6517H124.009L124.887 6.57033C124.887 6.57033 125.867 7.31377 126.476 7.87135C126.425 8.05721 126.256 8.14169 126.019 8.14169H122.792V9.39202H124.279Z" fill="#1B3A57"/>
<path d="M106.421 7.24618H96.0978C96.1822 8.41203 95.7429 9.20616 95.1516 9.56099C94.5771 9.91581 93.7323 9.72995 93.4957 9.05409C93.293 8.39514 93.6985 7.90514 94.2561 7.6348C94.8474 7.31377 95.5233 6.46895 95.4388 5.53965L95.6585 5.52275C95.8443 5.96206 95.9626 6.36757 96.0302 6.75619H100.052V4.45828L102.721 4.67793C102.687 4.91448 102.552 5.08345 102.096 5.15103V6.75619H106.354L107.385 5.72551L109.142 7.43204C109.007 7.56721 108.838 7.60101 108.483 7.6179C107.875 8.091 106.844 8.68238 106.033 9.00341L105.881 8.90203C106.067 8.44583 106.269 7.78687 106.421 7.24618ZM108.212 15.2889H102.248C103.583 17.2488 106.269 17.9754 109.108 18.2795V18.4654C108.297 18.7019 107.79 19.3778 107.57 20.3747C104.766 19.4792 102.873 18.1443 101.876 15.2889H101.538C100.66 17.6037 98.4464 19.4454 93.3606 20.3409L93.293 20.1212C97.0947 18.9385 98.835 17.2657 99.5784 15.2889H93.6816L93.5295 14.7989H99.7474C99.9332 14.1399 100.035 13.464 100.068 12.7544H95.405L95.2698 12.2982H100.085V12.0279V10.372H95.3543L95.2192 9.88202H100.085V7.90514L102.67 8.14169C102.637 8.34445 102.501 8.51341 102.079 8.581V9.88202H104.461L105.458 8.68237C105.458 8.68237 106.574 9.5103 107.266 10.1017C107.216 10.2875 107.03 10.372 106.793 10.372H102.079V12.0448V12.2982H104.495L105.475 11.0817C105.475 11.0817 106.59 11.9096 107.3 12.4841C107.249 12.6699 107.064 12.7544 106.827 12.7544H102.045C102.011 13.464 101.91 14.1399 101.707 14.7989H105.813L106.844 13.5485C106.844 13.5485 107.976 14.3933 108.686 15.0185C108.635 15.2044 108.466 15.2889 108.212 15.2889Z" fill="#1B3A57"/>
<path d="M87.8837 18.4823L89.1171 16.9109C89.1171 16.9109 90.4857 17.9585 91.3136 18.685C91.263 18.8709 91.094 18.9554 90.8236 18.9554H75.6L75.4648 18.4823H82.2403V7.63479H76.7152L76.58 7.1448H86.8699L88.0864 5.59033C88.0864 5.59033 89.455 6.63791 90.283 7.36445C90.2323 7.55031 90.0295 7.63479 89.793 7.63479H84.4199V18.4823H87.8837Z" fill="#1B3A57"/>
<path d="M64.3339 13.1768L65.6011 12.6868V9.59479C65.2294 9.91582 64.8238 10.2031 64.4183 10.4565L64.2325 10.3213C64.5873 9.78065 64.9252 9.13859 65.2463 8.41204H65.1956H61.4953C61.4784 9.20617 61.4615 9.98341 61.4277 10.7606H62.4415L63.4215 9.78065L65.0942 11.2337C64.9759 11.3689 64.7563 11.4872 64.3845 11.5379C64.3676 12.1292 64.3508 12.6699 64.3339 13.1768ZM71.1938 11.0479L69.9097 11.5379V14.8158C70.1462 14.8158 70.4334 14.8327 70.6024 14.8327C70.8052 14.8327 70.9065 14.7989 70.9572 14.7144C71.1431 14.5116 71.1769 13.5823 71.1938 11.0479ZM72.9341 16.6575L73.0017 18.1781C73.5086 18.364 73.6775 18.5499 73.6775 18.8709C73.6775 19.6312 72.9341 19.9692 69.8083 19.9692H67.7638C66.0742 19.9692 65.6011 19.6481 65.6011 18.3471V13.2275L64.3001 13.7344C64.1311 17.3502 63.7932 18.8709 63.1004 19.5299C62.5766 20.0199 61.9008 20.2226 61.056 20.2226C61.056 19.665 61.0222 19.2257 60.8025 18.9892C60.5829 18.7019 60.1605 18.4992 59.586 18.3809L59.6029 18.1444C60.0929 18.1781 60.9039 18.2288 61.2249 18.2288C61.4953 18.2288 61.6304 18.1781 61.7825 18.043C62.2387 17.6206 62.4922 15.5423 62.6104 11.2337H61.3939C61.1911 14.6637 60.4646 17.8571 57.6767 20.2902L57.457 20.0536C59.6367 16.6068 59.5522 12.4841 59.5691 8.41204H57.8119L57.6767 7.93895H60.3125V4.57657L62.847 4.79622C62.8301 4.99898 62.6949 5.15104 62.3063 5.21863V7.93895H62.7794L63.8101 6.46896C63.8101 6.46896 64.7394 7.27999 65.4321 7.93895C65.8545 6.87447 66.2094 5.69173 66.4121 4.47519L69.0817 5.30311C68.9973 5.52276 68.7776 5.65794 68.4059 5.64104C68.1017 6.33379 67.7638 6.97585 67.3752 7.55033H70.6531L71.7176 6.09724C71.7176 6.09724 72.9341 7.09413 73.6438 7.75309C73.5931 7.93895 73.4241 8.02343 73.1707 8.02343H67.0542C66.6149 8.6148 66.1249 9.12169 65.618 9.57789L67.7638 9.79755C67.73 10.0172 67.5949 10.1862 67.2062 10.2537V12.0617L68.3721 11.6055V8.41204L70.501 8.6148C70.4672 8.85135 70.3321 9.02031 69.9097 9.0879V10.9972L70.9234 10.6086L71.0586 10.5579L71.8696 9.74686L73.4241 11.031C73.3058 11.1662 73.12 11.2506 72.782 11.3013C72.782 14.6975 72.6807 15.6437 72.1062 16.1168C71.7514 16.4209 71.2614 16.573 70.6193 16.573C70.6193 16.0999 70.5855 15.7113 70.4334 15.4747C70.3152 15.3058 70.1631 15.1875 69.9097 15.0861V16.9109C69.9097 17.0461 69.2338 17.3502 68.6593 17.3502H68.3721V12.1461L67.2062 12.6023V17.8909C67.2062 18.2288 67.3583 18.364 68.0342 18.364H69.9435C70.6869 18.364 71.329 18.3471 71.5993 18.3133C71.8358 18.2964 71.9541 18.2626 72.0724 18.1444C72.2583 17.9585 72.4948 17.3502 72.7314 16.6575H72.9341Z" fill="#1B3A57"/>
<path d="M129.022 32.4543H113.602C111.428 32.4543 110.497 32.92 109.514 34.5241C108.893 35.5072 108.479 36.8009 107.962 39.1294L106.254 38.9224L107.858 26.9175H132.592V30.5914C128.867 36.0247 126.176 41.0957 124.365 46.1667C123.278 49.1162 122.45 52.3244 121.881 55.3256C121.467 57.8611 121.467 57.8611 121.26 62.2595C121.208 63.7083 120.898 64.5363 120.225 65.0537C119.552 65.5712 118.362 65.8816 116.913 65.8816C114.637 65.8816 113.498 65.0537 113.498 63.3979C113.498 59.9827 116.241 52.9971 120.639 45.4423C122.709 41.7684 124.882 38.405 129.022 32.4543Z" fill="#1B3A57"/>
<path d="M96.5662 64.8467H71.832C72.3495 60.7071 73.3844 57.7059 75.299 54.7564C77.2653 51.7552 79.6455 49.3232 85.5445 44.4074C87.9248 42.4411 89.0632 41.1474 89.8393 39.6468C90.5638 38.1462 90.926 36.5939 90.926 34.8863C90.926 30.3844 88.494 27.435 84.8201 27.435C82.388 27.435 80.7839 28.6251 80.0078 30.9019C79.5938 32.1955 79.5421 32.713 79.4386 35.6107C79.3351 37.6288 78.4037 38.4567 76.1269 38.4567C73.6431 38.4567 72.453 37.577 72.453 35.7142C72.453 32.92 74.0053 30.281 76.7478 28.4181C79.0763 26.8658 81.8706 26.0896 85.3375 26.0896C93.151 26.0896 97.8081 29.66 97.8081 35.6624C97.8081 38.2497 97.0319 40.3713 95.4796 42.1823C94.3929 43.476 92.4266 44.9248 89.7876 46.4254C82.9572 50.2546 81.4049 51.2895 79.0246 53.4628C76.9548 55.3256 76.0234 56.671 74.9367 59.31H89.9428C94.1859 59.31 95.6865 57.9646 96.618 53.3075L98.3773 53.6698L96.5662 64.8467Z" fill="#1B3A57"/>
<path d="M58.5168 54.6529V58.3268C58.5168 62.6217 59.1895 63.3461 63.1739 63.3978V64.8467H47.5986V63.4496C50.0306 63.3461 50.5998 63.2426 51.2208 62.7252C51.997 62.156 52.3074 60.8106 52.3074 58.3268V54.6529H35.5938V52.1691L53.7045 26.4518H58.5168V52.3244H64.0536V54.6529H58.5168ZM52.3074 52.3244V31.8333L37.9223 52.3244H52.3074Z" fill="#1B3A57"/>
<path d="M136.26 54.6962L137.274 55.068C137.223 55.22 137.088 55.3383 136.767 55.4059V65.3072C136.733 65.4423 135.922 65.8647 135.128 65.8647H134.773V56.8252C134.165 57.5686 133.506 58.2276 132.797 58.8021L132.594 58.6669C133.895 56.5717 135.213 53.2601 135.855 50.0497L138.507 51.0128C138.44 51.2156 138.22 51.3508 137.832 51.3339C137.375 52.5504 136.852 53.6825 136.26 54.6962ZM145.79 58.8528L146.871 57.3997C146.871 57.3997 148.105 58.3797 148.831 59.0724C148.78 59.2583 148.595 59.3427 148.358 59.3427H144.033V65.2903C144.033 65.493 143.171 65.8816 142.411 65.8816H141.988V59.3427H137.443L137.308 58.8528H141.988V54.7469H139.893C139.234 56.0817 138.423 57.2138 137.477 58.1093L137.274 57.991C138.034 56.2 138.71 53.4966 138.997 50.9621L141.616 51.7563C141.549 51.9759 141.329 52.1111 140.957 52.1111C140.721 52.8714 140.434 53.5811 140.13 54.2569H141.988V50.2525L144.675 50.5059C144.624 50.7425 144.506 50.9284 144.033 50.9959V54.2569H145.418L146.466 52.8714C146.466 52.8714 147.632 53.8345 148.341 54.4766C148.29 54.6625 148.105 54.7469 147.868 54.7469H144.033V58.8528H145.79Z" fill="#1B3A57"/>
</g>
<defs>
<clipPath id="clip0_2028_2746">
<rect width="184.425" height="70.4316" fill="white"/>
</clipPath>
</defs>
</svg>
