<svg width="185" height="71" viewBox="0 0 185 71" fill="none" xmlns="http://www.w3.org/2000/svg">
<g clip-path="url(#clip0_37_2795)">
<path d="M160.452 70.4161C160.125 70.4161 159.808 70.4003 159.518 70.3633C158.625 70.2472 157.86 70.0043 157.237 69.6452C156.556 69.2545 156.281 68.7582 156.176 68.415C156.112 68.2143 156.096 68.0453 156.096 67.9292C156.001 67.85 155.885 67.7285 155.774 67.549C155.515 67.1372 155.42 66.6039 155.484 65.9755C155.558 65.2891 155.753 64.571 156.075 63.8371C156.344 63.1929 156.661 62.5857 156.989 62.0735C157.316 61.5508 157.58 61.1284 157.802 60.8433C158.018 60.5476 158.166 60.3786 158.166 60.3786L158.536 59.9615L158.652 60.5106C158.652 60.5106 158.779 61.1126 158.863 61.9046C158.942 62.6491 159.016 63.7157 158.879 64.5763C158.684 65.8383 158.208 66.6303 157.812 67.0896C157.976 67.0738 158.145 67.0685 158.309 67.0685C159.032 67.0685 159.771 67.2005 160.569 67.4645C161.26 67.6969 162.11 68.0612 163.103 68.5417C163.863 68.9113 164.428 69.2123 164.428 69.2123L164.983 69.5079L164.397 69.7244C164.397 69.7244 164.122 69.8247 163.663 69.9568L163.578 69.9779C163.14 70.094 162.538 70.2577 161.852 70.3422C161.318 70.4003 160.875 70.432 160.452 70.432V70.4161Z" fill="#E6AA25"/>
<path d="M165.944 65.796C165.279 65.796 164.672 65.7063 164.138 65.5267C163.394 65.2786 163.024 64.8509 162.85 64.5341C162.75 64.3545 162.702 64.1909 162.676 64.0694C162.57 64.0113 162.428 63.9163 162.28 63.7632C161.947 63.4094 161.741 62.9131 161.678 62.2795C161.609 61.593 161.662 60.8486 161.826 60.0724C161.947 59.4282 162.132 58.7682 162.364 58.161C162.549 57.6277 162.744 57.1419 162.908 56.7934L163.436 55.7163L163.827 56.6614C163.922 56.899 164.043 57.2317 164.165 57.6118C164.35 58.1768 164.666 59.2751 164.724 60.2255C164.782 61.5086 164.476 62.3745 164.186 62.9025C164.624 62.7705 165.21 62.6544 165.965 62.6544C166.282 62.6544 166.62 62.6755 166.963 62.7177C167.861 62.818 168.933 63.0768 169.661 63.2616L170.686 63.5361L171.694 63.816L170.997 64.2595C170.87 64.3334 170.701 64.4232 170.496 64.5341C170.031 64.7717 169.466 65.041 168.806 65.2733C167.956 65.5479 167.211 65.7168 166.52 65.7802C166.319 65.796 166.129 65.8013 165.939 65.8013L165.944 65.796Z" fill="#E6AA25"/>
<path d="M170.664 60.1304C170.463 60.1304 170.263 60.1198 170.067 60.0934C169.439 60.0142 168.948 59.7766 168.61 59.3859C168.473 59.2275 168.393 59.0744 168.341 58.9635C168.224 58.9265 168.066 58.8632 167.897 58.747C167.617 58.5569 167.237 58.1662 167.005 57.4111C166.809 56.7828 166.714 56.0858 166.709 55.2252C166.693 54.5018 166.772 53.8207 166.852 53.2504C166.926 52.6274 167.036 52.1152 167.116 51.7931C167.195 51.4446 167.253 51.2281 167.253 51.2281L167.401 50.642L167.749 51.1331C167.749 51.1331 168.119 51.6453 168.51 52.3422C168.795 52.8491 169.317 53.8418 169.576 54.7869C169.74 55.3941 169.798 55.9908 169.756 56.6138C169.729 56.9359 169.676 57.2475 169.592 57.522C169.819 57.4006 170.099 57.2686 170.426 57.1524C170.923 56.9729 171.546 56.8514 172.269 56.7775C172.618 56.7458 173.024 56.7247 173.499 56.7247C174.054 56.7247 174.608 56.7458 175.031 56.767C175.875 56.8092 176.498 56.8514 176.498 56.8514L177.09 56.8937L176.678 57.3214C176.678 57.3214 176.467 57.5431 176.097 57.8388C175.759 58.1081 175.221 58.5094 174.587 58.9001C173.927 59.2909 173.172 59.6288 172.449 59.8558C171.836 60.0354 171.234 60.1304 170.653 60.1304H170.664Z" fill="#E6AA25"/>
<path d="M174.541 53.599C174.018 53.599 173.569 53.4618 173.21 53.1872C173.046 53.0605 172.936 52.9285 172.867 52.8282C172.745 52.8176 172.576 52.7859 172.386 52.7014C172.075 52.5694 171.626 52.2632 171.246 51.5715C170.512 50.1987 170.332 48.6041 170.259 47.5216C170.222 47.0728 170.227 46.6715 170.227 46.3494V46.059C170.227 45.6789 170.248 45.4518 170.248 45.4518L170.301 44.8763L170.718 45.2723C170.718 45.2723 171.172 45.7 171.705 46.3019C172.339 47.0147 172.899 47.812 173.236 48.4826C173.537 49.0687 173.717 49.6442 173.786 50.2409C173.823 50.5577 173.828 50.8692 173.801 51.1544C174.034 50.9537 174.282 50.7795 174.546 50.6263C175.026 50.3465 175.607 50.0983 176.267 49.8924C177.054 49.6495 178.063 49.4858 178.87 49.3538L178.976 49.338C179.805 49.206 180.433 49.1268 180.433 49.1268L181.041 49.0529L180.697 49.5598C180.697 49.5598 180.534 49.8026 180.243 50.1723C179.963 50.5366 179.509 51.0118 178.971 51.5134C178.184 52.2368 176.589 53.4618 174.778 53.5885C174.694 53.5938 174.615 53.599 174.535 53.599H174.541Z" fill="#E6AA25"/>
<path d="M177.35 46.3809C177.034 46.3809 176.738 46.3176 176.474 46.1856C176.289 46.0958 176.152 45.9849 176.067 45.9057C176.02 45.9057 175.967 45.9163 175.909 45.9163C175.798 45.9163 175.682 45.9057 175.571 45.8793C175.238 45.8107 174.737 45.6048 174.235 44.9976C173.807 44.4748 173.427 43.8412 173.1 43.102C172.968 42.801 172.852 42.4842 172.741 42.1305C172.635 41.84 172.54 41.5338 172.456 41.2223C172.334 40.7629 172.25 40.3563 172.181 40.0237L172.134 39.7914C172.06 39.4165 172.039 39.1947 172.039 39.1947L171.98 38.6297L172.466 38.9307C172.466 38.9307 172.989 39.2581 173.633 39.7438C174.42 40.3352 175.127 41.0005 175.571 41.576C176.194 42.3628 176.558 43.2023 176.653 44.0841C177.049 43.5878 177.709 42.9594 178.824 42.3522C179.584 41.9509 180.555 41.576 181.332 41.2751C182.15 40.9688 182.757 40.7682 182.757 40.7682L183.343 40.5728L183.1 41.1431C183.1 41.1431 182.984 41.4124 182.773 41.8348C182.636 42.1146 182.324 42.7007 181.796 43.4082C181.564 43.7198 181.326 44.0207 181.089 44.29C180.804 44.5963 180.508 44.8708 180.207 45.119C179.526 45.6892 178.818 46.08 178.105 46.2753C177.847 46.3493 177.593 46.3862 177.356 46.3862L177.35 46.3809Z" fill="#E6AA25"/>
<path d="M178.753 38.7407C178.595 38.7407 178.431 38.7196 178.283 38.6826C178.083 38.6298 177.93 38.5506 177.829 38.4872C177.713 38.5242 177.55 38.5612 177.344 38.5612C176.995 38.5612 176.462 38.4556 175.855 37.9645C174.682 37.0299 173.901 35.6941 173.352 34.6328L173.273 34.4585C173.056 33.9939 172.866 33.5926 172.745 33.2863C172.607 32.9431 172.539 32.7266 172.539 32.7266L172.375 32.1881L172.903 32.3834C172.903 32.3834 173.479 32.5999 174.202 32.9431C174.873 33.2652 175.818 33.7721 176.478 34.3476C176.974 34.7753 177.375 35.2452 177.676 35.7416C177.829 36.0161 177.951 36.296 178.041 36.5811C178.178 36.3171 178.342 36.0531 178.537 35.7997C178.87 35.335 179.308 34.8756 179.825 34.448C180.38 33.9991 181.14 33.4711 182.085 32.8745C182.798 32.4257 183.358 32.1036 183.358 32.1036L183.896 31.7921L183.77 32.3993C183.77 32.3993 183.711 32.6844 183.579 33.1438C183.458 33.5662 183.273 34.1998 182.941 34.8862C182.597 35.6571 181.605 37.5527 179.91 38.4344C179.519 38.6351 179.134 38.7354 178.769 38.7354L178.753 38.7407Z" fill="#E6AA25"/>
<path d="M177.215 31.0742C176.835 31.0742 176.429 30.9686 176.017 30.7521C175.399 30.4459 174.797 30.0076 174.221 29.4585C173.678 28.9305 173.218 28.4236 172.886 27.9906L172.648 27.6738C172.389 27.3359 172.168 27.0402 172.014 26.7973C171.814 26.491 171.703 26.2957 171.703 26.2957L171.434 25.8046L171.988 25.8891C171.988 25.8891 172.595 25.9842 173.371 26.1742C174.111 26.359 175.146 26.6706 175.885 27.093C176.45 27.4045 176.935 27.7847 177.331 28.2176C177.569 28.4764 177.738 28.7351 177.86 28.9674C177.933 28.7087 178.039 28.4183 178.176 28.112C178.409 27.5893 178.741 27.0507 179.174 26.5174C179.813 25.736 180.637 24.9281 181.07 24.5163C181.682 23.9355 182.163 23.5078 182.163 23.5078L182.633 23.0959V23.719C182.633 23.719 182.633 24.0147 182.59 24.4846L182.575 24.6483C182.532 25.1077 182.48 25.6779 182.316 26.3168C182.147 26.9979 181.92 27.79 181.534 28.5186C181.117 29.3106 180.626 29.9442 180.072 30.4036C179.602 30.7838 179.116 30.9739 178.63 30.9739H178.535C178.329 30.958 178.166 30.9158 178.05 30.8735C177.944 30.9316 177.786 31.0003 177.58 31.0425C177.463 31.0689 177.337 31.0795 177.205 31.0795L177.215 31.0742Z" fill="#E6AA25"/>
<path d="M175.517 23.7714C175.269 23.7714 174.999 23.7344 174.719 23.6552C174.054 23.481 173.373 23.1694 172.697 22.7417C172.074 22.3457 171.52 21.9392 171.092 21.5643C170.928 21.4164 170.775 21.2844 170.627 21.1524C170.374 20.9307 170.152 20.7406 169.988 20.5716C169.724 20.3129 169.577 20.1439 169.577 20.1439L169.207 19.711L169.772 19.6793C169.772 19.6793 170.02 19.6687 170.406 19.6687C170.627 19.6687 170.897 19.6687 171.192 19.6846C172.328 19.7374 173.22 19.8694 173.848 20.0806C174.461 20.2759 175.015 20.5505 175.49 20.8937C175.77 21.0943 175.992 21.3161 176.161 21.522C176.182 21.258 176.23 20.9571 176.298 20.6191C176.42 20.0594 176.641 19.4681 176.958 18.8556C177.46 17.9104 178.083 16.9917 178.405 16.5218C178.885 15.8301 179.266 15.3179 179.266 15.3179L179.635 14.8216L179.762 15.4288C179.762 15.4288 179.82 15.7139 179.883 16.1838L179.91 16.4109C179.963 16.8491 180.026 17.3983 179.989 18.0319C179.957 18.7183 179.894 19.5367 179.662 20.3393C179.414 21.1999 179.054 21.918 178.606 22.483C178.104 23.0955 177.576 23.2909 177.222 23.3437C177.127 23.3595 177.043 23.3648 176.969 23.3648C176.874 23.3648 176.795 23.3595 176.731 23.349C176.641 23.4282 176.499 23.5285 176.304 23.613C176.066 23.7133 175.791 23.7661 175.501 23.7661L175.517 23.7714Z" fill="#E6AA25"/>
<path d="M172.241 16.9707C172.167 16.9707 172.093 16.9707 172.013 16.9655C171.327 16.9232 170.609 16.7542 169.87 16.4638C169.263 16.2526 168.645 15.9781 168.059 15.6454C167.8 15.5029 167.562 15.355 167.356 15.223L166.813 14.8956C166.49 14.6897 166.311 14.5577 166.311 14.5577L165.852 14.2092L166.411 14.0614C166.411 14.0614 167.013 13.903 167.81 13.7763C168.143 13.7235 168.639 13.6495 169.136 13.6179C169.326 13.6073 169.516 13.602 169.701 13.602C169.981 13.602 170.239 13.6126 170.472 13.639C171.512 13.7551 172.42 14.0878 173.043 14.5788C172.953 13.8555 172.948 12.9737 173.281 11.8173C173.386 11.4424 173.539 11.0095 173.74 10.492C173.909 10.0485 174.083 9.62081 174.247 9.23536C174.574 8.46446 174.844 7.88893 174.844 7.88893L175.102 7.33452L175.351 7.89421C175.351 7.89421 175.467 8.1635 175.63 8.60703L175.651 8.67567C175.725 8.88159 175.81 9.12448 175.884 9.39904C175.968 9.74753 176.037 10.0855 176.09 10.4128C176.232 11.2576 176.285 12.0391 176.248 12.7308C176.164 13.639 175.947 14.4204 175.615 15.0593C175.319 15.619 174.923 15.9939 174.437 16.1734C174.242 16.2474 174.073 16.2685 173.951 16.2738C173.877 16.3688 173.761 16.4955 173.587 16.6117C173.344 16.7806 172.916 16.9813 172.251 16.9813L172.241 16.9707Z" fill="#E6AA25"/>
<path d="M167.153 11.004C166.736 11.004 166.298 10.967 165.844 10.8878C165.263 10.7875 164.518 10.645 163.906 10.4496C163.563 10.3493 163.262 10.2331 162.998 10.1328C162.834 10.0694 162.681 10.0113 162.544 9.9691C162.179 9.8371 161.973 9.73677 161.973 9.73677L161.445 9.48861L161.963 9.22988C161.963 9.22988 162.522 8.95532 163.278 8.66491C164.138 8.3217 165.078 8.07882 165.849 7.99961C166.071 7.97849 166.292 7.96793 166.504 7.96793C166.916 7.96793 167.317 8.01018 167.692 8.09466C168.03 8.16858 168.315 8.28474 168.552 8.41146C168.473 8.1633 168.399 7.86761 168.331 7.52441C168.22 6.96471 168.188 6.33638 168.236 5.65524C168.283 4.94243 168.441 4.10289 168.584 3.35839L168.663 2.92542C168.827 2.10173 168.975 1.48395 168.975 1.48395L169.117 0.892578L169.476 1.38891C169.476 1.38891 169.645 1.62651 169.893 2.0278C170.126 2.38157 170.4 2.94654 170.707 3.7016C170.971 4.39858 171.235 5.13779 171.324 5.96149C171.43 6.85383 171.382 7.65641 171.182 8.35338C171.008 8.9606 170.696 9.40941 170.253 9.68397C170.073 9.79485 169.909 9.85294 169.793 9.88462C169.74 9.9955 169.651 10.1381 169.508 10.2912C169.276 10.5341 168.832 10.8509 168.045 10.9618C167.755 11.004 167.454 11.0251 167.143 11.0251L167.153 11.004Z" fill="#E6AA25"/>
<path d="M165.015 5.57612C164.35 5.57612 163.019 5.35436 161.589 3.88649C160.427 2.69318 159.244 0.602253 159.197 0.512491L158.906 0.000320435L159.487 0.100643C159.651 0.127044 163.489 0.829299 165.306 3.22647C166.224 4.44618 165.696 5.36492 165.675 5.40188L165.617 5.5022L165.506 5.5286C165.506 5.5286 165.311 5.57612 165.026 5.57612H165.015Z" fill="#E6AA25"/>
<path d="M23.9717 70.4161C24.2991 70.4161 24.6159 70.4003 24.9063 70.3633C25.7987 70.2472 26.5643 70.0043 27.1873 69.6452C27.8685 69.2545 28.143 68.7582 28.2486 68.415C28.312 68.2143 28.3278 68.0453 28.3278 67.9292C28.4229 67.85 28.539 67.7285 28.6499 67.549C28.9087 67.1372 29.0037 66.6039 28.9403 65.9755C28.8664 65.2891 28.671 64.571 28.349 63.8371C28.0797 63.1929 27.7629 62.5857 27.4355 62.0735C27.1081 61.5508 26.8441 61.1284 26.6224 60.8433C26.4059 60.5476 26.258 60.3786 26.258 60.3786L25.8884 59.9615L25.7723 60.5106C25.7723 60.5106 25.6455 61.1126 25.5611 61.9046C25.4819 62.6491 25.4079 63.7157 25.5452 64.5763C25.7406 65.8383 26.2158 66.6303 26.6118 67.0896C26.4481 67.0738 26.2792 67.0685 26.1155 67.0685C25.3921 67.0685 24.6529 67.2005 23.8556 67.4645C23.1639 67.6969 22.3138 68.0612 21.3211 68.5417C20.5608 68.9113 19.9958 69.2123 19.9958 69.2123L19.4414 69.5079L20.0275 69.7244C20.0275 69.7244 20.3021 69.8247 20.7614 69.9568L20.8459 69.9779C21.2842 70.094 21.8861 70.2577 22.5725 70.3422C23.1058 70.4003 23.5493 70.432 23.9717 70.432V70.4161Z" fill="#E6AA25"/>
<path d="M18.4805 65.796C19.1458 65.796 19.753 65.7063 20.2863 65.5267C21.0308 65.2786 21.4004 64.8509 21.5747 64.5341C21.675 64.3545 21.7225 64.1909 21.7489 64.0694C21.8545 64.0113 21.9971 63.9163 22.1449 63.7632C22.4776 63.4094 22.6835 62.9131 22.7469 62.2795C22.8155 61.593 22.7627 60.8486 22.599 60.0724C22.4776 59.4282 22.2928 58.7682 22.0604 58.161C21.8756 57.6277 21.6803 57.1419 21.5166 56.7934L20.9886 55.7163L20.5978 56.6614C20.5028 56.899 20.3814 57.2317 20.2599 57.6118C20.0751 58.1768 19.7583 59.2751 19.7002 60.2255C19.6421 61.5086 19.9484 62.3745 20.2388 62.9025C19.8005 62.7705 19.2145 62.6544 18.4594 62.6544C18.1426 62.6544 17.8047 62.6755 17.4615 62.7177C16.5638 62.818 15.492 63.0768 14.7633 63.2616L13.739 63.5361L12.7305 63.816L13.4274 64.2595C13.5542 64.3334 13.7231 64.4232 13.9291 64.5341C14.3937 64.7717 14.9587 65.041 15.6187 65.2733C16.4688 65.5479 17.2133 65.7168 17.905 65.7802C18.1056 65.796 18.2957 65.8013 18.4858 65.8013L18.4805 65.796Z" fill="#E6AA25"/>
<path d="M13.7579 60.1304C13.9586 60.1304 14.1592 60.1198 14.3546 60.0934C14.9829 60.0142 15.474 59.7766 15.8119 59.3859C15.9492 59.2275 16.0284 59.0744 16.0812 58.9635C16.1973 58.9265 16.3558 58.8632 16.5247 58.747C16.8046 58.5569 17.1847 58.1662 17.4171 57.4111C17.6124 56.7828 17.7075 56.0858 17.7127 55.2252C17.7286 54.5018 17.6494 53.8207 17.5702 53.2504C17.4963 52.6274 17.3854 52.1152 17.3062 51.7931C17.227 51.4446 17.1689 51.2281 17.1689 51.2281L17.021 50.642L16.6726 51.1331C16.6726 51.1331 16.3029 51.6453 15.9122 52.3422C15.6271 52.8491 15.1044 53.8418 14.8456 54.7869C14.682 55.3941 14.6239 55.9908 14.6661 56.6138C14.6925 56.9359 14.7453 57.2475 14.8298 57.522C14.6028 57.4006 14.3229 57.2686 13.9955 57.1524C13.4992 56.9729 12.8762 56.8514 12.1528 56.7775C11.8043 56.7458 11.3977 56.7247 10.9225 56.7247C10.3681 56.7247 9.81369 56.7458 9.39128 56.767C8.54646 56.8092 7.9234 56.8514 7.9234 56.8514L7.33203 56.8937L7.74388 57.3214C7.74388 57.3214 7.95509 57.5431 8.32469 57.8388C8.66262 58.1081 9.20119 58.5094 9.83481 58.9001C10.4948 59.2909 11.2499 59.6288 11.9733 59.8558C12.5857 60.0354 13.1877 60.1304 13.7685 60.1304H13.7579Z" fill="#E6AA25"/>
<path d="M9.89045 53.599C10.4132 53.599 10.862 53.4618 11.221 53.1872C11.3847 53.0605 11.4956 52.9285 11.5642 52.8282C11.6857 52.8176 11.8547 52.7859 12.0447 52.7014C12.3563 52.5694 12.8051 52.2632 13.1852 51.5715C13.9192 50.1987 14.0987 48.6041 14.1726 47.5216C14.2096 47.0728 14.2043 46.6715 14.2043 46.3494V46.059C14.2043 45.6789 14.1832 45.4518 14.1832 45.4518L14.1304 44.8763L13.7133 45.2723C13.7133 45.2723 13.2592 45.7 12.7259 46.3019C12.0923 47.0147 11.5326 47.812 11.1946 48.4826C10.8937 49.0687 10.7141 49.6442 10.6455 50.2409C10.6085 50.5577 10.6033 50.8692 10.6297 51.1544C10.3973 50.9537 10.1492 50.7795 9.88517 50.6263C9.40468 50.3465 8.82386 50.0983 8.16385 49.8924C7.37711 49.6495 6.36861 49.4858 5.56075 49.3538L5.45515 49.338C4.62617 49.206 3.99784 49.1268 3.99784 49.1268L3.39062 49.0529L3.73383 49.5598C3.73383 49.5598 3.89752 49.8026 4.18792 50.1723C4.46777 50.5366 4.92186 51.0118 5.46043 51.5134C6.24717 52.2368 7.84176 53.4618 9.65284 53.5885C9.73733 53.5938 9.81653 53.599 9.89573 53.599H9.89045Z" fill="#E6AA25"/>
<path d="M7.07496 46.3809C7.39177 46.3809 7.68746 46.3176 7.95146 46.1856C8.13627 46.0958 8.27355 45.9849 8.35803 45.9057C8.40555 45.9057 8.45835 45.9163 8.51644 45.9163C8.62732 45.9163 8.74348 45.9057 8.85436 45.8793C9.18701 45.8107 9.68862 45.6048 10.1902 44.9976C10.6179 44.4748 10.9981 43.8412 11.3255 43.102C11.4575 42.801 11.5736 42.4842 11.6845 42.1305C11.7901 41.84 11.8851 41.5338 11.9696 41.2223C12.0911 40.7629 12.1756 40.3563 12.2442 40.0237L12.2917 39.7914C12.3656 39.4165 12.3868 39.1947 12.3868 39.1947L12.4448 38.6297L11.9591 38.9307C11.9591 38.9307 11.4363 39.2581 10.7922 39.7438C10.0054 40.3352 9.29789 41.0005 8.85436 41.576C8.23131 42.3628 7.86698 43.2023 7.77194 44.0841C7.37593 43.5878 6.71592 42.9594 5.60181 42.3522C4.84147 41.9509 3.86993 41.576 3.09376 41.2751C2.27534 40.9688 1.66812 40.7682 1.66812 40.7682L1.08203 40.5728L1.32492 41.1431C1.32492 41.1431 1.44108 41.4124 1.65228 41.8348C1.78957 42.1146 2.10109 42.7007 2.62911 43.4082C2.86143 43.7198 3.09904 44.0207 3.33664 44.29C3.62177 44.5963 3.91745 44.8708 4.21842 45.119C4.89956 45.6892 5.60709 46.08 6.31991 46.2753C6.57863 46.3493 6.83208 46.3862 7.06968 46.3862L7.07496 46.3809Z" fill="#E6AA25"/>
<path d="M5.67018 38.7407C5.82858 38.7407 5.99226 38.7196 6.14011 38.6826C6.34075 38.6298 6.49388 38.5506 6.5942 38.4872C6.71036 38.5242 6.87404 38.5612 7.07997 38.5612C7.42846 38.5612 7.96175 38.4556 8.56896 37.9645C9.74115 37.0299 10.5226 35.6941 11.0717 34.6328L11.1509 34.4585C11.3674 33.9939 11.5575 33.5926 11.679 33.2863C11.8162 32.9431 11.8849 32.7266 11.8849 32.7266L12.0486 32.1881L11.5205 32.3834C11.5205 32.3834 10.945 32.5999 10.2216 32.9431C9.55106 33.2652 8.60592 33.7721 7.94591 34.3476C7.44958 34.7753 7.04829 35.2452 6.74732 35.7416C6.5942 36.0161 6.47276 36.296 6.38299 36.5811C6.24571 36.3171 6.08203 36.0531 5.88666 35.7997C5.55401 35.335 5.11577 34.8756 4.59831 34.448C4.0439 33.9991 3.28356 33.4711 2.33842 32.8745C1.62561 32.4257 1.06592 32.1036 1.06592 32.1036L0.527344 31.7921L0.654067 32.3993C0.654067 32.3993 0.712148 32.6844 0.844151 33.1438C0.965593 33.5662 1.1504 34.1998 1.48304 34.8862C1.82625 35.6571 2.81891 37.5527 4.51383 38.4344C4.90456 38.6351 5.29001 38.7354 5.65434 38.7354L5.67018 38.7407Z" fill="#E6AA25"/>
<path d="M7.20646 31.0742C7.58663 31.0742 7.9932 30.9686 8.40505 30.7521C9.02282 30.4459 9.62476 30.0076 10.2003 29.4585C10.7441 28.9305 11.2035 28.4236 11.5362 27.9906L11.7738 27.6738C12.0325 27.3359 12.2543 27.0402 12.4074 26.7973C12.608 26.491 12.7189 26.2957 12.7189 26.2957L12.9882 25.8046L12.4338 25.8891C12.4338 25.8891 11.8266 25.9842 11.0504 26.1742C10.3112 26.359 9.27627 26.6706 8.53705 27.093C7.97208 27.4045 7.48631 27.7847 7.0903 28.2176C6.85269 28.4764 6.68373 28.7351 6.56229 28.9674C6.48837 28.7087 6.38276 28.4183 6.24548 28.112C6.01316 27.5893 5.68051 27.0507 5.24754 26.5174C4.60864 25.736 3.78495 24.9281 3.35198 24.5163C2.73948 23.9355 2.25899 23.5078 2.25899 23.5078L1.78906 23.0959V23.719C1.78906 23.719 1.78906 24.0147 1.8313 24.4846L1.84714 24.6483C1.88938 25.1077 1.94219 25.6779 2.10587 26.3168C2.27483 26.9979 2.50188 27.79 2.88733 28.5186C3.30446 29.3106 3.79551 29.9442 4.34992 30.4036C4.81985 30.7838 5.30562 30.9739 5.79139 30.9739H5.88643C6.09236 30.958 6.25604 30.9158 6.3722 30.8735C6.47781 30.9316 6.63621 31.0003 6.84213 31.0425C6.9583 31.0689 7.08502 31.0795 7.21702 31.0795L7.20646 31.0742Z" fill="#E6AA25"/>
<path d="M8.90517 23.7714C9.15334 23.7714 9.42263 23.7344 9.70247 23.6552C10.3678 23.481 11.0489 23.1694 11.7248 22.7417C12.3478 22.3457 12.9022 21.9392 13.3299 21.5643C13.4936 21.4164 13.6467 21.2844 13.7946 21.1524C14.048 20.9307 14.2698 20.7406 14.4335 20.5716C14.6975 20.3129 14.8453 20.1439 14.8453 20.1439L15.2149 19.711L14.6499 19.6793C14.6499 19.6793 14.4018 19.6687 14.0163 19.6687C13.7946 19.6687 13.5253 19.6687 13.2296 19.6846C12.0944 19.7374 11.202 19.8694 10.5737 20.0806C9.9612 20.2759 9.40679 20.5505 8.93157 20.8937C8.65173 21.0943 8.42996 21.3161 8.261 21.522C8.23988 21.258 8.19236 20.9571 8.12372 20.6191C8.00227 20.0594 7.78051 19.4681 7.4637 18.8556C6.96209 17.9104 6.33904 16.9917 6.01695 16.5218C5.53646 15.8301 5.15629 15.3179 5.15629 15.3179L4.78668 14.8216L4.65996 15.4288C4.65996 15.4288 4.60188 15.7139 4.53852 16.1838L4.51212 16.4109C4.45932 16.8491 4.39595 17.3983 4.43292 18.0319C4.4646 18.7183 4.52796 19.5367 4.76028 20.3393C5.00845 21.1999 5.3675 21.918 5.81631 22.483C6.31792 23.0955 6.84593 23.2909 7.1997 23.3437C7.29474 23.3595 7.37922 23.3648 7.45314 23.3648C7.54818 23.3648 7.62739 23.3595 7.69075 23.349C7.78051 23.4282 7.92307 23.5285 8.11844 23.613C8.35604 23.7133 8.63061 23.7661 8.92101 23.7661L8.90517 23.7714Z" fill="#E6AA25"/>
<path d="M12.1792 16.9707C12.2531 16.9707 12.327 16.9707 12.4062 16.9655C13.0926 16.9232 13.8107 16.7542 14.55 16.4638C15.1572 16.2526 15.7749 15.9781 16.361 15.6454C16.6198 15.5029 16.8574 15.355 17.0633 15.223L17.6071 14.8956C17.9292 14.6897 18.1088 14.5577 18.1088 14.5577L18.5681 14.2092L18.0084 14.0614C18.0084 14.0614 17.4065 13.903 16.6092 13.7763C16.2765 13.7235 15.7802 13.6495 15.2839 13.6179C15.0938 13.6073 14.9037 13.602 14.7189 13.602C14.4391 13.602 14.1803 13.6126 13.948 13.639C12.9078 13.7551 11.9997 14.0878 11.3766 14.5788C11.4664 13.8555 11.4716 12.9737 11.139 11.8173C11.0334 11.4424 10.8803 11.0095 10.6796 10.492C10.5107 10.0485 10.3364 9.62081 10.1727 9.23536C9.84537 8.46446 9.57608 7.88893 9.57608 7.88893L9.31736 7.33452L9.06919 7.89421C9.06919 7.89421 8.95303 8.1635 8.78934 8.60703L8.76822 8.67567C8.6943 8.88159 8.60982 9.12448 8.5359 9.39904C8.45142 9.74753 8.38278 10.0855 8.32997 10.4128C8.18741 11.2576 8.13461 12.0391 8.17157 12.7308C8.25605 13.639 8.47254 14.4204 8.80518 15.0593C9.10087 15.619 9.49688 15.9939 9.98265 16.1734C10.178 16.2474 10.347 16.2685 10.4684 16.2738C10.5423 16.3688 10.6585 16.4955 10.8327 16.6117C11.0756 16.7806 11.5033 16.9813 12.1686 16.9813L12.1792 16.9707Z" fill="#E6AA25"/>
<path d="M17.2767 11.004C17.6938 11.004 18.1321 10.967 18.5862 10.8878C19.167 10.7875 19.9115 10.645 20.524 10.4496C20.8672 10.3493 21.1681 10.2331 21.4321 10.1328C21.5958 10.0694 21.749 10.0113 21.8862 9.9691C22.2506 9.8371 22.4565 9.73677 22.4565 9.73677L22.9845 9.48861L22.467 9.22988C22.467 9.22988 21.9074 8.95532 21.1523 8.66491C20.2916 8.3217 19.3518 8.07882 18.5809 7.99961C18.3591 7.97849 18.1374 7.96793 17.9261 7.96793C17.5143 7.96793 17.113 8.01018 16.7381 8.09466C16.4002 8.16858 16.1151 8.28474 15.8775 8.41146C15.9567 8.1633 16.0306 7.86761 16.0992 7.52441C16.2101 6.96471 16.2418 6.33638 16.1943 5.65524C16.1467 4.94243 15.9883 4.10289 15.8458 3.35839L15.7666 2.92542C15.6029 2.10173 15.4551 1.48395 15.4551 1.48395L15.3125 0.892578L14.9534 1.38891C14.9534 1.38891 14.7845 1.62651 14.5363 2.0278C14.304 2.38157 14.0294 2.94654 13.7232 3.7016C13.4592 4.39858 13.1952 5.13779 13.1054 5.96149C12.9998 6.85383 13.0473 7.65641 13.248 8.35338C13.4222 8.9606 13.7337 9.40941 14.1773 9.68397C14.3568 9.79485 14.5205 9.85294 14.6366 9.88462C14.6894 9.9955 14.7792 10.1381 14.9218 10.2912C15.1541 10.5341 15.5976 10.8509 16.3844 10.9618C16.6748 11.004 16.9757 11.0251 17.2873 11.0251L17.2767 11.004Z" fill="#E6AA25"/>
<path d="M19.4082 5.57612C20.0735 5.57612 21.404 5.35436 22.835 3.88649C23.9966 2.69318 25.1793 0.602253 25.2268 0.512491L25.5173 0.000320435L24.9364 0.100643C24.7728 0.127044 20.9341 0.829299 19.1178 3.22647C18.199 4.44618 18.727 5.36492 18.7481 5.40188L18.8062 5.5022L18.9171 5.5286C18.9171 5.5286 19.1125 5.57612 19.3976 5.57612H19.4082Z" fill="#E6AA25"/>
<path d="M129.812 10.1714H127.413V12.1989H129.812V10.1714ZM123.257 10.1714V11.2021C123.257 14.1082 123.071 17.9099 119.894 20.4106L119.691 20.2754C121.246 17.6058 121.33 14.2434 121.33 11.2189V5.93038L123.561 6.85968H127.16V4.57867L129.711 4.78143C129.694 5.01798 129.559 5.18694 129.103 5.25453V6.85968H132.634L133.682 5.44039C133.682 5.44039 134.847 6.40348 135.557 7.06244C135.506 7.2483 135.321 7.33278 135.084 7.33278H123.257V9.68138H125.571V7.82278L127.988 8.04243C127.954 8.24519 127.835 8.38036 127.413 8.44794V9.68138H129.812V7.82278L132.279 8.04243C132.262 8.24519 132.144 8.38036 131.739 8.43105V9.68138H132.921L133.884 8.39725C133.884 8.39725 134.932 9.29276 135.574 9.90103C135.523 10.0869 135.354 10.1714 135.101 10.1714H131.739V13.0944C131.739 13.2634 130.877 13.6182 130.133 13.6182H129.812V12.672H127.413V13.2296C127.413 13.3817 126.585 13.7534 125.892 13.7534H125.571V10.1714H123.257ZM130.64 14.8517H125.943C126.619 15.8148 127.565 16.5075 128.714 17.0313C129.491 16.3892 130.15 15.6627 130.64 14.8517ZM131.84 13.4831L133.563 14.9699C133.445 15.1389 133.259 15.1896 132.82 15.2234C132.161 16.1527 131.35 16.9468 130.387 17.6396C131.992 18.0789 133.834 18.2816 135.743 18.3661L135.726 18.5689C134.898 18.8223 134.391 19.4813 134.205 20.4613C132.026 20.1064 130.184 19.5489 128.714 18.6196C126.788 19.5658 124.456 20.174 121.77 20.4444L121.685 20.1909C123.966 19.6671 126.011 18.873 127.65 17.8085C126.788 17.0482 126.095 16.0682 125.588 14.8517H123.679L123.527 14.3786H130.674L131.84 13.4831Z" fill="#1B3A57"/>
<path d="M106.579 10.1714H113.304V6.38659H106.579V10.1714ZM110.989 14.4631V18.1127C111.766 18.1972 112.645 18.2309 113.642 18.2309C114.588 18.2309 116.801 18.2309 117.866 18.2141V18.4168C117.224 18.5689 116.903 19.2616 116.886 20.0558H113.54C109.654 20.0558 107.559 19.2785 106.343 16.0344C105.616 17.7578 104.383 19.363 102.237 20.4444L102.102 20.2754C104.264 18.2478 104.957 15.1727 105.075 12.672L107.745 13.1113C107.677 13.3479 107.492 13.5 107.086 13.5169C106.951 14.1927 106.782 14.8855 106.528 15.5613C107.137 16.6258 107.914 17.2679 108.961 17.6734V10.6445H106.579V11.3203C106.579 11.5231 105.7 11.9455 104.889 11.9455H104.585V5.06867L106.697 5.8966H113.135L114.064 4.88281L116.007 6.36969C115.906 6.50486 115.669 6.64003 115.331 6.70762V11.1345C115.315 11.2696 114.335 11.6921 113.642 11.6921H113.304V10.6445H110.989V13.99H113.49L114.639 12.5538C114.639 12.5538 115.973 13.5169 116.751 14.1927C116.717 14.3786 116.514 14.4631 116.261 14.4631H110.989Z" fill="#1B3A57"/>
<path d="M85.1712 4.88282L85.3064 4.78144C89.8853 5.13627 88.5167 8.49864 86.7426 7.41728C86.4891 6.52177 85.7795 5.50799 85.1712 4.88282ZM84.0898 8.76899L84.2419 8.66761C88.5336 9.20829 86.9622 12.4017 85.3402 11.2021C85.2219 10.3235 84.6474 9.37726 84.0898 8.76899ZM88.5505 8.11003L88.8377 8.17761C88.3308 10.07 87.4015 13.6013 87.2157 14.4462C87.0974 14.9869 87.0129 15.5782 87.0298 16.0006C87.0636 16.913 87.7564 17.5213 87.7057 19.0589C87.6719 19.9206 87.0974 20.4613 86.3033 20.4613C85.9147 20.4613 85.5429 20.2247 85.4078 19.5996C85.7457 17.8254 85.6612 16.2034 85.2726 15.9499C85.0529 15.781 84.7657 15.7134 84.4109 15.6796V15.3586H85.1543C85.3909 15.3586 85.4753 15.3417 85.6443 15.0037C85.9653 14.4124 85.9653 14.4124 88.5505 8.11003ZM93.0956 7.68762V9.86725H95.0049V7.68762H93.0956ZM98.4011 11.0669L100.226 12.4524C100.108 12.5876 99.8542 12.7396 99.4655 12.8241V18.3661C99.4655 19.5489 99.1952 20.2585 97.1507 20.4444C97.1 19.9037 96.9987 19.4813 96.7452 19.2109C96.458 18.9406 96.0863 18.7547 95.2583 18.6027V18.3661C95.2583 18.3661 97.0494 18.4844 97.4042 18.4844C97.6745 18.4844 97.759 18.383 97.759 18.1465V12.5031H94.8021V16.5413H95.6977V13.3817L97.2859 13.5507C97.2521 13.7027 97.1507 13.8041 96.9142 13.8548V17.4706C96.9142 17.6058 96.3566 17.8592 95.9342 17.8592H95.6977V17.0144H92.3691V17.9606C92.3691 18.0789 91.8791 18.2816 91.4905 18.2816H91.2539V13.3817L92.7408 13.5507C92.707 13.6858 92.6225 13.8041 92.3691 13.8548V16.5413H93.3153V12.5031H90.4936V19.8699C90.4936 20.0558 89.8008 20.4444 89.1081 20.4444H88.8377V11.2697L90.6118 12.0131H93.1463V10.3572H88.7026L88.5674 9.86725H91.2539V7.68762H88.9391L88.8039 7.21452H91.2539V4.74765L93.7208 4.95041C93.687 5.20385 93.5518 5.37282 93.0956 5.4404V7.21452H95.0049V4.74765L97.4887 4.9673C97.4549 5.20385 97.3197 5.37282 96.8635 5.4404V7.21452H97.3704L98.2997 5.94729C98.2997 5.94729 99.3473 6.80901 99.9724 7.41728C99.9217 7.60314 99.7528 7.68762 99.5162 7.68762H96.8635V9.86725H97.4211L98.418 8.54933C98.418 8.54933 99.5162 9.46174 100.175 10.0869C100.125 10.2728 99.9555 10.3572 99.719 10.3572H94.9711V12.0131H97.59L98.4011 11.0669Z" fill="#1B3A57"/>
<path d="M79.6155 7.13004H69.3256C69.4101 8.36347 68.9708 9.24208 68.3963 9.6307C67.8725 10.0362 67.0615 9.93483 66.808 9.32657C66.5884 8.75209 66.9263 8.29589 67.4163 8.00865C68.0415 7.63693 68.7511 6.67384 68.7511 5.62626H68.9877C69.1228 5.99798 69.2073 6.33591 69.258 6.65694H73.3807V4.59558L76.0504 4.79834C76.0335 5.03489 75.8983 5.20385 75.4421 5.27144V6.65694H79.531L80.5448 5.64316L82.2851 7.3159C82.1499 7.45107 81.9641 7.50176 81.6262 7.51865C81.0348 8.09313 80.0041 8.83657 79.21 9.27588L79.041 9.1576C79.2438 8.60002 79.4803 7.7721 79.6155 7.13004ZM71.9276 18.7041H77.0303V15.6796H71.9276V18.7041ZM76.8783 15.1896L77.1824 14.8686C76.2531 14.4631 75.4083 13.9731 74.6311 13.4155C73.6849 14.0069 72.6711 14.5138 71.5559 14.97L72.1473 15.1896H76.8783ZM76.1686 9.6476H72.9414C72.7218 9.86725 72.5021 10.07 72.2825 10.2897C72.84 10.8641 73.5159 11.371 74.2931 11.8103C75.0366 11.1345 75.6617 10.4079 76.1686 9.6476ZM77.3852 8.16072L79.1086 9.76587C78.9565 9.93483 78.7876 9.98552 78.3314 10.0193C77.6386 10.9486 76.8107 11.8103 75.8307 12.5538C77.8245 13.3817 80.1393 13.8717 82.3527 14.1251L82.3189 14.3448C81.5079 14.5138 81.001 15.1389 80.7813 16.0682C80.342 15.9668 79.9196 15.8486 79.4803 15.7134C79.3789 15.7979 79.2269 15.8824 79.0072 15.9162V19.9037C78.9903 20.022 78.0103 20.3768 77.3683 20.3768H77.0303V19.1772H71.9276V19.8699C71.9276 20.0051 71.3363 20.4444 70.3394 20.4444H70.0015V15.5106C68.937 15.8486 67.8049 16.1189 66.6222 16.3217L66.5039 16.0682C69.1397 15.2572 71.5897 14.0238 73.5159 12.4862C72.9076 11.9286 72.3838 11.2865 71.9445 10.5938C70.6942 11.6752 69.1566 12.6552 67.4332 13.2972L67.298 13.1282C69.5284 11.6076 71.4039 9.1576 72.2149 7.33279L74.8676 7.97486C74.8169 8.17761 74.5973 8.29589 74.0904 8.31278C73.8707 8.58312 73.6511 8.87036 73.3976 9.1576H76.2362L77.3852 8.16072Z" fill="#1B3A57"/>
<path d="M61.027 17.0144L61.1791 16.8961C66.1128 17.8085 64.8625 21.2892 63.0546 20.1909C62.7505 19.1096 61.8043 17.8254 61.027 17.0144ZM62.0577 8.85346H59.4895V10.8472H62.0577V8.85346ZM59.4895 15.8992H62.0577V13.8379H59.4895V15.8992ZM59.4895 11.3372V13.3479H62.0577V11.3372H59.4895ZM52.9506 17.2003V18.6534H53.9474V17.2003H52.9506ZM53.9474 13.5338H52.9506V14.8686H53.9474V13.5338ZM53.9474 16.7272V15.3417H52.9506V16.7272H53.9474ZM54.8261 8.39726H51.4299V10.1714H54.8261V8.39726ZM61.8887 5.94729L62.9025 4.61247C62.9025 4.61247 64.0346 5.54177 64.7273 6.16694C64.6935 6.3528 64.5077 6.43728 64.2542 6.43728H61.8043C61.3819 7.07934 60.8412 7.83968 60.3681 8.38036H61.9056L62.7336 7.51865L64.3725 8.76898C64.288 8.88725 64.0684 9.00553 63.798 9.07311V16.4906C63.7811 16.6258 62.9532 16.9637 62.3449 16.9637H62.0577V16.3892H59.4895V16.6596C59.4895 16.7272 59.3543 16.8623 59.1346 16.9637L60.8919 17.8761C60.8074 18.0113 60.6215 18.062 60.3343 17.9944C59.4726 18.9744 57.6647 19.9882 56.0426 20.4444L55.9074 20.2247C56.3298 19.9206 56.7522 19.5489 57.1578 19.1434H52.9506V19.7178C52.9506 19.8192 52.4944 20.174 51.7509 20.174H51.4806V15.1727C51.3454 15.291 51.2102 15.4093 51.0751 15.5275C50.7371 17.1496 50.112 18.7716 48.8954 20.0895L48.6758 19.9375C49.774 17.2003 49.8078 13.8379 49.8078 11.05V7.21451L51.7002 7.92416H54.674L55.4512 7.07934L57.1747 8.34657C57.0733 8.44795 56.8536 8.58312 56.5495 8.63381V10.7796C56.5326 10.8979 55.654 11.1852 55.1302 11.1852H54.8261V10.6445H51.4299V11.0331C51.4299 11.9793 51.413 13.1113 51.2778 14.2941C51.6495 13.3479 51.9706 12.2158 52.1733 11.0838L54.2009 11.7427C54.1333 11.9286 53.9306 12.0807 53.5757 12.0638C53.4406 12.3848 53.2716 12.7058 53.1026 13.01L53.1702 13.0438H54.1164C54.2516 12.4862 54.4037 11.7596 54.4881 11.219L56.3298 11.7765C56.2623 11.9793 56.0426 12.1145 55.6878 12.0976C55.4174 12.3848 55.0288 12.7227 54.674 13.0438H55.5526L56.2285 12.2327C56.2285 12.2327 56.9888 12.8072 57.4619 13.2634C57.4112 13.4493 57.2591 13.5338 57.0395 13.5338H55.333V14.8686H55.6878L56.2791 14.0913C56.2791 14.0913 56.9381 14.6489 57.3267 15.0713C57.2929 15.2572 57.1409 15.3417 56.9043 15.3417H55.333V16.7272H55.7385L56.3298 15.933C56.3298 15.933 57.0057 16.5244 57.4112 16.9299C57.3774 17.1158 57.2253 17.2003 57.0057 17.2003H55.333V18.6534H55.7385L56.465 17.7579C56.465 17.7579 57.0902 18.2478 57.5802 18.6872C58.0195 18.1803 58.4081 17.6396 58.6784 17.1327C58.4757 17.1834 58.2729 17.2172 58.0533 17.2172H57.7829V7.63692L59.557 8.38036H59.7598C59.8274 7.80589 59.8612 7.02865 59.8612 6.43728H57.3267C57.2422 6.50487 57.1071 6.53866 56.955 6.53866H49.0982L48.963 6.04866H54.5726L55.5695 4.78144C55.5695 4.78144 56.3805 5.38971 57.0564 5.94729H61.8887Z" fill="#1B3A57"/>
<path d="M101.587 43.7696C108.003 46.6156 110.694 49.9272 110.694 54.8948C110.694 61.5182 105.312 65.7613 96.8777 65.7613C88.8572 65.7613 83.9414 62.1391 83.9414 56.1884C83.9414 53.1872 85.2868 50.4964 87.7705 48.5819C89.0124 47.5987 90.2026 47.0295 92.4276 46.1498C86.9944 43.3039 85.0281 40.8201 85.0281 36.577C85.0281 30.2641 89.8921 26.1762 97.4986 26.1762C104.536 26.1762 109.245 29.8501 109.245 35.2316C109.245 39.3195 106.606 42.269 101.587 43.7696ZM100.034 43.0969C101.431 42.3207 102 41.9067 102.725 40.9236C103.812 39.423 104.329 37.6636 104.329 35.2834C104.329 33.6275 103.863 31.8164 103.139 30.5746C101.949 28.66 99.8789 27.5733 97.2399 27.5733C93.152 27.5733 90.6165 30.1089 90.6165 34.0932C90.6165 36.6805 91.7549 38.5433 94.3939 40.3026C95.1701 40.7684 96.1533 41.3376 97.7574 42.062C98.3266 42.3207 100.034 43.0969 100.034 43.0969ZM94.0835 46.9778C92.5311 47.8057 91.8067 48.3749 91.0305 49.3063C89.7369 50.8069 89.0124 53.0837 89.0124 55.5675C89.0124 60.8972 92.3241 64.4159 97.2399 64.4159C101.742 64.4159 104.846 61.3629 104.846 56.9646C104.846 54.3773 103.76 52.5145 101.173 50.6517C100.138 49.8755 98.4818 48.9958 96.412 48.0127C95.7393 47.7022 94.1352 46.9778 94.0835 46.9778Z" fill="#1B3A57"/>
<path d="M76.0635 47.8057C73.321 50.393 71.0442 51.3761 67.6808 51.3761C60.7987 51.3761 56.0898 46.5121 56.0898 39.3712C56.0898 31.4542 61.4196 26.1762 69.4401 26.1762C73.9419 26.1762 77.5641 27.9356 79.7374 31.2473C82.0142 34.6107 82.9973 38.7503 82.9973 44.6492C82.9973 58.4134 77.9263 65.7613 68.4052 65.7613C62.0923 65.7613 57.3835 62.967 57.3835 59.1896C57.3835 57.1716 58.7806 55.9814 61.1091 55.9814C62.4028 55.9814 63.4894 56.3436 63.9551 56.9646C64.2656 57.4303 64.2656 57.5338 64.4208 59.7588C64.6278 62.8118 66.0767 64.4676 68.5604 64.4676C71.6651 64.4676 73.8902 62.0874 74.9768 57.6373C75.6495 54.8948 76.0635 51.1174 76.0635 47.8057ZM69.3883 49.6685C71.6134 49.6685 73.8384 48.2714 75.1321 46.0464C75.8565 44.7527 76.167 43.2004 76.167 40.8201C76.167 37.3532 75.546 33.938 74.5111 31.4025C73.4762 28.9705 71.5099 27.4699 69.2849 27.4699C65.3522 27.4699 62.9719 31.8682 62.9719 39.216C62.9719 42.7864 63.6446 45.4254 64.99 47.2882C66.1284 48.8406 67.6808 49.6685 69.3883 49.6685Z" fill="#1B3A57"/>
<path d="M115.334 56.7893C115.334 59.3913 115.875 60.1855 116.568 60.1855C117.277 60.1855 117.784 59.3913 117.784 56.7893C117.784 54.1535 117.26 53.3424 116.568 53.3424C115.892 53.3424 115.334 54.1535 115.334 56.7893ZM124.239 61.8075C124.239 64.4096 124.779 65.2037 125.472 65.2037C126.182 65.2037 126.689 64.4096 126.689 61.8075C126.689 59.1886 126.182 58.3775 125.472 58.3775C124.796 58.3775 124.239 59.1886 124.239 61.8075ZM125.472 57.9382C126.942 57.9382 128.328 59.121 128.328 61.8075C128.328 64.494 126.942 65.6261 125.472 65.6261C124.053 65.6261 122.6 64.494 122.6 61.8075C122.6 59.121 124.053 57.9382 125.472 57.9382ZM116.568 52.9031C118.038 52.9031 119.423 54.0859 119.423 56.7893C119.423 59.4758 118.038 60.6248 116.568 60.6248C115.148 60.6248 113.695 59.4758 113.695 56.7893C113.695 54.0859 115.148 52.9031 116.568 52.9031ZM117.159 65.7613L116.483 65.3389L125.134 52.9369L125.827 53.3762L117.159 65.7613Z" fill="#1B3A57"/>
</g>
<defs>
<clipPath id="clip0_37_2795">
<rect width="184.425" height="70.4316" fill="white"/>
</clipPath>
</defs>
</svg>
