<svg width="23" height="22" viewBox="0 0 23 22" fill="none" xmlns="http://www.w3.org/2000/svg">
<path d="M15.0586 6.76837C15.0586 6.54387 15.1478 6.32856 15.3065 6.16981C15.4653 6.01106 15.6806 5.92187 15.9051 5.92188C16.1296 5.92187 16.3449 6.01106 16.5037 6.16981C16.6624 6.32856 16.7516 6.54387 16.7516 6.76837C16.7516 6.99287 16.6624 7.20818 16.5037 7.36693C16.3449 7.52568 16.1296 7.61486 15.9051 7.61486C15.6806 7.61486 15.4653 7.52568 15.3065 7.36693C15.1478 7.20818 15.0586 6.99287 15.0586 6.76837Z" fill="white"/>
<path fill-rule="evenodd" clip-rule="evenodd" d="M11.6732 6.97852C10.6068 6.97852 9.58408 7.40214 8.83002 8.1562C8.07597 8.91025 7.65234 9.93297 7.65234 10.9994C7.65234 12.0658 8.07597 13.0885 8.83002 13.8425C9.58408 14.5966 10.6068 15.0202 11.6732 15.0202C12.7396 15.0202 13.7623 14.5966 14.5164 13.8425C15.2704 13.0885 15.694 12.0658 15.694 10.9994C15.694 9.93297 15.2704 8.91025 14.5164 8.1562C13.7623 7.40214 12.7396 6.97852 11.6732 6.97852ZM8.92209 10.9994C8.92209 10.2697 9.21193 9.56997 9.72787 9.05404C10.2438 8.53811 10.9436 8.24826 11.6732 8.24826C12.4028 8.24826 13.1026 8.53811 13.6185 9.05404C14.1345 9.56997 14.4243 10.2697 14.4243 10.9994C14.4243 11.729 14.1345 12.4288 13.6185 12.9447C13.1026 13.4606 12.4028 13.7505 11.6732 13.7505C10.9436 13.7505 10.2438 13.4606 9.72787 12.9447C9.21193 12.4288 8.92209 11.729 8.92209 10.9994Z" fill="white"/>
<path fill-rule="evenodd" clip-rule="evenodd" d="M16.1246 3.2402C13.1664 2.91212 10.1811 2.91212 7.22288 3.2402C5.51974 3.43066 4.14418 4.77236 3.94441 6.48397C3.59405 9.48447 3.59405 12.5156 3.94441 15.5161C4.14418 17.2277 5.51889 18.5694 7.22288 18.7598C10.1811 19.0872 13.1664 19.0872 16.1246 18.7598C17.8278 18.5694 19.2033 17.2277 19.4031 15.5161C19.7535 12.5156 19.7535 9.48447 19.4031 6.48397C19.2033 4.77236 17.8286 3.43066 16.1246 3.2402ZM7.3634 4.50148C10.2282 4.1838 13.1193 4.1838 15.9841 4.50148C17.1099 4.62845 18.0115 5.51643 18.1427 6.63211C18.4822 9.53415 18.4822 12.4659 18.1427 15.3679C18.0748 15.914 17.8248 16.4212 17.4332 16.8076C17.0415 17.1941 16.531 17.4372 15.9841 17.4977C13.1193 17.8154 10.2282 17.8154 7.3634 17.4977C6.81652 17.4372 6.306 17.1941 5.91433 16.8076C5.52266 16.4212 5.27271 15.914 5.20484 15.3679C4.86527 12.4659 4.86527 9.53415 5.20484 6.63211C5.27271 6.08608 5.52266 5.57888 5.91433 5.19243C6.306 4.80598 6.81652 4.56201 7.3634 4.50148Z" fill="white"/>
</svg>
