<svg width="30" height="71" viewBox="0 0 30 71" fill="none" xmlns="http://www.w3.org/2000/svg">
<path d="M24.126 70.416C24.4534 70.416 24.7702 70.4002 25.0606 70.3632C25.953 70.2471 26.7186 70.0042 27.3416 69.6451C28.0228 69.2544 28.2973 68.7581 28.4029 68.4149C28.4663 68.2142 28.4821 68.0452 28.4821 67.9291C28.5772 67.8499 28.6933 67.7284 28.8042 67.5489C29.063 67.1371 29.158 66.6038 29.0946 65.9754C29.0207 65.289 28.8253 64.5709 28.5033 63.837C28.234 63.1928 27.9172 62.5856 27.5898 62.0734C27.2624 61.5507 26.9984 61.1283 26.7767 60.8432C26.5602 60.5475 26.4123 60.3785 26.4123 60.3785L26.0427 59.9614L25.9266 60.5105C25.9266 60.5105 25.7998 61.1125 25.7154 61.9045C25.6362 62.649 25.5622 63.7156 25.6995 64.5762C25.8949 65.8382 26.3701 66.6302 26.7661 67.0895C26.6024 67.0737 26.4335 67.0684 26.2698 67.0684C25.5464 67.0684 24.8072 67.2004 24.0099 67.4644C23.3182 67.6968 22.4681 68.0611 21.4754 68.5416C20.7151 68.9112 20.1501 69.2122 20.1501 69.2122L19.5957 69.5078L20.1818 69.7243C20.1818 69.7243 20.4564 69.8246 20.9157 69.9567L21.0002 69.9778C21.4385 70.0939 22.0404 70.2576 22.7268 70.3421C23.2601 70.4002 23.7036 70.4319 24.126 70.4319V70.416Z" fill="#E6AA25"/>
<path d="M18.6348 65.7959C19.3001 65.7959 19.9073 65.7062 20.4406 65.5266C21.1851 65.2785 21.5547 64.8508 21.729 64.534C21.8293 64.3545 21.8768 64.1908 21.9032 64.0693C22.0088 64.0112 22.1514 63.9162 22.2992 63.7631C22.6319 63.4093 22.8378 62.913 22.9011 62.2794C22.9698 61.593 22.917 60.8485 22.7533 60.0723C22.6319 59.4281 22.4471 58.7681 22.2147 58.1609C22.0299 57.6276 21.8346 57.1418 21.6709 56.7933L21.1429 55.7162L20.7521 56.6613C20.6571 56.8989 20.5357 57.2316 20.4142 57.6117C20.2294 58.1767 19.9126 59.275 19.8545 60.2254C19.7964 61.5085 20.1027 62.3744 20.3931 62.9024C19.9548 62.7704 19.3687 62.6543 18.6137 62.6543C18.2969 62.6543 17.959 62.6754 17.6158 62.7176C16.7181 62.8179 15.6463 63.0767 14.9176 63.2615L13.8933 63.536L12.8848 63.8159L13.5817 64.2594C13.7085 64.3333 13.8774 64.4231 14.0834 64.534C14.548 64.7716 15.113 65.0409 15.773 65.2732C16.6231 65.5478 17.3676 65.7167 18.0593 65.7801C18.2599 65.7959 18.45 65.8012 18.6401 65.8012L18.6348 65.7959Z" fill="#E6AA25"/>
<path d="M13.9142 60.1303C14.1148 60.1303 14.3155 60.1197 14.5108 60.0933C15.1392 60.0141 15.6302 59.7765 15.9681 59.3858C16.1054 59.2274 16.1846 59.0743 16.2374 58.9634C16.3536 58.9264 16.512 58.8631 16.681 58.7469C16.9608 58.5568 17.341 58.1661 17.5733 57.411C17.7687 56.7827 17.8637 56.0857 17.869 55.2251C17.8848 54.5017 17.8056 53.8206 17.7264 53.2503C17.6525 52.6273 17.5416 52.1151 17.4624 51.793C17.3832 51.4445 17.3251 51.228 17.3251 51.228L17.1773 50.6419L16.8288 51.133C16.8288 51.133 16.4592 51.6452 16.0685 52.3421C15.7833 52.849 15.2606 53.8417 15.0019 54.7868C14.8382 55.394 14.7801 55.9907 14.8224 56.6138C14.8488 56.9358 14.9016 57.2474 14.986 57.5219C14.759 57.4005 14.4792 57.2685 14.1518 57.1523C13.6555 56.9728 13.0324 56.8514 12.309 56.7774C11.9605 56.7458 11.554 56.7246 11.0788 56.7246C10.5243 56.7246 9.96994 56.7458 9.54753 56.7669C8.70271 56.8091 8.07965 56.8514 8.07965 56.8514L7.48828 56.8936L7.90013 57.3213C7.90013 57.3213 8.11134 57.543 8.48094 57.8387C8.81887 58.108 9.35744 58.5093 9.99106 58.9C10.6511 59.2908 11.4061 59.6287 12.1295 59.8557C12.742 60.0353 13.3439 60.1303 13.9247 60.1303H13.9142Z" fill="#E6AA25"/>
<path d="M10.0428 53.5989C10.5655 53.5989 11.0143 53.4617 11.3734 53.1871C11.5371 53.0604 11.6479 52.9284 11.7166 52.828C11.838 52.8175 12.007 52.7858 12.1971 52.7013C12.5086 52.5693 12.9574 52.2631 13.3376 51.5714C14.0715 50.1985 14.251 48.604 14.325 47.5215C14.3619 47.0727 14.3566 46.6714 14.3566 46.3493V46.0589C14.3566 45.6788 14.3355 45.4517 14.3355 45.4517L14.2827 44.8762L13.8656 45.2722C13.8656 45.2722 13.4115 45.6999 12.8782 46.3018C12.2446 47.0146 11.6849 47.8119 11.347 48.4825C11.046 49.0686 10.8665 49.6441 10.7978 50.2408C10.7609 50.5576 10.7556 50.8691 10.782 51.1542C10.5497 50.9536 10.3015 50.7794 10.0375 50.6262C9.55702 50.3464 8.97621 50.0982 8.31619 49.8923C7.52946 49.6494 6.52095 49.4857 5.7131 49.3537L5.60749 49.3379C4.77852 49.2059 4.15018 49.1267 4.15018 49.1267L3.54297 49.0528L3.88618 49.5597C3.88618 49.5597 4.04986 49.8025 4.34027 50.1721C4.62011 50.5365 5.0742 51.0117 5.61277 51.5133C6.39951 52.2367 7.99411 53.4617 9.80519 53.5884C9.88967 53.5937 9.96887 53.5989 10.0481 53.5989H10.0428Z" fill="#E6AA25"/>
<path d="M7.22926 46.3808C7.54607 46.3808 7.84175 46.3175 8.10576 46.1855C8.29056 46.0957 8.42785 45.9848 8.51233 45.9056C8.55985 45.9056 8.61265 45.9162 8.67073 45.9162C8.78161 45.9162 8.89778 45.9056 9.00866 45.8792C9.34131 45.8106 9.84292 45.6047 10.3445 44.9974C10.7722 44.4747 11.1524 43.8411 11.4798 43.1019C11.6118 42.8009 11.7279 42.4841 11.8388 42.1303C11.9444 41.8399 12.0394 41.5337 12.1239 41.2222C12.2454 40.7628 12.3299 40.3562 12.3985 40.0236L12.446 39.7913C12.5199 39.4164 12.5411 39.1946 12.5411 39.1946L12.5991 38.6296L12.1134 38.9306C12.1134 38.9306 11.5906 39.258 10.9465 39.7437C10.1597 40.3351 9.45219 41.0004 9.00866 41.5759C8.38561 42.3627 8.02128 43.2022 7.92624 44.084C7.53023 43.5877 6.87021 42.9593 5.75611 42.3521C4.99577 41.9508 4.02423 41.5759 3.24805 41.275C2.42963 40.9687 1.82242 40.7681 1.82242 40.7681L1.23633 40.5727L1.47921 41.143C1.47921 41.143 1.59538 41.4122 1.80658 41.8347C1.94386 42.1145 2.25539 42.7006 2.7834 43.4081C3.01573 43.7197 3.25333 44.0206 3.49094 44.2899C3.77606 44.5962 4.07175 44.8707 4.37272 45.1189C5.05385 45.6891 5.76139 46.0799 6.4742 46.2752C6.73293 46.3492 6.98638 46.3861 7.22398 46.3861L7.22926 46.3808Z" fill="#E6AA25"/>
<path d="M5.82447 38.7406C5.98288 38.7406 6.14656 38.7195 6.2944 38.6825C6.49505 38.6297 6.64817 38.5505 6.74849 38.4871C6.86466 38.5241 7.02834 38.5611 7.23427 38.5611C7.58275 38.5611 8.11604 38.4555 8.72326 37.9644C9.89544 37.0298 10.6769 35.694 11.226 34.6326L11.3052 34.4584C11.5217 33.9938 11.7118 33.5925 11.8332 33.2862C11.9705 32.943 12.0392 32.7265 12.0392 32.7265L12.2029 32.188L11.6748 32.3833C11.6748 32.3833 11.0993 32.5998 10.3759 32.943C9.70536 33.2651 8.76022 33.772 8.1002 34.3475C7.60387 34.7752 7.20258 35.2451 6.90162 35.7415C6.74849 36.016 6.62705 36.2959 6.53729 36.581C6.40001 36.317 6.23632 36.053 6.04096 35.7996C5.70831 35.3349 5.27006 34.8755 4.75261 34.4478C4.1982 33.999 3.43786 33.471 2.49272 32.8744C1.7799 32.4256 1.22021 32.1035 1.22021 32.1035L0.681641 31.7919L0.808363 32.3992C0.808363 32.3992 0.866445 32.6843 0.998448 33.1437C1.11989 33.5661 1.30469 34.1997 1.63734 34.8861C1.98055 35.657 2.97321 37.5526 4.66813 38.4343C5.05886 38.635 5.44431 38.7353 5.80863 38.7353L5.82447 38.7406Z" fill="#E6AA25"/>
<path d="M7.36076 31.0741C7.74093 31.0741 8.1475 30.9685 8.55935 30.752C9.17712 30.4457 9.77905 30.0075 10.3546 29.4584C10.8984 28.9304 11.3578 28.4235 11.6905 27.9905L11.9281 27.6737C12.1868 27.3358 12.4086 27.0401 12.5617 26.7972C12.7623 26.4909 12.8732 26.2956 12.8732 26.2956L13.1425 25.8045L12.5881 25.889C12.5881 25.889 11.9809 25.9841 11.2047 26.1741C10.4655 26.3589 9.43057 26.6705 8.69135 27.0929C8.12638 27.4044 7.64061 27.7846 7.2446 28.2175C7.00699 28.4763 6.83803 28.735 6.71658 28.9673C6.64266 28.7086 6.53706 28.4182 6.39978 28.1119C6.16745 27.5892 5.83481 27.0506 5.40184 26.5173C4.76294 25.7359 3.93924 24.928 3.50627 24.5162C2.89378 23.9354 2.41329 23.5077 2.41329 23.5077L1.94336 23.0958V23.7189C1.94336 23.7189 1.94336 24.0146 1.9856 24.4845L2.00144 24.6482C2.04368 25.1076 2.09648 25.6778 2.26017 26.3167C2.42913 26.9978 2.65618 27.7898 3.04162 28.5185C3.45875 29.3105 3.9498 29.9441 4.50422 30.4035C4.97415 30.7837 5.45992 30.9738 5.94569 30.9738H6.04073C6.24665 30.9579 6.41034 30.9157 6.5265 30.8734C6.6321 30.9315 6.79051 31.0002 6.99643 31.0424C7.11259 31.0688 7.23932 31.0794 7.37132 31.0794L7.36076 31.0741Z" fill="#E6AA25"/>
<path d="M9.06142 23.7713C9.30959 23.7713 9.57888 23.7343 9.85872 23.6551C10.524 23.4808 11.2052 23.1693 11.881 22.7416C12.5041 22.3456 13.0585 21.9391 13.4862 21.5642C13.6498 21.4163 13.803 21.2843 13.9508 21.1523C14.2043 20.9306 14.426 20.7405 14.5897 20.5715C14.8537 20.3128 15.0016 20.1438 15.0016 20.1438L15.3712 19.7108L14.8062 19.6792C14.8062 19.6792 14.558 19.6686 14.1726 19.6686C13.9508 19.6686 13.6815 19.6686 13.3858 19.6844C12.2506 19.7372 11.3583 19.8693 10.7299 20.0805C10.1174 20.2758 9.56304 20.5504 9.08782 20.8936C8.80798 21.0942 8.58621 21.316 8.41725 21.5219C8.39613 21.2579 8.34861 20.957 8.27997 20.619C8.15852 20.0593 7.93676 19.468 7.61995 18.8555C7.11834 17.9103 6.49529 16.9916 6.1732 16.5217C5.69271 15.83 5.31254 15.3178 5.31254 15.3178L4.94293 14.8215L4.81621 15.4287C4.81621 15.4287 4.75813 15.7138 4.69477 16.1837L4.66837 16.4108C4.61557 16.849 4.5522 17.3982 4.58917 18.0318C4.62085 18.7182 4.68421 19.5366 4.91653 20.3392C5.1647 21.1998 5.52375 21.9179 5.97256 22.4829C6.47417 23.0954 7.00218 23.2908 7.35595 23.3436C7.45099 23.3594 7.53547 23.3647 7.60939 23.3647C7.70443 23.3647 7.78364 23.3594 7.847 23.3488C7.93676 23.4281 8.07932 23.5284 8.27469 23.6129C8.51229 23.7132 8.78686 23.766 9.07726 23.766L9.06142 23.7713Z" fill="#E6AA25"/>
<path d="M12.3335 16.9706C12.4074 16.9706 12.4813 16.9706 12.5605 16.9654C13.2469 16.9231 13.965 16.7541 14.7042 16.4637C15.3115 16.2525 15.9292 15.978 16.5153 15.6453C16.7741 15.5028 17.0117 15.3549 17.2176 15.2229L17.7614 14.8955C18.0835 14.6896 18.263 14.5576 18.263 14.5576L18.7224 14.2091L18.1627 14.0613C18.1627 14.0613 17.5608 13.9029 16.7635 13.7762C16.4308 13.7234 15.9345 13.6494 15.4382 13.6178C15.2481 13.6072 15.058 13.6019 14.8732 13.6019C14.5934 13.6019 14.3346 13.6125 14.1023 13.6389C13.0621 13.755 12.154 14.0877 11.5309 14.5787C11.6207 13.8554 11.6259 12.9736 11.2933 11.8172C11.1877 11.4424 11.0346 11.0094 10.8339 10.4919C10.665 10.0484 10.4907 9.62071 10.327 9.23526C9.99966 8.46437 9.73038 7.88883 9.73038 7.88883L9.47165 7.33442L9.22349 7.89411C9.22349 7.89411 9.10732 8.1634 8.94364 8.60693L8.92252 8.67557C8.8486 8.88149 8.76412 9.12438 8.6902 9.39895C8.60571 9.74743 8.53707 10.0854 8.48427 10.4127C8.34171 11.2575 8.28891 12.039 8.32587 12.7307C8.41035 13.6389 8.62683 14.4203 8.95948 15.0592C9.25517 15.6189 9.65118 15.9938 10.1369 16.1733C10.3323 16.2473 10.5013 16.2684 10.6227 16.2737C10.6966 16.3687 10.8128 16.4954 10.987 16.6116C11.2299 16.7805 11.6576 16.9812 12.3229 16.9812L12.3335 16.9706Z" fill="#E6AA25"/>
<path d="M17.431 11.0039C17.8481 11.0039 18.2864 10.9669 18.7405 10.8877C19.3213 10.7874 20.0658 10.6448 20.6783 10.4495C21.0215 10.3492 21.3224 10.233 21.5864 10.1327C21.7501 10.0693 21.9032 10.0112 22.0405 9.96899C22.4049 9.83699 22.6108 9.73667 22.6108 9.73667L23.1388 9.4885L22.6213 9.22977C22.6213 9.22977 22.0617 8.95521 21.3066 8.6648C20.4459 8.32159 19.5061 8.07871 18.7352 7.99951C18.5134 7.97839 18.2916 7.96782 18.0804 7.96782C17.6686 7.96782 17.2673 8.01007 16.8924 8.09455C16.5545 8.16847 16.2694 8.28463 16.0318 8.41135C16.111 8.16319 16.1849 7.8675 16.2535 7.5243C16.3644 6.9646 16.3961 6.33627 16.3486 5.65513C16.301 4.94232 16.1426 4.10278 16.0001 3.35828L15.9209 2.92531C15.7572 2.10162 15.6094 1.48384 15.6094 1.48384L15.4668 0.892469L15.1077 1.3888C15.1077 1.3888 14.9388 1.62641 14.6906 2.02769C14.4583 2.38146 14.1837 2.94643 13.8775 3.70149C13.6135 4.39847 13.3495 5.13768 13.2597 5.96138C13.1541 6.85372 13.2016 7.6563 13.4023 8.35328C13.5765 8.96049 13.888 9.4093 14.3316 9.68386C14.5111 9.79475 14.6748 9.85283 14.7909 9.88451C14.8437 9.99539 14.9335 10.138 15.0761 10.2911C15.3084 10.534 15.7519 10.8508 16.5387 10.9617C16.8291 11.0039 17.13 11.025 17.4416 11.025L17.431 11.0039Z" fill="#E6AA25"/>
<path d="M19.5625 5.57602C20.2277 5.57602 21.5583 5.35426 22.9892 3.88639C24.1509 2.69308 25.3336 0.602154 25.3811 0.512392L25.6715 0.000221252L25.0907 0.100544C24.9271 0.126944 21.0884 0.8292 19.272 3.22637C18.3533 4.44608 18.8813 5.36482 18.9024 5.40178L18.9605 5.5021L19.0714 5.5285C19.0714 5.5285 19.2668 5.57602 19.5519 5.57602H19.5625Z" fill="#E6AA25"/>
</svg>
