<svg width="30" height="71" viewBox="0 0 30 71" fill="none" xmlns="http://www.w3.org/2000/svg">
<path d="M5.60475 70.416C5.27738 70.416 4.96056 70.4002 4.67015 70.3632C3.77782 70.2471 3.01221 70.0042 2.38916 69.6451C1.70802 69.2544 1.43345 68.7581 1.32785 68.4149C1.26449 68.2142 1.24865 68.0452 1.24865 67.9291C1.15361 67.8499 1.03744 67.7284 0.926554 67.5489C0.667829 67.1371 0.572793 66.6038 0.636155 65.9754C0.710076 65.289 0.905438 64.5709 1.22753 63.837C1.49681 63.1928 1.81362 62.5856 2.14099 62.0734C2.46836 61.5507 2.73235 61.1283 2.95412 60.8432C3.1706 60.5475 3.31845 60.3785 3.31845 60.3785L3.68806 59.9614L3.80422 60.5105C3.80422 60.5105 3.93094 61.1125 4.01543 61.9045C4.09463 62.649 4.16855 63.7156 4.03127 64.5762C3.8359 65.8382 3.3607 66.6302 2.96469 67.0895C3.12837 67.0737 3.29734 67.0684 3.46102 67.0684C4.1844 67.0684 4.92361 67.2004 5.72091 67.4644C6.4126 67.6968 7.2627 68.0611 8.25536 68.5416C9.0157 68.9112 9.58067 69.2122 9.58067 69.2122L10.1351 69.5078L9.54899 69.7243C9.54899 69.7243 9.27442 69.8246 8.81505 69.9567L8.73057 69.9778C8.29232 70.0939 7.69039 70.2576 7.00397 70.3421C6.47068 70.4002 6.02716 70.4319 5.60475 70.4319V70.416Z" fill="#E6AA25"/>
<path d="M11.0964 65.7959C10.4312 65.7959 9.82393 65.7062 9.29064 65.5266C8.54615 65.2785 8.17655 64.8508 8.00231 64.534C7.90199 64.3545 7.85446 64.1908 7.82806 64.0693C7.72245 64.0112 7.57989 63.9162 7.43205 63.7631C7.0994 63.4093 6.89348 62.913 6.83012 62.2794C6.76148 61.593 6.81428 60.8485 6.97796 60.0723C7.09941 59.4281 7.28421 58.7681 7.51653 58.1609C7.70134 57.6276 7.8967 57.1418 8.06038 56.7933L8.58839 55.7162L8.97912 56.6613C9.07416 56.8989 9.19561 57.2316 9.31705 57.6117C9.50186 58.1767 9.81866 59.275 9.87674 60.2254C9.93483 61.5085 9.62858 62.3744 9.33818 62.9024C9.77643 62.7704 10.3625 62.6543 11.1176 62.6543C11.4344 62.6543 11.7723 62.6754 12.1155 62.7176C13.0131 62.8179 14.085 63.0767 14.8137 63.2615L15.838 63.536L16.8465 63.8159L16.1495 64.2594C16.0228 64.3333 15.8538 64.4231 15.6479 64.534C15.1833 64.7716 14.6183 65.0409 13.9583 65.2732C13.1082 65.5478 12.3637 65.7167 11.672 65.7801C11.4713 65.7959 11.2812 65.8012 11.0912 65.8012L11.0964 65.7959Z" fill="#E6AA25"/>
<path d="M15.8162 60.1303C15.6156 60.1303 15.4149 60.1197 15.2196 60.0933C14.5912 60.0141 14.1002 59.7765 13.7622 59.3858C13.625 59.2274 13.5458 59.0743 13.493 58.9634C13.3768 58.9264 13.2184 58.8631 13.0494 58.7469C12.7696 58.5568 12.3894 58.1661 12.1571 57.411C11.9617 56.7827 11.8667 56.0857 11.8614 55.2251C11.8456 54.5017 11.9248 53.8206 12.004 53.2503C12.0779 52.6273 12.1888 52.1151 12.268 51.793C12.3472 51.4445 12.4053 51.228 12.4053 51.228L12.5531 50.6419L12.9016 51.133C12.9016 51.133 13.2712 51.6452 13.6619 52.3421C13.947 52.849 14.4698 53.8417 14.7285 54.7868C14.8922 55.394 14.9503 55.9907 14.908 56.6138C14.8816 56.9358 14.8288 57.2474 14.7444 57.5219C14.9714 57.4005 15.2512 57.2685 15.5786 57.1523C16.0749 56.9728 16.698 56.8514 17.4214 56.7774C17.7699 56.7458 18.1764 56.7246 18.6516 56.7246C19.206 56.7246 19.7605 56.7458 20.1829 56.7669C21.0277 56.8091 21.6507 56.8514 21.6507 56.8514L22.2421 56.8936L21.8303 57.3213C21.8303 57.3213 21.6191 57.543 21.2495 57.8387C20.9115 58.108 20.373 58.5093 19.7393 58.9C19.0793 59.2908 18.3243 59.6287 17.6009 59.8557C16.9884 60.0353 16.3865 60.1303 15.8057 60.1303H15.8162Z" fill="#E6AA25"/>
<path d="M19.693 53.5989C19.1703 53.5989 18.7215 53.4617 18.3624 53.1871C18.1988 53.0604 18.0879 52.9284 18.0192 52.828C17.8978 52.8175 17.7288 52.7858 17.5387 52.7013C17.2272 52.5693 16.7784 52.2631 16.3982 51.5714C15.6643 50.1985 15.4848 48.604 15.4109 47.5215C15.3739 47.0727 15.3792 46.6714 15.3792 46.3493V46.0589C15.3792 45.6788 15.4003 45.4517 15.4003 45.4517L15.4531 44.8762L15.8702 45.2722C15.8702 45.2722 16.3243 45.6999 16.8576 46.3018C17.4912 47.0146 18.0509 47.8119 18.3888 48.4825C18.6898 49.0686 18.8693 49.6441 18.938 50.2408C18.9749 50.5576 18.9802 50.8691 18.9538 51.1542C19.1861 50.9536 19.4343 50.7794 19.6983 50.6262C20.1788 50.3464 20.7596 50.0982 21.4196 49.8923C22.2064 49.6494 23.2149 49.4857 24.0227 49.3537L24.1283 49.3379C24.9573 49.2059 25.5856 49.1267 25.5856 49.1267L26.1929 49.0528L25.8496 49.5597C25.8496 49.5597 25.686 49.8025 25.3955 50.1721C25.1157 50.5365 24.6616 51.0117 24.1231 51.5133C23.3363 52.2367 21.7417 53.4617 19.9306 53.5884C19.8462 53.5937 19.7669 53.5989 19.6877 53.5989H19.693Z" fill="#E6AA25"/>
<path d="M22.5027 46.3808C22.1859 46.3808 21.8902 46.3175 21.6262 46.1855C21.4414 46.0957 21.3041 45.9848 21.2196 45.9056C21.1721 45.9056 21.1193 45.9162 21.0612 45.9162C20.9503 45.9162 20.8342 45.9056 20.7233 45.8792C20.3907 45.8106 19.889 45.6047 19.3874 44.9974C18.9597 44.4747 18.5796 43.8411 18.2522 43.1019C18.1202 42.8009 18.004 42.4841 17.8932 42.1303C17.7875 41.8399 17.6925 41.5337 17.608 41.2222C17.4866 40.7628 17.4021 40.3562 17.3335 40.0236L17.2859 39.7913C17.212 39.4164 17.1909 39.1946 17.1909 39.1946L17.1328 38.6296L17.6186 38.9306C17.6186 38.9306 18.1413 39.258 18.7855 39.7437C19.5722 40.3351 20.2798 41.0004 20.7233 41.5759C21.3464 42.3627 21.7107 43.2022 21.8057 44.084C22.2017 43.5877 22.8618 42.9593 23.9759 42.3521C24.7362 41.9508 25.7077 41.5759 26.4839 41.275C27.3023 40.9687 27.9095 40.7681 27.9095 40.7681L28.4956 40.5727L28.2527 41.143C28.2527 41.143 28.1366 41.4122 27.9254 41.8347C27.7881 42.1145 27.4766 42.7006 26.9485 43.4081C26.7162 43.7197 26.4786 44.0206 26.241 44.2899C25.9559 44.5962 25.6602 44.8707 25.3592 45.1189C24.6781 45.6891 23.9706 46.0799 23.2578 46.2752C22.999 46.3492 22.7456 46.3861 22.508 46.3861L22.5027 46.3808Z" fill="#E6AA25"/>
<path d="M23.9057 38.7406C23.7473 38.7406 23.5836 38.7195 23.4358 38.6825C23.2352 38.6297 23.082 38.5505 22.9817 38.4871C22.8656 38.5241 22.7019 38.5611 22.4959 38.5611C22.1474 38.5611 21.6142 38.4555 21.0069 37.9644C19.8348 37.0298 19.0533 35.694 18.5042 34.6326L18.425 34.4584C18.2085 33.9938 18.0184 33.5925 17.897 33.2862C17.7597 32.943 17.691 32.7265 17.691 32.7265L17.5273 32.188L18.0554 32.3833C18.0554 32.3833 18.6309 32.5998 19.3543 32.943C20.0249 33.2651 20.97 33.772 21.63 34.3475C22.1263 34.7752 22.5276 35.2451 22.8286 35.7415C22.9817 36.016 23.1032 36.2959 23.1929 36.581C23.3302 36.317 23.4939 36.053 23.6892 35.7996C24.0219 35.3349 24.4601 34.8755 24.9776 34.4478C25.532 33.999 26.2923 33.471 27.2375 32.8744C27.9503 32.4256 28.51 32.1035 28.51 32.1035L29.0486 31.7919L28.9218 32.3992C28.9218 32.3992 28.8638 32.6843 28.7318 33.1437C28.6103 33.5661 28.4255 34.1997 28.0929 34.8861C27.7497 35.657 26.757 37.5526 25.0621 38.4343C24.6714 38.635 24.2859 38.7353 23.9216 38.7353L23.9057 38.7406Z" fill="#E6AA25"/>
<path d="M22.3696 31.0741C21.9895 31.0741 21.5829 30.9685 21.171 30.752C20.5533 30.4457 19.9513 30.0075 19.3758 29.4584C18.8319 28.9304 18.3726 28.4235 18.0399 27.9905L17.8023 27.6737C17.5436 27.3358 17.3218 27.0401 17.1687 26.7972C16.9681 26.4909 16.8572 26.2956 16.8572 26.2956L16.5879 25.8045L17.1423 25.889C17.1423 25.889 17.7495 25.9841 18.5257 26.1741C19.2649 26.3589 20.2998 26.6705 21.039 27.0929C21.604 27.4044 22.0898 27.7846 22.4858 28.2175C22.7234 28.4763 22.8924 28.735 23.0138 28.9673C23.0877 28.7086 23.1933 28.4182 23.3306 28.1119C23.5629 27.5892 23.8956 27.0506 24.3285 26.5173C24.9674 25.7359 25.7911 24.928 26.2241 24.5162C26.8366 23.9354 27.3171 23.5077 27.3171 23.5077L27.787 23.0958V23.7189C27.787 23.7189 27.787 24.0146 27.7448 24.4845L27.7289 24.6482C27.6867 25.1076 27.6339 25.6778 27.4702 26.3167C27.3013 26.9978 27.0742 27.7898 26.6888 28.5185C26.2716 29.3105 25.7806 29.9441 25.2262 30.4035C24.7562 30.7837 24.2705 30.9738 23.7847 30.9738H23.6897C23.4837 30.9579 23.32 30.9157 23.2039 30.8734C23.0983 30.9315 22.9399 31.0002 22.734 31.0424C22.6178 31.0688 22.4911 31.0794 22.3591 31.0794L22.3696 31.0741Z" fill="#E6AA25"/>
<path d="M20.6691 23.7713C20.421 23.7713 20.1517 23.7343 19.8718 23.6551C19.2065 23.4808 18.5254 23.1693 17.8495 22.7416C17.2265 22.3456 16.6721 21.9391 16.2444 21.5642C16.0807 21.4163 15.9276 21.2843 15.7797 21.1523C15.5263 20.9306 15.3045 20.7405 15.1408 20.5715C14.8768 20.3128 14.729 20.1438 14.729 20.1438L14.3594 19.7108L14.9244 19.6792C14.9244 19.6792 15.1725 19.6686 15.558 19.6686C15.7797 19.6686 16.049 19.6686 16.3447 19.6844C17.4799 19.7372 18.3723 19.8693 19.0006 20.0805C19.6131 20.2758 20.1675 20.5504 20.6427 20.8936C20.9226 21.0942 21.1443 21.316 21.3133 21.5219C21.3344 21.2579 21.3819 20.957 21.4506 20.619C21.572 20.0593 21.7938 19.468 22.1106 18.8555C22.6122 17.9103 23.2353 16.9916 23.5573 16.5217C24.0378 15.83 24.418 15.3178 24.418 15.3178L24.7876 14.8215L24.9143 15.4287C24.9143 15.4287 24.9724 15.7138 25.0358 16.1837L25.0622 16.4108C25.115 16.849 25.1783 17.3982 25.1414 18.0318C25.1097 18.7182 25.0463 19.5366 24.814 20.3392C24.5659 21.1998 24.2068 21.9179 23.758 22.4829C23.2564 23.0954 22.7284 23.2908 22.3746 23.3436C22.2795 23.3594 22.1951 23.3647 22.1212 23.3647C22.0261 23.3647 21.9469 23.3594 21.8835 23.3488C21.7938 23.4281 21.6512 23.5284 21.4559 23.6129C21.2182 23.7132 20.9437 23.766 20.6533 23.766L20.6691 23.7713Z" fill="#E6AA25"/>
<path d="M17.3948 16.9706C17.3209 16.9706 17.247 16.9706 17.1678 16.9654C16.4813 16.9231 15.7633 16.7541 15.024 16.4637C14.4168 16.2525 13.7991 15.978 13.213 15.6453C12.9542 15.5028 12.7166 15.3549 12.5107 15.2229L11.9668 14.8955C11.6448 14.6896 11.4652 14.5576 11.4652 14.5576L11.0059 14.2091L11.5656 14.0613C11.5656 14.0613 12.1675 13.9029 12.9648 13.7762C13.2974 13.7234 13.7938 13.6494 14.2901 13.6178C14.4802 13.6072 14.6703 13.6019 14.8551 13.6019C15.1349 13.6019 15.3936 13.6125 15.626 13.6389C16.6661 13.755 17.5743 14.0877 18.1974 14.5787C18.1076 13.8554 18.1023 12.9736 18.435 11.8172C18.5406 11.4424 18.6937 11.0094 18.8944 10.4919C19.0633 10.0484 19.2376 9.62071 19.4013 9.23526C19.7286 8.46437 19.9979 7.88883 19.9979 7.88883L20.2566 7.33442L20.5048 7.89411C20.5048 7.89411 20.621 8.1634 20.7846 8.60693L20.8058 8.67557C20.8797 8.88149 20.9642 9.12438 21.0381 9.39895C21.1226 9.74743 21.1912 10.0854 21.244 10.4127C21.3866 11.2575 21.4394 12.039 21.4024 12.7307C21.3179 13.6389 21.1015 14.4203 20.7688 15.0592C20.4731 15.6189 20.0771 15.9938 19.5913 16.1733C19.396 16.2473 19.227 16.2684 19.1056 16.2737C19.0317 16.3687 18.9155 16.4954 18.7412 16.6116C18.4984 16.7805 18.0707 16.9812 17.4054 16.9812L17.3948 16.9706Z" fill="#E6AA25"/>
<path d="M12.3055 11.0039C11.8883 11.0039 11.4501 10.9669 10.996 10.8877C10.4152 10.7874 9.67069 10.6448 9.05819 10.4495C8.71499 10.3492 8.41402 10.233 8.15001 10.1327C7.98633 10.0693 7.8332 10.0112 7.69591 9.96899C7.33159 9.83699 7.12567 9.73667 7.12567 9.73667L6.59766 9.4885L7.1151 9.22977C7.1151 9.22977 7.6748 8.95521 8.42986 8.6648C9.29052 8.32159 10.2304 8.07871 11.0013 7.99951C11.223 7.97839 11.4448 7.96782 11.656 7.96782C12.0679 7.96782 12.4691 8.01007 12.844 8.09455C13.182 8.16847 13.4671 8.28463 13.7047 8.41135C13.6255 8.16319 13.5516 7.8675 13.4829 7.5243C13.372 6.9646 13.3404 6.33627 13.3879 5.65513C13.4354 4.94232 13.5938 4.10278 13.7364 3.35828L13.8156 2.92531C13.9793 2.10162 14.1271 1.48384 14.1271 1.48384L14.2697 0.892469L14.6287 1.3888C14.6287 1.3888 14.7977 1.62641 15.0458 2.02769C15.2782 2.38146 15.5527 2.94643 15.859 3.70149C16.123 4.39847 16.387 5.13768 16.4768 5.96138C16.5824 6.85372 16.5348 7.6563 16.3342 8.35328C16.1599 8.96049 15.8484 9.4093 15.4049 9.68386C15.2254 9.79475 15.0617 9.85283 14.9455 9.88451C14.8927 9.99539 14.803 10.138 14.6604 10.2911C14.4281 10.534 13.9845 10.8508 13.1978 10.9617C12.9074 11.0039 12.6064 11.025 12.2949 11.025L12.3055 11.0039Z" fill="#E6AA25"/>
<path d="M10.1677 5.57602C9.50238 5.57602 8.1718 5.35426 6.74089 3.88639C5.57926 2.69308 4.39651 0.602154 4.34899 0.512392L4.05859 0.000221252L4.63939 0.100544C4.80308 0.126944 8.64173 0.8292 10.4581 3.22637C11.3768 4.44608 10.8488 5.36482 10.8277 5.40178L10.7696 5.5021L10.6587 5.5285C10.6587 5.5285 10.4634 5.57602 10.1782 5.57602H10.1677Z" fill="#E6AA25"/>
</svg>
