<svg width="19" height="18" viewBox="0 0 19 18" fill="none" xmlns="http://www.w3.org/2000/svg">
<path d="M3.59991 14.786C3.19431 14.786 2.84722 14.6417 2.55862 14.3532C2.27003 14.0646 2.12549 13.7172 2.125 13.3111V4.46165C2.125 4.05604 2.26954 3.70895 2.55862 3.42036C2.84771 3.13177 3.1948 2.98722 3.59991 2.98673H15.3992C15.8048 2.98673 16.1522 3.13127 16.4412 3.42036C16.7303 3.70944 16.8746 4.05654 16.8741 4.46165V13.3111C16.8741 13.7167 16.7298 14.0641 16.4412 14.3532C16.1527 14.6422 15.8053 14.7865 15.3992 14.786H3.59991ZM9.49957 9.62384L3.59991 5.93656V13.3111H15.3992V5.93656L9.49957 9.62384ZM9.49957 8.14893L15.3992 4.46165H3.59991L9.49957 8.14893ZM3.59991 5.93656V4.46165V13.3111V5.93656Z" fill="#3D3D3D"/>
</svg>
