<svg width="18" height="17" viewBox="0 0 18 17" fill="none" xmlns="http://www.w3.org/2000/svg">
<path d="M9.64908 4.82472L13.1699 5.76208M8.89536 7.62427L10.655 8.09332M8.98312 12.8996L9.68669 13.0877C11.6779 13.6187 12.6736 13.8834 13.4583 13.4328C14.2422 12.9829 14.5092 11.9925 15.0424 10.013L15.7969 7.21274C16.3308 5.23256 16.5971 4.24283 16.1442 3.46256C15.6914 2.68228 14.6965 2.41752 12.7045 1.88726L12.001 1.69919C10.0097 1.16819 9.01409 0.903431 8.23013 1.35404C7.44543 1.80392 7.17846 2.79438 6.64451 4.77383L5.89078 7.57412C5.35683 9.55431 5.08986 10.544 5.54342 11.3243C5.99624 12.1038 6.99187 12.3693 8.98312 12.8996Z" stroke="#3D3D3D" stroke-width="1.5" stroke-linecap="round"/>
<path d="M9.00002 15.0973L8.29792 15.2891C6.3111 15.8296 5.31842 16.1003 4.53519 15.6408C3.75344 15.1821 3.48647 14.1725 2.95473 12.1539L2.20174 9.29834C1.66927 7.2798 1.40303 6.27017 1.85512 5.47514C2.24599 4.78705 3.10002 4.81213 4.20627 4.81213" stroke="#3D3D3D" stroke-width="1.5" stroke-linecap="round"/>
</svg>
