<svg width="73" height="71" viewBox="0 0 73 71" fill="none" xmlns="http://www.w3.org/2000/svg">
<g clip-path="url(#clip0_2022_4150)">
<path d="M29.9349 11.843C31.0858 11.7763 32.2391 11.7645 33.3912 11.8072C33.945 11.8278 34.4988 11.8614 35.0508 11.9065C35.1339 11.9131 35.2166 11.9205 35.2999 11.9277C35.535 11.9478 35.2069 11.9202 35.1852 11.9167C35.3228 11.9369 35.463 11.9439 35.6008 11.9585C35.9057 11.9908 36.2111 12.027 36.5154 12.0664C38.8266 12.3667 41.1111 12.8725 43.334 13.5717C43.871 13.7404 44.4032 13.9223 44.9329 14.1112C45.221 14.214 44.6239 13.9964 44.9105 14.1032C44.9634 14.1228 45.0157 14.1426 45.0686 14.1622C45.2003 14.2117 45.3308 14.2616 45.4624 14.3125C45.7499 14.4245 46.0364 14.5395 46.3218 14.6576C47.3794 15.0971 48.4183 15.5837 49.4322 16.1167C50.461 16.658 51.4645 17.2471 52.4364 17.8861C52.5511 17.9617 52.6659 18.0378 52.7797 18.115C52.8723 18.1776 53.2456 18.458 52.8904 18.189C53.1191 18.3622 53.3604 18.5211 53.5915 18.6908C54.0413 19.0218 54.483 19.3643 54.9153 19.718C55.7818 20.4269 56.6101 21.1822 57.3919 21.9839C57.7746 22.376 58.1456 22.7787 58.5044 23.1929C58.5671 23.265 58.7387 23.4961 58.4746 23.1577C58.5072 23.1995 58.5438 23.2394 58.5772 23.2796C58.6625 23.3816 58.7471 23.4838 58.8307 23.5871C59.0146 23.8137 59.1947 24.0435 59.3714 24.2758C60.0225 25.1348 60.6194 26.035 61.1541 26.9708C61.4102 27.4182 61.6516 27.8737 61.8764 28.3373C61.8969 28.3802 61.9167 28.4233 61.9385 28.4659C61.7256 28.0418 61.8533 28.2842 61.8975 28.38C61.9463 28.4861 61.9944 28.5923 62.0413 28.6989C62.1379 28.9189 62.2308 29.14 62.3195 29.3632C62.648 30.19 62.9185 31.0401 63.1146 31.9083C63.1593 32.1055 63.1981 32.3033 63.2363 32.5014C63.2765 32.7104 63.2015 32.2947 63.202 32.3049C63.2045 32.3624 63.2218 32.4235 63.231 32.4804C63.2477 32.587 63.2637 32.6938 63.2783 32.8004C63.3309 33.1889 63.3672 33.5797 63.3866 33.9718C63.4051 34.3588 63.4068 34.7469 63.3896 35.1341C63.3817 35.3145 63.3644 35.4937 63.3542 35.6734C63.384 35.1489 63.3699 35.5022 63.355 35.6285C63.3439 35.7254 63.3313 35.8221 63.318 35.9184C63.2182 36.6292 63.0529 37.3305 62.8225 38.0107C62.7821 38.13 62.6496 38.4481 62.8441 37.9599C62.8128 38.0385 62.7847 38.1188 62.7534 38.1974C62.6883 38.3623 62.6193 38.5257 62.5471 38.6873C62.4059 39.002 62.2504 39.3102 62.0822 39.6108C61.9095 39.9191 61.7175 40.2142 61.5241 40.509C61.8432 40.0218 61.4965 40.5432 61.4062 40.6632C61.3001 40.8047 61.1905 40.9439 61.078 41.0805C60.6293 41.6268 60.1348 42.1347 59.6057 42.6027C59.5097 42.6875 59.2328 42.899 59.6494 42.5676C59.582 42.6212 59.517 42.6783 59.45 42.7332C59.3022 42.8536 59.1514 42.9715 58.9989 43.0858C58.7183 43.2965 58.4304 43.4971 58.1367 43.6878C57.8235 43.8909 57.5033 44.0826 57.1761 44.2634C57.019 44.3503 56.8605 44.435 56.7004 44.5167C56.6201 44.558 56.5394 44.598 56.4581 44.6383C56.4254 44.6542 56.3933 44.6698 56.3606 44.6857C56.0637 44.8322 56.67 44.5442 56.4568 44.6407C55.7671 44.9531 55.0663 45.2333 54.3452 45.4643C53.605 45.7021 52.85 45.8937 52.0868 46.042C51.9924 46.0603 51.8976 46.0773 51.8029 46.095C52.3384 45.993 51.9604 46.0677 51.833 46.0882C51.622 46.1223 51.4109 46.1536 51.1992 46.181C50.7911 46.2343 50.3804 46.2755 49.9696 46.305C49.1524 46.3632 48.332 46.3745 47.5136 46.3404C47.3111 46.3319 47.1084 46.3207 46.9062 46.3067C46.8045 46.2998 46.703 46.2915 46.6014 46.2832C46.5605 46.2798 46.5202 46.2761 46.4793 46.2726C46.9798 46.3114 46.6504 46.2883 46.5384 46.2772C46.1288 46.2349 45.7203 46.1812 45.3133 46.1168C44.4439 45.9781 43.5824 45.7888 42.7352 45.549C42.3241 45.433 41.9167 45.3048 41.5128 45.166C41.4111 45.131 41.31 45.0937 41.2089 45.0585C41.6774 45.2195 41.2957 45.09 41.1833 45.0474C40.9693 44.9657 40.7562 44.8809 40.5451 44.7934C38.9571 44.1344 37.4201 43.3466 35.9333 42.4852C35.0684 41.9845 34.2205 41.4551 33.3925 40.8954C33.2892 40.8252 33.1861 40.7536 33.0828 40.6834C33.4803 40.9513 33.0902 40.6872 33.0089 40.6299C32.7822 40.4698 32.5583 40.3074 32.3355 40.142C31.9195 39.8332 31.5105 39.516 31.1093 39.1888C30.3079 38.5355 29.5373 37.8429 28.8164 37.1015C28.6471 36.9273 28.4803 36.7502 28.3167 36.5701C28.2356 36.4811 28.1556 36.3912 28.0759 36.3004C28.0446 36.2644 28.0136 36.2275 27.9816 36.1917C28.292 36.5312 28.0791 36.3063 28.0112 36.2242C27.7041 35.8561 27.4117 35.4758 27.1379 35.0828C26.8676 34.6941 26.6156 34.2921 26.3883 33.8767C26.3357 33.7801 26.2841 33.6825 26.2337 33.5845C26.1759 33.4717 26.01 33.0918 26.2229 33.5742C26.1319 33.3676 26.0386 33.1624 25.9572 32.9513C25.8015 32.5496 25.6724 32.1367 25.578 31.7162C25.5555 31.6149 25.5375 31.5128 25.5156 31.4113C25.628 31.9297 25.5397 31.5458 25.5221 31.4168C25.492 31.1922 25.4716 30.9659 25.4623 30.7395C25.4536 30.5328 25.4545 30.3258 25.4639 30.1196C25.4703 29.9885 25.5425 29.6318 25.4585 30.1028C25.4802 29.9805 25.4896 29.8567 25.5118 29.7343C25.5313 29.6292 25.5544 29.5244 25.5819 29.4209C25.5992 29.3542 25.7198 28.9987 25.6199 29.2701C25.5228 29.533 25.6382 29.2327 25.6679 29.1683C25.7151 29.0661 25.7671 28.9659 25.8241 28.8688C25.8479 28.829 25.8768 28.76 25.9116 28.7291C25.9261 28.7162 25.6688 29.0458 25.7996 28.8931C25.8577 28.8252 25.9088 28.7526 25.9685 28.6856C26.0272 28.6196 26.09 28.5578 26.1528 28.4959C26.1939 28.4547 26.3423 28.3293 26.1317 28.5095C25.9096 28.6988 26.1071 28.5338 26.1569 28.496C26.299 28.3898 26.4496 28.2953 26.6062 28.2112C26.6379 28.1943 26.6708 28.179 26.7017 28.1617C26.9108 28.0458 26.3319 28.3162 26.5563 28.2312C26.6512 28.1949 26.7432 28.154 26.8389 28.1202C27.0172 28.0567 27.1997 28.0042 27.3835 27.9603C27.4684 27.9402 27.5544 27.9232 27.6401 27.9056C27.8863 27.8549 27.2512 27.9652 27.5011 27.9305C27.5602 27.922 27.6197 27.9128 27.6792 27.9055C28.1126 27.8496 28.5513 27.8319 28.9877 27.8396C29.2046 27.8435 29.4207 27.8539 29.637 27.869C29.6806 27.8723 29.7242 27.8756 29.7679 27.8789C30.0307 27.8978 29.4043 27.8412 29.6666 27.8692C29.7875 27.8823 29.9082 27.8948 30.0291 27.91C30.4803 27.9665 30.9292 28.0417 31.3748 28.1323C32.2255 28.3051 33.0661 28.5305 33.8921 28.7984C34.0682 28.8558 34.2442 28.9146 34.4188 28.9759C34.4837 28.9985 34.8041 29.1145 34.5206 29.0108C34.2416 28.9085 34.5611 29.0261 34.6309 29.0534C35.1721 29.2592 35.706 29.4852 36.2311 29.7291C37.3016 30.2263 38.3376 30.799 39.3269 31.4428C39.4472 31.5213 39.5672 31.6006 39.6869 31.6814C39.7648 31.7343 39.9794 31.9236 39.6748 31.6715C39.7178 31.7073 39.771 31.7385 39.8162 31.7708C40.0746 31.9531 40.3292 32.1408 40.5798 32.3331C41.0581 32.6997 41.5235 33.0841 41.9729 33.4853C42.4002 33.8666 42.8141 34.264 43.2127 34.6758C43.4119 34.8817 43.6068 35.091 43.7985 35.3035C43.8941 35.4098 43.988 35.5173 44.0827 35.6252C44.2869 35.8598 43.87 35.3686 44.0676 35.6081C44.1223 35.6745 44.1775 35.74 44.232 35.8058C44.9749 36.7118 45.6479 37.6765 46.2361 38.69C46.38 38.9376 46.5186 39.1881 46.6518 39.4411C46.7187 39.5675 46.7839 39.6951 46.8479 39.8231C46.8867 39.9 46.9244 39.9774 46.9619 40.0547C47.0088 40.1504 47.0959 40.4159 46.9479 40.0235C47.1603 40.5885 47.4332 41.1301 47.6386 41.6993C47.8353 42.2453 48.0085 42.7994 48.1571 43.3606C48.2318 43.6431 48.3008 43.9275 48.3627 44.2134C48.3908 44.3431 48.4171 44.4735 48.4422 44.6043C48.4981 44.8928 48.386 44.2458 48.4299 44.5354C48.4416 44.6113 48.454 44.687 48.4651 44.7631C48.5409 45.285 48.5845 45.8116 48.5925 46.3384C48.5962 46.5838 48.5927 46.83 48.5813 47.0754C48.5762 47.1848 48.5682 47.2937 48.5611 47.4031C48.5546 47.5061 48.5199 47.706 48.5732 47.2922C48.5637 47.3638 48.5585 47.4362 48.5505 47.5081C48.4924 48.0065 48.4019 48.5001 48.2774 48.986C48.2189 49.2147 48.1529 49.4417 48.0797 49.6654C48.0462 49.7674 47.8808 50.1763 48.0646 49.7258C48.0118 49.8559 47.964 49.9885 47.9104 50.1181C47.7307 50.5494 47.5221 50.9693 47.2872 51.3735C47.1694 51.5757 47.0428 51.7717 46.914 51.9671C46.7642 52.1939 47.1201 51.682 46.959 51.9013C46.9311 51.939 46.9041 51.9771 46.8764 52.0154C46.7931 52.1291 46.707 52.2409 46.6189 52.3506C46.3076 52.7392 45.9687 53.1057 45.6064 53.4459C45.5191 53.5279 45.4292 53.6079 45.3405 53.6876C45.2711 53.7502 45.1359 53.8412 45.4543 53.5917C45.3971 53.6367 45.343 53.6847 45.2867 53.7301C45.0972 53.8837 44.9028 54.0305 44.7037 54.1713C44.2757 54.4734 43.8258 54.7453 43.3605 54.9864C43.2473 55.0451 43.131 55.0984 43.0172 55.1573C43.4628 54.9258 43.0372 55.1447 42.9362 55.1878C42.6621 55.3064 42.3834 55.4148 42.1006 55.5122C41.5645 55.6968 41.0184 55.8324 40.4643 55.9472C40.1598 56.0109 40.811 55.8928 40.5035 55.9409C40.448 55.9497 40.3919 55.9592 40.3361 55.9673C40.1965 55.9883 40.0561 56.0068 39.9158 56.0232C39.606 56.0597 39.2946 56.0845 38.9829 56.0997C38.3828 56.1281 37.7808 56.1181 37.1816 56.0735C37.124 56.0691 37.0669 56.0625 37.009 56.0596C37.4225 56.0794 37.1173 56.0698 37.0285 56.0603C36.8842 56.045 36.7408 56.028 36.5972 56.0084C36.2946 55.9678 35.9929 55.9194 35.6923 55.8638C35.1011 55.7535 34.5155 55.6133 33.9375 55.4473C33.6534 55.3658 33.3715 55.2781 33.0918 55.1843C32.9513 55.1376 32.8121 55.0884 32.6728 55.0392C32.3862 54.9386 32.9071 55.1283 32.72 55.0558C32.623 55.0186 32.5265 54.9827 32.4293 54.9449C31.3028 54.5046 30.2128 53.9718 29.1699 53.3601C28.9184 53.2127 28.6704 53.0607 28.4251 52.9044C28.3034 52.8263 28.1824 52.748 28.0615 52.6676C28.0014 52.6276 27.9419 52.5875 27.8825 52.5473C27.5912 52.35 28.0876 52.6937 27.8608 52.5329C27.3893 52.1985 26.9277 51.85 26.4824 51.4812C26.0438 51.1184 25.6196 50.7382 25.2134 50.3391C24.9976 50.1267 24.7871 49.9093 24.5846 49.6845C24.5378 49.6321 24.4915 49.5795 24.4453 49.5268C24.3151 49.3807 24.6772 49.8096 24.4986 49.5889C24.4024 49.4697 24.3058 49.3514 24.2142 49.2294C24.0757 49.0461 23.9443 48.8571 23.8233 48.6621C23.7685 48.5737 23.7155 48.4848 23.6653 48.3936C23.6461 48.3592 23.6273 48.324 23.6088 48.2893C23.4617 48.0078 23.7039 48.5111 23.6577 48.4022C23.5908 48.2435 23.5248 48.0873 23.4752 47.9225C23.4552 47.8554 23.4398 47.7875 23.4226 47.7201C23.3885 47.5847 23.4314 47.4537 23.4557 47.9197C23.4536 47.8785 23.4441 47.8355 23.4406 47.7941C23.4345 47.7274 23.4317 47.6603 23.4318 47.5936C23.4323 47.5605 23.4438 47.5102 23.4364 47.4782C23.4344 47.4719 23.3739 47.8695 23.4144 47.731C23.4305 47.6758 23.4378 47.6103 23.4494 47.5537C23.5137 47.2435 23.2874 47.8805 23.4062 47.6622C23.4337 47.6123 23.459 47.5603 23.4856 47.5099C23.6037 47.2891 23.2226 47.8235 23.3987 47.6385C23.4382 47.5964 23.4765 47.5526 23.5152 47.5101C23.6879 47.3207 23.1701 47.7639 23.413 47.5969C23.5179 47.5251 23.6231 47.4649 23.7327 47.4013C23.7287 47.4039 23.3236 47.5792 23.5903 47.474C23.6677 47.4432 23.7469 47.416 23.8266 47.3921C23.9989 47.3401 24.5226 47.2919 23.9331 47.3493C24.1116 47.3318 24.2867 47.3037 24.4661 47.2955C24.6413 47.2872 24.8164 47.2872 24.9916 47.2941C25.0835 47.2979 25.1755 47.3044 25.2673 47.3102C25.3678 47.3175 25.5161 47.35 25.072 47.2919C25.1387 47.3009 25.2057 47.3065 25.273 47.3153C25.6912 47.3693 26.105 47.4549 26.5115 47.5655C26.7249 47.6234 26.9364 47.6881 27.1457 47.759C27.2089 47.7808 27.2778 47.7987 27.3386 47.8261C27.3339 47.8242 26.9903 47.6936 27.1937 47.7739C27.324 47.8253 27.4547 47.8758 27.5845 47.93C28.0734 48.1353 28.5464 48.3751 29.0099 48.6324C29.5442 48.929 30.0475 49.2663 30.563 49.5923C30.2067 49.3676 30.633 49.6442 30.7154 49.7046C30.8397 49.7956 30.963 49.8876 31.0848 49.9814C31.3555 50.1894 31.6196 50.4049 31.8768 50.6288C32.3568 51.0463 32.8126 51.4914 33.2349 51.9671L33.2659 52.0019C33.3662 52.117 33.3475 52.0948 33.2093 51.9341C33.2462 51.9402 33.3293 52.0786 33.3564 52.1119C33.4532 52.2309 33.5471 52.3514 33.6389 52.474C33.8304 52.7291 34.0107 52.9918 34.1784 53.2627C34.3364 53.5181 34.4802 53.7807 34.6159 54.048C34.7614 54.3356 34.4826 53.7319 34.6058 54.0293C34.6286 54.0838 34.6533 54.1378 34.6763 54.193C34.7448 54.3566 34.8084 54.5225 34.866 54.691C34.9616 54.9703 35.0418 55.2553 35.1032 55.5441C35.1149 55.598 35.1208 55.6641 35.1386 55.7182C35.0141 55.3259 35.1018 55.5006 35.1196 55.6323C35.1385 55.7718 35.1522 55.9124 35.1599 56.0534C35.1721 56.2693 35.1596 56.4806 35.1553 56.6962C35.1517 56.8752 35.2024 56.3126 35.1667 56.5615C35.1591 56.6154 35.1528 56.6689 35.1445 56.723C35.1267 56.8399 35.1046 56.9561 35.0779 57.071C35.0538 57.1748 35.0265 57.2768 34.9956 57.3787C34.985 57.4143 34.9657 57.5351 34.937 57.5593C34.9321 57.5636 35.0766 57.2012 34.9956 57.3979C34.9075 57.6113 34.814 57.8209 34.7018 58.0233C34.6512 58.1149 34.5976 58.2054 34.5413 58.2941C34.5188 58.3293 34.4949 58.3644 34.4727 58.4003C34.3357 58.6155 34.6874 58.1076 34.5338 58.3115C34.3926 58.4985 34.248 58.6811 34.0903 58.8547C33.9523 59.0063 33.8074 59.1512 33.6573 59.2902C33.6174 59.3269 33.5767 59.3632 33.5367 59.3992C33.3509 59.5688 33.7817 59.1999 33.6412 59.3111C33.5462 59.3859 33.4542 59.4639 33.3586 59.5368C32.9877 59.8201 32.5946 60.074 32.1865 60.3004C31.9903 60.4093 31.7894 60.5075 31.5893 60.6081C32.0542 60.3747 31.6776 60.5642 31.565 60.6138C31.4425 60.6671 31.3186 60.7181 31.1941 60.7672C30.288 61.1249 29.3506 61.3299 28.4003 61.5313C28.2575 61.5616 28.1144 61.5912 27.971 61.6196C27.8998 61.6333 27.8284 61.6463 27.7568 61.6608C27.5565 61.7004 28.1298 61.6007 27.8303 61.6478C27.5195 61.6963 27.2086 61.738 26.8952 61.7565C26.7543 61.7649 26.6135 61.769 26.4724 61.7679C26.4159 61.7673 26.36 61.7665 26.3037 61.7644C26.2599 61.7625 25.9924 61.7246 26.2332 61.7648C26.4791 61.8062 26.2005 61.7594 26.1625 61.7543C26.0921 61.7444 26.0219 61.7331 25.9525 61.7201C25.7971 61.6911 25.6426 61.6544 25.4915 61.6089C25.3662 61.5711 25.2113 61.4445 25.4955 61.6173C25.4481 61.5891 25.3805 61.5707 25.3285 61.5474C25.1974 61.4894 25.069 61.4245 24.9427 61.3575C24.8172 61.2909 24.6942 61.2214 24.5722 61.1489C24.5419 61.1311 24.1433 60.8532 24.1251 60.8651C24.1564 60.8449 24.3906 61.0548 24.1628 60.8889C24.1012 60.8439 24.0401 60.7987 23.9802 60.7525C23.8585 60.6593 23.7393 60.5626 23.6225 60.463C23.3644 60.2428 23.128 60.0041 22.8953 59.758C22.7475 59.6017 22.9715 59.8011 22.9543 59.8292C22.9588 59.8216 22.7986 59.6328 22.7858 59.6163C22.6966 59.4976 22.6112 59.3758 22.5315 59.25C22.4612 59.1391 22.3956 59.0253 22.3345 58.9088C22.3277 58.8958 22.321 58.8835 22.3148 58.8704C22.2458 58.7309 22.2629 58.7674 22.3664 58.979C22.3641 58.909 22.2974 58.8114 22.2726 58.7417C22.2286 58.6183 22.2113 58.4796 22.1636 58.3595C22.2914 58.6801 22.2006 58.6038 22.1885 58.4381C22.1849 58.3898 22.1833 58.3415 22.1829 58.2929C22.1821 58.1174 22.2704 58.0797 22.1673 58.3734C22.1809 58.3341 22.1815 58.2776 22.1902 58.2357C22.198 58.1954 22.2115 58.0627 22.2417 58.0346C22.2159 58.1046 22.19 58.1746 22.1634 58.2442C22.1801 58.2018 22.1985 58.1602 22.2185 58.1195C22.2426 58.07 22.2794 58.0213 22.2995 57.9702C22.3614 57.8146 22.0634 58.256 22.2294 58.0715C22.267 58.03 22.3061 57.9867 22.3426 57.9435C22.4394 57.8269 22.5257 57.8758 22.243 58.0191C22.3305 57.9748 22.4636 57.8879 22.5413 57.8276C22.2924 58.0212 22.276 57.9372 22.4012 57.8988C22.4937 57.8701 22.5856 57.8416 22.6787 57.8148C22.7818 57.7848 22.9272 57.806 22.4833 57.846C22.5427 57.8408 22.6023 57.8295 22.6618 57.8243C22.7615 57.816 22.8615 57.8131 22.9618 57.8156C23.2949 57.8245 22.619 57.7631 22.9596 57.8149C23.0606 57.8302 23.1613 57.8511 23.2605 57.8759C23.3619 57.9014 23.4595 57.9384 23.5601 57.9655C23.1001 57.8403 23.4522 57.9284 23.576 57.9852C23.7962 58.0862 24.0025 58.2082 24.2064 58.3378C24.4197 58.4733 23.9652 58.1534 24.1027 58.2663C24.1456 58.3022 24.1934 58.3337 24.2378 58.3676C24.3273 58.4374 24.4148 58.5099 24.5003 58.5844C24.6687 58.7321 24.9273 58.9192 25.0343 59.118C25.0337 59.1161 24.7933 58.8237 24.9307 58.9971C24.9732 59.0509 25.0174 59.1034 25.0588 59.1583C25.1281 59.2489 25.1951 59.3409 25.2593 59.4352C25.3854 59.6204 25.5017 59.8135 25.604 60.0124C25.6592 60.1192 25.7229 60.3393 25.5577 59.9076C25.5732 59.948 25.5932 59.987 25.61 60.027C25.6516 60.1257 25.6897 60.2262 25.7247 60.3277C25.7582 60.4269 25.7883 60.528 25.815 60.6294C25.8305 60.689 25.8428 60.7496 25.8565 60.8098C25.9142 61.0545 25.8083 60.4289 25.8319 60.6762C25.8514 60.878 25.8645 61.0751 25.8535 61.2784C25.8331 61.6598 25.8947 60.9714 25.8498 61.3448C25.8329 61.484 25.8115 61.622 25.7853 61.7601C25.7432 61.9822 25.6886 62.2014 25.6213 62.4178C25.6079 62.4598 25.5938 62.5021 25.5804 62.5441C25.5025 62.7941 25.7132 62.2121 25.6146 62.4529C25.5693 62.5634 25.5247 62.6737 25.4741 62.7825C25.3886 62.9675 25.2935 63.1481 25.189 63.3228C25.1343 63.4143 25.0726 63.5012 25.0185 63.5925C25.2734 63.1648 25.0465 63.5486 24.9619 63.6565C24.831 63.8237 24.6917 63.984 24.5454 64.1376C24.4717 64.2145 24.3967 64.2898 24.3197 64.363C24.2296 64.4493 23.8547 64.7476 24.2633 64.4256C23.9124 64.7025 23.5603 64.9667 23.176 65.1965C22.9958 65.3039 22.8124 65.4054 22.6264 65.5008C22.5674 65.5312 22.5072 65.5599 22.448 65.5897C22.2489 65.6893 22.6122 65.5122 22.6095 65.5144C22.5095 65.5887 22.3572 65.6282 22.2414 65.6766C21.4082 66.0263 20.5392 66.2651 19.6538 66.4391C19.4354 66.4824 19.8295 66.4088 19.8283 66.4091C19.7661 66.4275 19.694 66.4319 19.6299 66.4419C19.52 66.459 19.4098 66.4754 19.2997 66.4898C19.0815 66.5185 18.8626 66.5427 18.6427 66.5617C18.2169 66.598 17.7896 66.6149 17.3616 66.6121C16.6234 66.6075 15.9441 67.3402 16.0056 68.0767C16.0719 68.8673 16.6793 69.4285 17.4703 69.4327C19.4776 69.4443 21.5705 69.0675 23.4022 68.2319C25.3763 67.3318 27.2167 65.9351 28.0718 63.8728C28.4989 62.8432 28.8056 61.6292 28.6443 60.509C28.4758 59.3403 27.9709 58.2563 27.2089 57.355C26.3841 56.3794 25.3989 55.6252 24.1809 55.2126C22.956 54.7975 21.5107 54.9624 20.5125 55.815C19.3202 56.8328 19.0891 58.5123 19.7116 59.9105C20.3649 61.3799 21.508 62.4844 22.8273 63.3695C24.0578 64.1956 25.4268 64.6515 26.92 64.5812C27.6331 64.5477 28.3426 64.4096 29.0399 64.2658C29.5858 64.1536 30.1353 64.0458 30.6744 63.9055C32.7011 63.3767 34.7067 62.3403 36.1431 60.7937C36.8995 59.9795 37.4605 59.0063 37.7682 57.9383C38.1141 56.7374 38.0212 55.4519 37.6882 54.2605C36.928 51.5396 34.8773 49.2765 32.6446 47.6383C30.7415 46.2423 28.5737 45.0073 26.216 44.6105C24.5803 44.3354 22.4284 44.3553 21.2825 45.7745C19.9124 47.4716 20.919 49.6666 22.1304 51.1291C23.8314 53.1819 26.0055 54.8366 28.3284 56.1295C30.6182 57.4048 33.1611 58.3546 35.7603 58.7338C38.374 59.1152 41.1052 58.9779 43.5722 57.9694C45.7238 57.0899 47.69 55.6959 49.0527 53.7937C50.4458 51.849 51.2138 49.642 51.3847 47.2585C51.5581 44.8331 50.9544 42.3543 50.0494 40.1181C48.0645 35.2159 44.4025 31.1956 39.8917 28.479C37.9906 27.3337 35.9312 26.4466 33.8001 25.8269C31.9241 25.2819 29.8933 24.8871 27.9334 25.0466C25.9059 25.2117 23.8102 26.1072 23.0485 28.1419C22.3018 30.1368 22.6191 32.4319 23.4887 34.3401C25.361 38.4506 29.0647 41.4496 32.775 43.8532C35.9683 45.9218 39.4868 47.7319 43.2164 48.5851C46.7913 49.4029 50.5562 49.3831 54.1103 48.4682C57.3147 47.6431 60.386 46.0032 62.6517 43.5651C64.9129 41.1319 66.1749 37.9612 66.2178 34.6426C66.2704 30.565 64.4912 26.5746 62.1598 23.3129C59.3003 19.3132 55.4046 16.1355 51.0954 13.8074C46.7579 11.4635 41.9388 9.92763 37.0501 9.30171C34.6553 8.99566 32.2357 8.88154 29.824 9.02172C29.0884 9.06438 28.4034 9.71651 28.468 10.4864C28.5309 11.2361 29.1444 11.888 29.9326 11.8424L29.9349 11.843Z" fill="#2E7D32"/>
<path d="M23.8449 11.8763C23.84 11.8607 23.8352 11.8458 23.8309 11.83C23.713 11.4588 23.7474 11.0544 23.9306 10.6605C24.0553 10.4218 24.2322 10.2262 24.4566 10.0787L24.8273 9.90334C25.0271 9.83169 25.2308 9.8137 25.4337 9.84951C25.6312 9.85068 25.8227 9.90248 26.0001 10.0027C26.1835 10.0894 26.3363 10.216 26.4524 10.3782C26.5865 10.5108 26.6848 10.6711 26.7432 10.8552C26.7482 10.8707 26.7529 10.8857 26.7572 10.9015C26.8751 11.2727 26.8407 11.677 26.6575 12.071C26.5328 12.3097 26.3559 12.5053 26.1315 12.6527L25.7608 12.8281C25.5611 12.8998 25.3573 12.9178 25.1544 12.882C24.9569 12.8808 24.7654 12.829 24.588 12.7288C24.4046 12.6421 24.2518 12.5155 24.1357 12.3532C24.0018 12.2213 23.9033 12.0603 23.8449 11.8763Z" fill="#2E7D32"/>
</g>
<defs>
<clipPath id="clip0_2022_4150">
<rect width="55.2524" height="58.7715" fill="white" transform="translate(56.0156) rotate(72.3851)"/>
</clipPath>
</defs>
</svg>
